<?xml version="1.0" encoding="UTF-8"?>
<svg width="334px" height="44px" viewBox="0 0 334 44" version="1.1" xmlns="http://www.w3.org/2000/svg" xmlns:xlink="http://www.w3.org/1999/xlink">
    <title>green</title>
    <g id="Page-1" stroke="none" stroke-width="1" fill="none" fill-rule="evenodd">
        <g id="Letter" transform="translate(-137.000000, -339.000000)" fill="#AFE444" fill-rule="nonzero">
            <path d="M161.4,382.4 C163.5,382.4 165.466667,382 167.3,381.2 C169.133333,380.4 170.741667,379.316667 172.125,377.95 C173.508333,376.583333 174.6,374.975 175.4,373.125 C176.2,371.275 176.6,369.3 176.6,367.2 L176.6,351.3 C176.6,350.033333 176.358333,348.841667 175.875,347.725 C175.391667,346.608333 174.733333,345.633333 173.9,344.8 L173,343.9 C172.133333,342.666667 171.025,341.675 169.675,340.925 C168.325,340.175 166.833333,339.8 165.2,339.8 C163.9,339.8 162.683333,340.041667 161.55,340.525 C160.416667,341.008333 159.425,341.675 158.575,342.525 C157.725,343.375 157.058333,344.366667 156.575,345.5 C156.091667,346.633333 155.85,347.85 155.85,349.15 L155.85,356.6 L155,355.75 C154.133333,354.55 153.033333,353.583333 151.7,352.85 C150.366667,352.116667 148.9,351.75 147.3,351.75 C146,351.75 144.783333,351.991667 143.65,352.475 C142.516667,352.958333 141.525,353.625 140.675,354.475 C139.825,355.325 139.158333,356.316667 138.675,357.45 C138.191667,358.583333 137.95,359.8 137.95,361.1 L137.95,365.05 C137.95,367.583333 138.5,369.916667 139.6,372.05 C140.7,374.183333 142.2,375.95 144.1,377.35 L144.7,377.95 C146.1,379.35 147.716667,380.441667 149.55,381.225 C151.383333,382.008333 153.35,382.4 155.45,382.4 L161.4,382.4 Z M153.3,378.15 C151.5,378.15 149.8,377.808333 148.2,377.125 C146.6,376.441667 145.208333,375.508333 144.025,374.325 C142.841667,373.141667 141.908333,371.75 141.225,370.15 C140.541667,368.55 140.2,366.85 140.2,365.05 L140.2,361.1 C140.2,360.1 140.383333,359.175 140.75,358.325 C141.116667,357.475 141.625,356.725 142.275,356.075 C142.925,355.425 143.675,354.916667 144.525,354.55 C145.375,354.183333 146.3,354 147.3,354 C148.3,354 149.233333,354.183333 150.1,354.55 C150.966667,354.916667 151.725,355.425 152.375,356.075 C153.025,356.725 153.533333,357.475 153.9,358.325 C154.266667,359.175 154.45,360.1 154.45,361.1 L154.45,363.9 L158.1,363.9 L158.1,349.15 C158.1,348.15 158.283333,347.225 158.65,346.375 C159.016667,345.525 159.525,344.775 160.175,344.125 C160.825,343.475 161.575,342.966667 162.425,342.6 C163.275,342.233333 164.2,342.05 165.2,342.05 C166.2,342.05 167.133333,342.233333 168,342.6 C168.866667,342.966667 169.625,343.475 170.275,344.125 C170.925,344.775 171.433333,345.525 171.8,346.375 C172.166667,347.225 172.35,348.15 172.35,349.15 L172.35,365.05 C172.35,366.85 172.008333,368.55 171.325,370.15 C170.641667,371.75 169.7,373.141667 168.5,374.325 C167.3,375.508333 165.908333,376.441667 164.325,377.125 C162.741667,377.808333 161.05,378.15 159.25,378.15 L153.3,378.15 Z M159.25,377 C160.883333,377 162.425,376.683333 163.875,376.05 C165.325,375.416667 166.591667,374.566667 167.675,373.5 C168.758333,372.433333 169.616667,371.175 170.25,369.725 C170.883333,368.275 171.2,366.716667 171.2,365.05 L171.2,349.15 C171.2,348.316667 171.041667,347.541667 170.725,346.825 C170.408333,346.108333 169.975,345.483333 169.425,344.95 C168.875,344.416667 168.241667,343.991667 167.525,343.675 C166.808333,343.358333 166.033333,343.2 165.2,343.2 C164.366667,343.2 163.591667,343.358333 162.875,343.675 C162.158333,343.991667 161.533333,344.416667 161,344.95 C160.466667,345.483333 160.041667,346.108333 159.725,346.825 C159.408333,347.541667 159.25,348.316667 159.25,349.15 L159.25,365.05 L153.3,365.05 L153.3,361.1 C153.3,360.266667 153.141667,359.491667 152.825,358.775 C152.508333,358.058333 152.075,357.433333 151.525,356.9 C150.975,356.366667 150.341667,355.941667 149.625,355.625 C148.908333,355.308333 148.133333,355.15 147.3,355.15 C146.466667,355.15 145.691667,355.308333 144.975,355.625 C144.258333,355.941667 143.633333,356.366667 143.1,356.9 C142.566667,357.433333 142.141667,358.058333 141.825,358.775 C141.508333,359.491667 141.35,360.266667 141.35,361.1 L141.35,365.05 C141.35,366.716667 141.666667,368.275 142.3,369.725 C142.933333,371.175 143.783333,372.433333 144.85,373.5 C145.916667,374.566667 147.175,375.416667 148.625,376.05 C150.075,376.683333 151.633333,377 153.3,377 L159.25,377 Z M161.55,350.7 C161.15,351.066667 160.9,350.95 160.8,350.35 C160.733333,350.016667 160.716667,349.583333 160.75,349.05 C160.783333,348.516667 160.933333,348 161.2,347.5 C161.466667,347 161.833333,346.575 162.3,346.225 C162.766667,345.875 163.183333,345.616667 163.55,345.45 C163.916667,345.283333 164.225,345.216667 164.475,345.25 C164.725,345.283333 164.933333,345.366667 165.1,345.5 C165.266667,345.633333 165.383333,345.808333 165.45,346.025 C165.516667,346.241667 165.45,346.483333 165.25,346.75 C165.05,347.016667 164.741667,347.3 164.325,347.6 C163.908333,347.9 163.516667,348.233333 163.15,348.6 C162.783333,348.966667 162.466667,349.35 162.2,349.75 C161.933333,350.15 161.716667,350.466667 161.55,350.7 Z M161.25,353.75 C160.75,353.75 160.5,353.5 160.5,353 C160.5,352.5 160.75,352.25 161.25,352.25 C161.75,352.25 162,352.5 162,353 C162,353.5 161.75,353.75 161.25,353.75 Z M143.8,365.55 C143.6,365.583333 143.416667,365.383333 143.25,364.95 C143.116667,364.516667 143.033333,363.883333 143,363.05 C142.966667,362.216667 142.966667,361.466667 143,360.8 C143.066667,360.1 143.15,359.533333 143.25,359.1 C143.35,358.666667 143.583333,358.283333 143.95,357.95 C144.316667,357.65 144.758333,357.4 145.275,357.2 C145.791667,357 146.283333,356.883333 146.75,356.85 C147.183333,356.85 147.516667,356.941667 147.75,357.125 C147.983333,357.308333 148.066667,357.483333 148,357.65 C147.933333,357.816667 147.75,357.983333 147.45,358.15 C147.15,358.316667 146.833333,358.55 146.5,358.85 C145.8,359.55 145.3,360.483333 145,361.65 C144.833333,362.216667 144.725,362.808333 144.675,363.425 C144.625,364.041667 144.516667,364.533333 144.35,364.9 C144.183333,365.3 144,365.516667 143.8,365.55 Z M143.75,367.95 C143.516667,367.95 143.333333,367.916667 143.2,367.85 C143.066667,367.783333 143,367.616667 143,367.35 C143,367.083333 143.066667,366.925 143.2,366.875 C143.333333,366.825 143.516667,366.8 143.75,366.8 C143.983333,366.8 144.166667,366.825 144.3,366.875 C144.433333,366.925 144.5,367.083333 144.5,367.35 C144.5,367.616667 144.433333,367.783333 144.3,367.85 C144.166667,367.916667 143.983333,367.95 143.75,367.95 Z M202.9,382.4 C205.833333,382.4 207.933333,381.766667 209.2,380.5 C210.466667,379.233333 211.1,377.116667 211.1,374.15 C211.1,371.216667 210.466667,369.116667 209.2,367.85 L209.2,367.85 L207.9,366.6 C207.433333,365.866667 206.833333,365.266667 206.1,364.8 C206.133333,364.7 206.15,364.5 206.15,364.2 C206.15,362.3 205.816667,360.866667 205.15,359.9 C206.916667,359.233333 208.35,358.133333 209.45,356.6 C210.55,355.066667 211.1,353.3 211.1,351.3 C211.1,350.033333 210.858333,348.841667 210.375,347.725 C209.891667,346.608333 209.233333,345.633333 208.4,344.8 L208.4,344.8 L207.55,343.95 C206.683333,342.683333 205.575,341.675 204.225,340.925 C202.875,340.175 201.383333,339.8 199.75,339.8 L199.75,339.8 L183.85,339.8 C182.55,339.8 181.333333,340.041667 180.2,340.525 C179.066667,341.008333 178.075,341.675 177.225,342.525 C176.375,343.375 175.708333,344.366667 175.225,345.5 C174.741667,346.633333 174.5,347.85 174.5,349.15 L174.5,349.15 L174.5,371 C174.5,372.633333 174.875,374.125 175.625,375.475 C176.375,376.825 177.366667,377.933333 178.6,378.8 L178.6,378.8 L179.5,379.7 C180.333333,380.533333 181.308333,381.191667 182.425,381.675 C183.541667,382.158333 184.733333,382.4 186,382.4 L186,382.4 L202.9,382.4 Z M200.75,378.15 L183.85,378.15 C182.85,378.15 181.925,377.966667 181.075,377.6 C180.225,377.233333 179.475,376.725 178.825,376.075 C178.175,375.425 177.666667,374.666667 177.3,373.8 C176.933333,372.933333 176.75,372 176.75,371 L176.75,371 L176.75,349.15 C176.75,348.15 176.933333,347.225 177.3,346.375 C177.666667,345.525 178.175,344.775 178.825,344.125 C179.475,343.475 180.225,342.966667 181.075,342.6 C181.925,342.233333 182.85,342.05 183.85,342.05 L183.85,342.05 L199.75,342.05 C200.75,342.05 201.675,342.233333 202.525,342.6 C203.375,342.966667 204.125,343.475 204.775,344.125 C205.425,344.775 205.933333,345.525 206.3,346.375 C206.666667,347.225 206.85,348.15 206.85,349.15 C206.85,350.15 206.666667,351.075 206.3,351.925 C205.933333,352.775 205.425,353.525 204.775,354.175 C204.125,354.825 203.375,355.333333 202.525,355.7 C201.675,356.066667 200.75,356.25 199.75,356.25 L199.75,356.25 L190.95,356.25 L190.95,357.95 L197.8,357.95 C199.3,357.95 200.358333,358.258333 200.975,358.875 C201.591667,359.491667 201.9,360.55 201.9,362.05 C201.9,364.15 201.233333,365.433333 199.9,365.9 L199.9,365.9 L200.75,365.9 C202.95,365.9 204.516667,366.366667 205.45,367.3 C206.383333,368.233333 206.85,369.8 206.85,372 C206.85,374.2 206.383333,375.775 205.45,376.725 C204.516667,377.675 202.95,378.15 200.75,378.15 L200.75,378.15 Z M200.75,377 C202.516667,377 203.783333,376.616667 204.55,375.85 C205.316667,375.083333 205.7,373.8 205.7,372 C205.7,370.233333 205.316667,368.966667 204.55,368.2 C203.783333,367.433333 202.516667,367.05 200.75,367.05 L200.75,367.05 L189.8,367.05 L189.8,365.05 L197.8,365.05 C198.866667,365.05 199.625,364.816667 200.075,364.35 C200.525,363.883333 200.75,363.116667 200.75,362.05 C200.75,360.983333 200.525,360.225 200.075,359.775 C199.625,359.325 198.866667,359.1 197.8,359.1 L197.8,359.1 L189.8,359.1 L189.8,355.1 L199.75,355.1 C200.583333,355.1 201.358333,354.941667 202.075,354.625 C202.791667,354.308333 203.416667,353.883333 203.95,353.35 C204.483333,352.816667 204.908333,352.191667 205.225,351.475 C205.541667,350.758333 205.7,349.983333 205.7,349.15 C205.7,348.316667 205.541667,347.541667 205.225,346.825 C204.908333,346.108333 204.483333,345.483333 203.95,344.95 C203.416667,344.416667 202.791667,343.991667 202.075,343.675 C201.358333,343.358333 200.583333,343.2 199.75,343.2 L199.75,343.2 L183.85,343.2 C183.016667,343.2 182.241667,343.358333 181.525,343.675 C180.808333,343.991667 180.183333,344.416667 179.65,344.95 C179.116667,345.483333 178.691667,346.108333 178.375,346.825 C178.058333,347.541667 177.9,348.316667 177.9,349.15 L177.9,349.15 L177.9,371 C177.9,371.833333 178.058333,372.608333 178.375,373.325 C178.691667,374.041667 179.116667,374.675 179.65,375.225 C180.183333,375.775 180.808333,376.208333 181.525,376.525 C182.241667,376.841667 183.016667,377 183.85,377 L183.85,377 L200.75,377 Z M180.35,360.925 C180.15,361.008333 179.983333,360.65 179.85,359.85 C179.783333,359.45 179.725,358.95 179.675,358.35 C179.625,357.75 179.591667,357.108333 179.575,356.425 C179.558333,355.741667 179.55,355.041667 179.55,354.325 L179.55,354.325 L179.55,352.3 C179.616667,351.033333 179.7,350.008333 179.8,349.225 C179.9,348.441667 180.133333,347.766667 180.5,347.2 C180.866667,346.633333 181.308333,346.158333 181.825,345.775 C182.341667,345.391667 182.816667,345.2 183.25,345.2 C183.716667,345.166667 184.058333,345.3 184.275,345.6 C184.491667,345.9 184.566667,346.2 184.5,346.5 C184.433333,346.833333 184.258333,347.158333 183.975,347.475 C183.691667,347.791667 183.383333,348.233333 183.05,348.8 C182.716667,349.366667 182.425,350.083333 182.175,350.95 C181.925,351.816667 181.716667,352.783333 181.55,353.85 C181.383333,354.916667 181.266667,356.008333 181.2,357.125 C181.133333,358.241667 181.016667,359.133333 180.85,359.8 C180.716667,360.466667 180.55,360.841667 180.35,360.925 Z M180.3,365.3 C179.933333,365.3 179.716667,365.191667 179.65,364.975 C179.583333,364.758333 179.55,364.516667 179.55,364.25 C179.55,363.95 179.583333,363.7 179.65,363.5 C179.716667,363.3 179.933333,363.2 180.3,363.2 C180.666667,363.2 180.883333,363.3 180.95,363.5 C181.016667,363.7 181.05,363.95 181.05,364.25 C181.05,364.516667 181.016667,364.758333 180.95,364.975 C180.883333,365.191667 180.666667,365.3 180.3,365.3 Z M234.3,382.4 C235.566667,382.4 236.766667,382.158333 237.9,381.675 C239.033333,381.191667 240.016667,380.533333 240.85,379.7 C241.683333,378.866667 242.341667,377.883333 242.825,376.75 C243.308333,375.616667 243.55,374.416667 243.55,373.15 C243.55,371.883333 243.308333,370.691667 242.825,369.575 C242.341667,368.458333 241.683333,367.483333 240.85,366.65 L240.85,366.65 L239.95,365.75 C239.083333,364.516667 237.975,363.525 236.625,362.775 C235.275,362.025 233.783333,361.65 232.15,361.65 L232.15,361.65 L229.65,361.65 L229.65,351.3 C229.65,350.033333 229.408333,348.841667 228.925,347.725 C228.441667,346.608333 227.783333,345.633333 226.95,344.8 L226.95,344.8 L226.05,343.9 C225.183333,342.666667 224.075,341.675 222.725,340.925 C221.375,340.175 219.883333,339.8 218.25,339.8 C216.95,339.8 215.733333,340.041667 214.6,340.525 C213.466667,341.008333 212.475,341.675 211.625,342.525 C210.775,343.375 210.108333,344.366667 209.625,345.5 C209.141667,346.633333 208.9,347.85 208.9,349.15 L208.9,349.15 L208.9,371 C208.9,372.633333 209.266667,374.116667 210,375.45 C210.733333,376.783333 211.716667,377.883333 212.95,378.75 L212.95,378.75 L213.9,379.7 C214.733333,380.533333 215.708333,381.191667 216.825,381.675 C217.941667,382.158333 219.133333,382.4 220.4,382.4 L220.4,382.4 L234.3,382.4 Z M232.15,378.15 L218.25,378.15 C217.283333,378.15 216.366667,377.966667 215.5,377.6 C214.633333,377.233333 213.875,376.725 213.225,376.075 C212.575,375.425 212.066667,374.666667 211.7,373.8 C211.333333,372.933333 211.15,372 211.15,371 L211.15,371 L211.15,349.15 C211.15,348.15 211.333333,347.225 211.7,346.375 C212.066667,345.525 212.575,344.775 213.225,344.125 C213.875,343.475 214.633333,342.966667 215.5,342.6 C216.366667,342.233333 217.283333,342.05 218.25,342.05 C219.25,342.05 220.183333,342.233333 221.05,342.6 C221.916667,342.966667 222.675,343.475 223.325,344.125 C223.975,344.775 224.483333,345.525 224.85,346.375 C225.216667,347.225 225.4,348.15 225.4,349.15 L225.4,349.15 L225.4,363.9 L232.15,363.9 C233.15,363.9 234.083333,364.083333 234.95,364.45 C235.816667,364.816667 236.575,365.325 237.225,365.975 C237.875,366.625 238.383333,367.375 238.75,368.225 C239.116667,369.075 239.3,370 239.3,371 C239.3,372 239.116667,372.933333 238.75,373.8 C238.383333,374.666667 237.875,375.425 237.225,376.075 C236.575,376.725 235.816667,377.233333 234.95,377.6 C234.083333,377.966667 233.15,378.15 232.15,378.15 L232.15,378.15 Z M232.15,377 C232.983333,377 233.758333,376.841667 234.475,376.525 C235.191667,376.208333 235.825,375.775 236.375,375.225 C236.925,374.675 237.358333,374.041667 237.675,373.325 C237.991667,372.608333 238.15,371.833333 238.15,371 C238.15,370.166667 237.991667,369.391667 237.675,368.675 C237.358333,367.958333 236.925,367.333333 236.375,366.8 C235.825,366.266667 235.191667,365.841667 234.475,365.525 C233.758333,365.208333 232.983333,365.05 232.15,365.05 L232.15,365.05 L224.25,365.05 L224.25,349.15 C224.25,348.316667 224.091667,347.541667 223.775,346.825 C223.458333,346.108333 223.025,345.483333 222.475,344.95 C221.925,344.416667 221.291667,343.991667 220.575,343.675 C219.858333,343.358333 219.083333,343.2 218.25,343.2 C217.45,343.2 216.683333,343.358333 215.95,343.675 C215.216667,343.991667 214.583333,344.416667 214.05,344.95 C213.516667,345.483333 213.091667,346.108333 212.775,346.825 C212.458333,347.541667 212.3,348.316667 212.3,349.15 L212.3,349.15 L212.3,371 C212.3,371.833333 212.458333,372.608333 212.775,373.325 C213.091667,374.041667 213.516667,374.675 214.05,375.225 C214.583333,375.775 215.216667,376.208333 215.95,376.525 C216.683333,376.841667 217.45,377 218.25,377 L218.25,377 L232.15,377 Z M214.75,356.725 C214.55,356.775 214.366667,356.516667 214.2,355.95 C214.133333,355.65 214.083333,355.283333 214.05,354.85 C214.016667,354.416667 213.991667,353.958333 213.975,353.475 C213.958333,352.991667 213.95,352.491667 213.95,351.975 L213.95,351.975 L213.95,350.55 C214.016667,349.683333 214.1,348.958333 214.2,348.375 C214.3,347.791667 214.533333,347.3 214.9,346.9 C215.266667,346.466667 215.716667,346.125 216.25,345.875 C216.783333,345.625 217.25,345.5 217.65,345.5 C218.116667,345.466667 218.466667,345.55 218.7,345.75 C218.933333,345.95 219.016667,346.183333 218.95,346.45 C218.883333,346.65 218.7,346.858333 218.4,347.075 C218.1,347.291667 217.783333,347.616667 217.45,348.05 C217.15,348.45 216.866667,348.966667 216.6,349.6 C216.333333,350.233333 216.116667,350.933333 215.95,351.7 C215.783333,352.466667 215.675,353.241667 215.625,354.025 C215.575,354.808333 215.466667,355.433333 215.3,355.9 C215.133333,356.4 214.95,356.675 214.75,356.725 Z M214.7,359.85 C214.2,359.85 213.95,359.6 213.95,359.1 C213.95,358.6 214.2,358.35 214.7,358.35 C215.2,358.35 215.45,358.6 215.45,359.1 C215.45,359.6 215.2,359.85 214.7,359.85 Z M266.9,382.4 C268.166667,382.4 269.366667,382.158333 270.5,381.675 C271.633333,381.191667 272.616667,380.533333 273.45,379.7 C274.283333,378.866667 274.941667,377.883333 275.425,376.75 C275.908333,375.616667 276.15,374.416667 276.15,373.15 C276.15,371.883333 275.908333,370.691667 275.425,369.575 C274.941667,368.458333 274.283333,367.483333 273.45,366.65 L273.45,366.65 L272.55,365.75 C271.683333,364.516667 270.575,363.525 269.225,362.775 C267.875,362.025 266.383333,361.65 264.75,361.65 L264.75,361.65 L262.25,361.65 L262.25,351.3 C262.25,350.033333 262.008333,348.841667 261.525,347.725 C261.041667,346.608333 260.383333,345.633333 259.55,344.8 L259.55,344.8 L258.65,343.9 C257.783333,342.666667 256.675,341.675 255.325,340.925 C253.975,340.175 252.483333,339.8 250.85,339.8 C249.55,339.8 248.333333,340.041667 247.2,340.525 C246.066667,341.008333 245.075,341.675 244.225,342.525 C243.375,343.375 242.708333,344.366667 242.225,345.5 C241.741667,346.633333 241.5,347.85 241.5,349.15 L241.5,349.15 L241.5,371 C241.5,372.633333 241.866667,374.116667 242.6,375.45 C243.333333,376.783333 244.316667,377.883333 245.55,378.75 L245.55,378.75 L246.5,379.7 C247.333333,380.533333 248.308333,381.191667 249.425,381.675 C250.541667,382.158333 251.733333,382.4 253,382.4 L253,382.4 L266.9,382.4 Z M264.75,378.15 L250.85,378.15 C249.883333,378.15 248.966667,377.966667 248.1,377.6 C247.233333,377.233333 246.475,376.725 245.825,376.075 C245.175,375.425 244.666667,374.666667 244.3,373.8 C243.933333,372.933333 243.75,372 243.75,371 L243.75,371 L243.75,349.15 C243.75,348.15 243.933333,347.225 244.3,346.375 C244.666667,345.525 245.175,344.775 245.825,344.125 C246.475,343.475 247.233333,342.966667 248.1,342.6 C248.966667,342.233333 249.883333,342.05 250.85,342.05 C251.85,342.05 252.783333,342.233333 253.65,342.6 C254.516667,342.966667 255.275,343.475 255.925,344.125 C256.575,344.775 257.083333,345.525 257.45,346.375 C257.816667,347.225 258,348.15 258,349.15 L258,349.15 L258,363.9 L264.75,363.9 C265.75,363.9 266.683333,364.083333 267.55,364.45 C268.416667,364.816667 269.175,365.325 269.825,365.975 C270.475,366.625 270.983333,367.375 271.35,368.225 C271.716667,369.075 271.9,370 271.9,371 C271.9,372 271.716667,372.933333 271.35,373.8 C270.983333,374.666667 270.475,375.425 269.825,376.075 C269.175,376.725 268.416667,377.233333 267.55,377.6 C266.683333,377.966667 265.75,378.15 264.75,378.15 L264.75,378.15 Z M264.75,377 C265.583333,377 266.358333,376.841667 267.075,376.525 C267.791667,376.208333 268.425,375.775 268.975,375.225 C269.525,374.675 269.958333,374.041667 270.275,373.325 C270.591667,372.608333 270.75,371.833333 270.75,371 C270.75,370.166667 270.591667,369.391667 270.275,368.675 C269.958333,367.958333 269.525,367.333333 268.975,366.8 C268.425,366.266667 267.791667,365.841667 267.075,365.525 C266.358333,365.208333 265.583333,365.05 264.75,365.05 L264.75,365.05 L256.85,365.05 L256.85,349.15 C256.85,348.316667 256.691667,347.541667 256.375,346.825 C256.058333,346.108333 255.625,345.483333 255.075,344.95 C254.525,344.416667 253.891667,343.991667 253.175,343.675 C252.458333,343.358333 251.683333,343.2 250.85,343.2 C250.05,343.2 249.283333,343.358333 248.55,343.675 C247.816667,343.991667 247.183333,344.416667 246.65,344.95 C246.116667,345.483333 245.691667,346.108333 245.375,346.825 C245.058333,347.541667 244.9,348.316667 244.9,349.15 L244.9,349.15 L244.9,371 C244.9,371.833333 245.058333,372.608333 245.375,373.325 C245.691667,374.041667 246.116667,374.675 246.65,375.225 C247.183333,375.775 247.816667,376.208333 248.55,376.525 C249.283333,376.841667 250.05,377 250.85,377 L250.85,377 L264.75,377 Z M247.35,356.725 C247.15,356.775 246.966667,356.516667 246.8,355.95 C246.733333,355.65 246.683333,355.283333 246.65,354.85 C246.616667,354.416667 246.591667,353.958333 246.575,353.475 C246.558333,352.991667 246.55,352.491667 246.55,351.975 L246.55,351.975 L246.55,350.55 C246.616667,349.683333 246.7,348.958333 246.8,348.375 C246.9,347.791667 247.133333,347.3 247.5,346.9 C247.866667,346.466667 248.316667,346.125 248.85,345.875 C249.383333,345.625 249.85,345.5 250.25,345.5 C250.716667,345.466667 251.066667,345.55 251.3,345.75 C251.533333,345.95 251.616667,346.183333 251.55,346.45 C251.483333,346.65 251.3,346.858333 251,347.075 C250.7,347.291667 250.383333,347.616667 250.05,348.05 C249.75,348.45 249.466667,348.966667 249.2,349.6 C248.933333,350.233333 248.716667,350.933333 248.55,351.7 C248.383333,352.466667 248.275,353.241667 248.225,354.025 C248.175,354.808333 248.066667,355.433333 247.9,355.9 C247.733333,356.4 247.55,356.675 247.35,356.725 Z M247.3,359.85 C246.8,359.85 246.55,359.6 246.55,359.1 C246.55,358.6 246.8,358.35 247.3,358.35 C247.8,358.35 248.05,358.6 248.05,359.1 C248.05,359.6 247.8,359.85 247.3,359.85 Z M289.7,382.4 C290.966667,382.4 292.158333,382.158333 293.275,381.675 C294.391667,381.191667 295.366667,380.533333 296.2,379.7 C297.033333,378.866667 297.691667,377.891667 298.175,376.775 C298.658333,375.658333 298.9,374.466667 298.9,373.2 L298.9,373.2 L298.9,370.3 C300.2,370.066667 301.391667,369.616667 302.475,368.95 C303.558333,368.283333 304.5,367.458333 305.3,366.475 C306.1,365.491667 306.725,364.391667 307.175,363.175 C307.625,361.958333 307.85,360.666667 307.85,359.3 L307.85,359.3 L307.85,351.35 C307.85,350.083333 307.608333,348.891667 307.125,347.775 C306.641667,346.658333 305.983333,345.683333 305.15,344.85 L305.15,344.85 L304.3,344.05 C303.466667,342.783333 302.366667,341.766667 301,341 C299.633333,340.233333 298.133333,339.85 296.5,339.85 C294.533333,339.85 292.775,340.383333 291.225,341.45 C289.675,342.516667 288.55,343.9 287.85,345.6 L287.85,345.6 L287.25,344.85 L286.35,343.95 C285.483333,342.716667 284.383333,341.725 283.05,340.975 C281.716667,340.225 280.233333,339.85 278.6,339.85 C277.3,339.85 276.083333,340.091667 274.95,340.575 C273.816667,341.058333 272.825,341.725 271.975,342.575 C271.125,343.425 270.458333,344.416667 269.975,345.55 C269.491667,346.683333 269.25,347.9 269.25,349.2 L269.25,349.2 L269.25,357.15 C269.25,359.183333 269.7,361.033333 270.6,362.7 C271.5,364.366667 272.716667,365.716667 274.25,366.75 L274.25,366.75 L274.85,367.3 C275.783333,368.3 276.9,369.066667 278.2,369.6 L278.2,369.6 L278.2,371.05 C278.2,372.716667 278.575,374.225 279.325,375.575 C280.075,376.925 281.083333,378.016667 282.35,378.85 L282.35,378.85 L283.2,379.7 C284.033333,380.533333 285.008333,381.191667 286.125,381.675 C287.241667,382.158333 288.433333,382.4 289.7,382.4 Z M287.55,378.15 C286.55,378.15 285.625,377.966667 284.775,377.6 C283.925,377.233333 283.175,376.725 282.525,376.075 C281.875,375.425 281.366667,374.675 281,373.825 C280.633333,372.975 280.45,372.05 280.45,371.05 L280.45,371.05 L280.45,366.25 C279.183333,366.25 278.008333,366.008333 276.925,365.525 C275.841667,365.041667 274.9,364.383333 274.1,363.55 C273.3,362.716667 272.666667,361.758333 272.2,360.675 C271.733333,359.591667 271.5,358.416667 271.5,357.15 L271.5,357.15 L271.5,349.2 C271.5,348.2 271.683333,347.275 272.05,346.425 C272.416667,345.575 272.925,344.825 273.575,344.175 C274.225,343.525 274.975,343.016667 275.825,342.65 C276.675,342.283333 277.6,342.1 278.6,342.1 C279.6,342.1 280.525,342.283333 281.375,342.65 C282.225,343.016667 282.975,343.525 283.625,344.175 C284.275,344.825 284.783333,345.575 285.15,346.425 C285.516667,347.275 285.7,348.2 285.7,349.2 L285.7,349.2 L285.7,357.95 L289.4,357.95 L289.4,349.2 C289.4,348.2 289.583333,347.275 289.95,346.425 C290.316667,345.575 290.825,344.825 291.475,344.175 C292.125,343.525 292.875,343.016667 293.725,342.65 C294.575,342.283333 295.5,342.1 296.5,342.1 C297.5,342.1 298.425,342.283333 299.275,342.65 C300.125,343.016667 300.875,343.525 301.525,344.175 C302.175,344.825 302.683333,345.575 303.05,346.425 C303.416667,347.275 303.6,348.2 303.6,349.2 L303.6,349.2 L303.6,357.15 C303.6,358.416667 303.366667,359.591667 302.9,360.675 C302.433333,361.758333 301.8,362.716667 301,363.55 C300.2,364.383333 299.25,365.041667 298.15,365.525 C297.05,366.008333 295.883333,366.25 294.65,366.25 L294.65,366.25 L294.65,371.05 C294.65,372.05 294.466667,372.975 294.1,373.825 C293.733333,374.675 293.225,375.425 292.575,376.075 C291.925,376.725 291.175,377.233333 290.325,377.6 C289.475,377.966667 288.55,378.15 287.55,378.15 Z M287.55,377 C288.383333,377 289.158333,376.841667 289.875,376.525 C290.591667,376.208333 291.216667,375.783333 291.75,375.25 C292.283333,374.716667 292.708333,374.091667 293.025,373.375 C293.341667,372.658333 293.5,371.883333 293.5,371.05 L293.5,371.05 L293.5,365.1 L294.55,365.1 C295.65,365.1 296.675,364.891667 297.625,364.475 C298.575,364.058333 299.408333,363.491667 300.125,362.775 C300.841667,362.058333 301.408333,361.216667 301.825,360.25 C302.241667,359.283333 302.45,358.25 302.45,357.15 L302.45,357.15 L302.45,349.2 C302.45,348.366667 302.291667,347.591667 301.975,346.875 C301.658333,346.158333 301.233333,345.533333 300.7,345 C300.166667,344.466667 299.541667,344.041667 298.825,343.725 C298.108333,343.408333 297.333333,343.25 296.5,343.25 C295.666667,343.25 294.891667,343.408333 294.175,343.725 C293.458333,344.041667 292.833333,344.466667 292.3,345 C291.766667,345.533333 291.341667,346.158333 291.025,346.875 C290.708333,347.591667 290.55,348.366667 290.55,349.2 L290.55,349.2 L290.55,359.1 L284.55,359.1 L284.55,349.2 C284.55,348.366667 284.391667,347.591667 284.075,346.875 C283.758333,346.158333 283.333333,345.533333 282.8,345 C282.266667,344.466667 281.641667,344.041667 280.925,343.725 C280.208333,343.408333 279.433333,343.25 278.6,343.25 C277.766667,343.25 276.991667,343.408333 276.275,343.725 C275.558333,344.041667 274.933333,344.466667 274.4,345 C273.866667,345.533333 273.441667,346.158333 273.125,346.875 C272.808333,347.591667 272.65,348.366667 272.65,349.2 L272.65,349.2 L272.65,357.15 C272.65,358.25 272.858333,359.283333 273.275,360.25 C273.691667,361.216667 274.258333,362.058333 274.975,362.775 C275.691667,363.491667 276.533333,364.058333 277.5,364.475 C278.466667,364.891667 279.5,365.1 280.6,365.1 L280.6,365.1 L281.6,365.1 L281.6,371.05 C281.6,371.883333 281.758333,372.658333 282.075,373.375 C282.391667,374.091667 282.816667,374.716667 283.35,375.25 C283.883333,375.783333 284.508333,376.208333 285.225,376.525 C285.941667,376.841667 286.716667,377 287.55,377 Z M293,352.95 C292.8,352.983333 292.616667,352.8 292.45,352.4 C292.316667,352 292.233333,351.425 292.2,350.675 C292.166667,349.925 292.166667,349.233333 292.2,348.6 C292.233333,347.966667 292.308333,347.45 292.425,347.05 C292.541667,346.65 292.783333,346.316667 293.15,346.05 C293.516667,345.783333 293.966667,345.558333 294.5,345.375 C295.033333,345.191667 295.5,345.083333 295.9,345.05 C296.366667,345.016667 296.708333,345.075 296.925,345.225 C297.141667,345.375 297.216667,345.533333 297.15,345.7 C297.116667,345.866667 296.95,346.033333 296.65,346.2 C296.35,346.366667 296.033333,346.583333 295.7,346.85 C295.4,347.15 295.116667,347.516667 294.85,347.95 C294.583333,348.383333 294.366667,348.866667 294.2,349.4 C294.033333,349.933333 293.916667,350.475 293.85,351.025 C293.783333,351.575 293.683333,352.033333 293.55,352.4 C293.383333,352.733333 293.2,352.916667 293,352.95 Z M275.1,356.75 C274.9,356.816667 274.733333,356.566667 274.6,356 C274.533333,355.7 274.475,355.333333 274.425,354.9 C274.375,354.466667 274.341667,354.008333 274.325,353.525 C274.308333,353.041667 274.3,352.541667 274.3,352.025 L274.3,350.6 C274.366667,349.7 274.45,348.966667 274.55,348.4 C274.65,347.833333 274.883333,347.35 275.25,346.95 C275.616667,346.516667 276.058333,346.166667 276.575,345.9 C277.091667,345.633333 277.566667,345.5 278,345.5 C278.466667,345.5 278.808333,345.6 279.025,345.8 C279.241667,346 279.316667,346.216667 279.25,346.45 C279.216667,346.683333 279.05,346.908333 278.75,347.125 C278.45,347.341667 278.133333,347.666667 277.8,348.1 C277.1,348.933333 276.6,350.133333 276.3,351.7 C276.133333,352.466667 276.016667,353.25 275.95,354.05 C275.883333,354.85 275.783333,355.483333 275.65,355.95 C275.483333,356.416667 275.3,356.683333 275.1,356.75 Z M292.95,356.3 C292.45,356.3 292.2,356.05 292.2,355.55 C292.2,355.05 292.45,354.8 292.95,354.8 C293.45,354.8 293.7,355.05 293.7,355.55 C293.7,356.05 293.45,356.3 292.95,356.3 Z M275.05,359.9 C274.55,359.9 274.3,359.633333 274.3,359.1 C274.3,358.6 274.55,358.35 275.05,358.35 C275.55,358.35 275.8,358.6 275.8,359.1 C275.8,359.633333 275.55,359.9 275.05,359.9 Z M352,382.4 C353.533333,382.4 354.983333,382.108333 356.35,381.525 C357.716667,380.941667 358.908333,380.141667 359.925,379.125 C360.941667,378.108333 361.741667,376.916667 362.325,375.55 C362.908333,374.183333 363.2,372.733333 363.2,371.2 L363.2,371.2 L363.2,369.2 C363.2,368.1 362.991667,367.033333 362.575,366 C362.158333,364.966667 361.616667,364.066667 360.95,363.3 C361.75,362.466667 362.325,361.566667 362.675,360.6 C363.025,359.633333 363.2,358.516667 363.2,357.25 L363.2,357.25 L363.2,353.25 C363.2,351.716667 362.908333,350.275 362.325,348.925 C361.741667,347.575 360.95,346.4 359.95,345.4 L359.95,345.4 L359.15,344.6 C358.116667,343.133333 356.791667,341.966667 355.175,341.1 C353.558333,340.233333 351.783333,339.8 349.85,339.8 L349.85,339.8 L333.95,339.8 C332.65,339.8 331.425,340.041667 330.275,340.525 C329.125,341.008333 328.125,341.675 327.275,342.525 C326.425,343.375 325.758333,344.366667 325.275,345.5 C324.791667,346.633333 324.55,347.85 324.55,349.15 L324.55,349.15 L324.55,371 C324.55,372.6 324.916667,374.066667 325.65,375.4 C326.383333,376.733333 327.35,377.833333 328.55,378.7 L328.55,378.7 L329.55,379.7 C330.383333,380.566667 331.366667,381.233333 332.5,381.7 C333.633333,382.166667 334.833333,382.4 336.1,382.4 L336.1,382.4 L352,382.4 Z M349.85,378.15 L333.95,378.15 C332.95,378.15 332.016667,377.966667 331.15,377.6 C330.283333,377.233333 329.525,376.725 328.875,376.075 C328.225,375.425 327.716667,374.666667 327.35,373.8 C326.983333,372.933333 326.8,372 326.8,371 L326.8,371 L326.8,349.15 C326.8,348.15 326.983333,347.225 327.35,346.375 C327.716667,345.525 328.225,344.775 328.875,344.125 C329.525,343.475 330.283333,342.966667 331.15,342.6 C332.016667,342.233333 332.95,342.05 333.95,342.05 L333.95,342.05 L349.85,342.05 C351.116667,342.05 352.3,342.283333 353.4,342.75 C354.5,343.216667 355.466667,343.866667 356.3,344.7 C357.133333,345.533333 357.783333,346.5 358.25,347.6 C358.716667,348.7 358.95,349.866667 358.95,351.1 L358.95,351.1 L358.95,355.1 C358.95,356.366667 358.65,357.525 358.05,358.575 C357.45,359.625 356.65,360.466667 355.65,361.1 C356.616667,361.733333 357.408333,362.566667 358.025,363.6 C358.641667,364.633333 358.95,365.783333 358.95,367.05 L358.95,367.05 L358.95,369.05 C358.95,370.316667 358.716667,371.5 358.25,372.6 C357.783333,373.7 357.133333,374.658333 356.3,375.475 C355.466667,376.291667 354.5,376.941667 353.4,377.425 C352.3,377.908333 351.116667,378.15 349.85,378.15 L349.85,378.15 Z M349.85,377 C350.95,377 351.983333,376.791667 352.95,376.375 C353.916667,375.958333 354.758333,375.383333 355.475,374.65 C356.191667,373.916667 356.758333,373.075 357.175,372.125 C357.591667,371.175 357.8,370.15 357.8,369.05 L357.8,369.05 L357.8,367.05 C357.8,366.216667 357.641667,365.441667 357.325,364.725 C357.008333,364.008333 356.583333,363.383333 356.05,362.85 C355.516667,362.316667 354.891667,361.891667 354.175,361.575 C353.458333,361.258333 352.683333,361.1 351.85,361.1 C352.683333,361.1 353.458333,360.941667 354.175,360.625 C354.891667,360.308333 355.516667,359.875 356.05,359.325 C356.583333,358.775 357.008333,358.141667 357.325,357.425 C357.641667,356.708333 357.8,355.933333 357.8,355.1 L357.8,355.1 L357.8,351.1 C357.8,350 357.591667,348.975 357.175,348.025 C356.758333,347.075 356.191667,346.241667 355.475,345.525 C354.758333,344.808333 353.916667,344.241667 352.95,343.825 C351.983333,343.408333 350.95,343.2 349.85,343.2 L349.85,343.2 L333.95,343.2 C333.116667,343.2 332.341667,343.358333 331.625,343.675 C330.908333,343.991667 330.275,344.416667 329.725,344.95 C329.175,345.483333 328.741667,346.108333 328.425,346.825 C328.108333,347.541667 327.95,348.316667 327.95,349.15 L327.95,349.15 L327.95,371 C327.95,371.833333 328.108333,372.608333 328.425,373.325 C328.741667,374.041667 329.175,374.675 329.725,375.225 C330.275,375.775 330.908333,376.208333 331.625,376.525 C332.341667,376.841667 333.116667,377 333.95,377 L333.95,377 L349.85,377 Z M330.7,360.6 C330.5,360.666667 330.316667,360.316667 330.15,359.55 C330.083333,359.183333 330.033333,358.708333 330,358.125 C329.966667,357.541667 329.941667,356.925 329.925,356.275 C329.908333,355.625 329.9,354.958333 329.9,354.275 C329.9,353.591667 329.916667,352.95 329.95,352.35 C329.983333,351.183333 330.05,350.225 330.15,349.475 C330.25,348.725 330.483333,348.066667 330.85,347.5 C331.216667,346.933333 331.666667,346.475 332.2,346.125 C332.733333,345.775 333.216667,345.583333 333.65,345.55 C334.083333,345.55 334.416667,345.691667 334.65,345.975 C334.883333,346.258333 334.966667,346.55 334.9,346.85 C334.833333,347.15 334.65,347.441667 334.35,347.725 C334.05,348.008333 333.733333,348.433333 333.4,349 C333.1,349.566667 332.816667,350.258333 332.55,351.075 C332.283333,351.891667 332.066667,352.816667 331.9,353.85 C331.733333,354.85 331.625,355.875 331.575,356.925 C331.525,357.975 331.416667,358.833333 331.25,359.5 C331.083333,360.166667 330.9,360.533333 330.7,360.6 Z M345.85,359.1 L339.9,359.1 L339.9,355.1 L345.85,355.1 L345.85,359.1 Z M344.7,357.95 L344.7,356.25 L341.05,356.25 L341.05,357.95 L344.7,357.95 Z M330.65,364.75 C330.283333,364.75 330.066667,364.65 330,364.45 C329.933333,364.25 329.9,364 329.9,363.7 C329.9,363.433333 329.933333,363.208333 330,363.025 C330.066667,362.841667 330.283333,362.75 330.65,362.75 C331.016667,362.75 331.233333,362.841667 331.3,363.025 C331.366667,363.208333 331.4,363.433333 331.4,363.7 C331.4,364 331.366667,364.25 331.3,364.45 C331.233333,364.65 331.016667,364.75 330.65,364.75 Z M345.85,366.8 L339.9,366.8 L339.9,362.8 L345.85,362.8 L345.85,366.8 Z M344.7,365.65 L344.7,363.95 L341.05,363.95 L341.05,365.65 L344.7,365.65 Z M389.45,382.4 C392.383333,382.4 394.483333,381.766667 395.75,380.5 C397.016667,379.233333 397.65,377.116667 397.65,374.15 C397.65,371.216667 397.016667,369.116667 395.75,367.85 L395.75,367.85 L394.45,366.6 C393.983333,365.866667 393.383333,365.266667 392.65,364.8 C392.683333,364.7 392.7,364.5 392.7,364.2 C392.7,362.3 392.366667,360.866667 391.7,359.9 C393.466667,359.233333 394.9,358.133333 396,356.6 C397.1,355.066667 397.65,353.3 397.65,351.3 C397.65,350.033333 397.408333,348.841667 396.925,347.725 C396.441667,346.608333 395.783333,345.633333 394.95,344.8 L394.95,344.8 L394.1,343.95 C393.233333,342.683333 392.125,341.675 390.775,340.925 C389.425,340.175 387.933333,339.8 386.3,339.8 L386.3,339.8 L370.4,339.8 C369.1,339.8 367.883333,340.041667 366.75,340.525 C365.616667,341.008333 364.625,341.675 363.775,342.525 C362.925,343.375 362.258333,344.366667 361.775,345.5 C361.291667,346.633333 361.05,347.85 361.05,349.15 L361.05,349.15 L361.05,371 C361.05,372.633333 361.425,374.125 362.175,375.475 C362.925,376.825 363.916667,377.933333 365.15,378.8 L365.15,378.8 L366.05,379.7 C366.883333,380.533333 367.858333,381.191667 368.975,381.675 C370.091667,382.158333 371.283333,382.4 372.55,382.4 L372.55,382.4 L389.45,382.4 Z M387.3,378.15 L370.4,378.15 C369.4,378.15 368.475,377.966667 367.625,377.6 C366.775,377.233333 366.025,376.725 365.375,376.075 C364.725,375.425 364.216667,374.666667 363.85,373.8 C363.483333,372.933333 363.3,372 363.3,371 L363.3,371 L363.3,349.15 C363.3,348.15 363.483333,347.225 363.85,346.375 C364.216667,345.525 364.725,344.775 365.375,344.125 C366.025,343.475 366.775,342.966667 367.625,342.6 C368.475,342.233333 369.4,342.05 370.4,342.05 L370.4,342.05 L386.3,342.05 C387.3,342.05 388.225,342.233333 389.075,342.6 C389.925,342.966667 390.675,343.475 391.325,344.125 C391.975,344.775 392.483333,345.525 392.85,346.375 C393.216667,347.225 393.4,348.15 393.4,349.15 C393.4,350.15 393.216667,351.075 392.85,351.925 C392.483333,352.775 391.975,353.525 391.325,354.175 C390.675,354.825 389.925,355.333333 389.075,355.7 C388.225,356.066667 387.3,356.25 386.3,356.25 L386.3,356.25 L377.5,356.25 L377.5,357.95 L384.35,357.95 C385.85,357.95 386.908333,358.258333 387.525,358.875 C388.141667,359.491667 388.45,360.55 388.45,362.05 C388.45,364.15 387.783333,365.433333 386.45,365.9 L386.45,365.9 L387.3,365.9 C389.5,365.9 391.066667,366.366667 392,367.3 C392.933333,368.233333 393.4,369.8 393.4,372 C393.4,374.2 392.933333,375.775 392,376.725 C391.066667,377.675 389.5,378.15 387.3,378.15 L387.3,378.15 Z M387.3,377 C389.066667,377 390.333333,376.616667 391.1,375.85 C391.866667,375.083333 392.25,373.8 392.25,372 C392.25,370.233333 391.866667,368.966667 391.1,368.2 C390.333333,367.433333 389.066667,367.05 387.3,367.05 L387.3,367.05 L376.35,367.05 L376.35,365.05 L384.35,365.05 C385.416667,365.05 386.175,364.816667 386.625,364.35 C387.075,363.883333 387.3,363.116667 387.3,362.05 C387.3,360.983333 387.075,360.225 386.625,359.775 C386.175,359.325 385.416667,359.1 384.35,359.1 L384.35,359.1 L376.35,359.1 L376.35,355.1 L386.3,355.1 C387.133333,355.1 387.908333,354.941667 388.625,354.625 C389.341667,354.308333 389.966667,353.883333 390.5,353.35 C391.033333,352.816667 391.458333,352.191667 391.775,351.475 C392.091667,350.758333 392.25,349.983333 392.25,349.15 C392.25,348.316667 392.091667,347.541667 391.775,346.825 C391.458333,346.108333 391.033333,345.483333 390.5,344.95 C389.966667,344.416667 389.341667,343.991667 388.625,343.675 C387.908333,343.358333 387.133333,343.2 386.3,343.2 L386.3,343.2 L370.4,343.2 C369.566667,343.2 368.791667,343.358333 368.075,343.675 C367.358333,343.991667 366.733333,344.416667 366.2,344.95 C365.666667,345.483333 365.241667,346.108333 364.925,346.825 C364.608333,347.541667 364.45,348.316667 364.45,349.15 L364.45,349.15 L364.45,371 C364.45,371.833333 364.608333,372.608333 364.925,373.325 C365.241667,374.041667 365.666667,374.675 366.2,375.225 C366.733333,375.775 367.358333,376.208333 368.075,376.525 C368.791667,376.841667 369.566667,377 370.4,377 L370.4,377 L387.3,377 Z M366.9,360.925 C366.7,361.008333 366.533333,360.65 366.4,359.85 C366.333333,359.45 366.275,358.95 366.225,358.35 C366.175,357.75 366.141667,357.108333 366.125,356.425 C366.108333,355.741667 366.1,355.041667 366.1,354.325 L366.1,354.325 L366.1,352.3 C366.166667,351.033333 366.25,350.008333 366.35,349.225 C366.45,348.441667 366.683333,347.766667 367.05,347.2 C367.416667,346.633333 367.858333,346.158333 368.375,345.775 C368.891667,345.391667 369.366667,345.2 369.8,345.2 C370.266667,345.166667 370.608333,345.3 370.825,345.6 C371.041667,345.9 371.116667,346.2 371.05,346.5 C370.983333,346.833333 370.808333,347.158333 370.525,347.475 C370.241667,347.791667 369.933333,348.233333 369.6,348.8 C369.266667,349.366667 368.975,350.083333 368.725,350.95 C368.475,351.816667 368.266667,352.783333 368.1,353.85 C367.933333,354.916667 367.816667,356.008333 367.75,357.125 C367.683333,358.241667 367.566667,359.133333 367.4,359.8 C367.266667,360.466667 367.1,360.841667 366.9,360.925 Z M366.85,365.3 C366.483333,365.3 366.266667,365.191667 366.2,364.975 C366.133333,364.758333 366.1,364.516667 366.1,364.25 C366.1,363.95 366.133333,363.7 366.2,363.5 C366.266667,363.3 366.483333,363.2 366.85,363.2 C367.216667,363.2 367.433333,363.3 367.5,363.5 C367.566667,363.7 367.6,363.95 367.6,364.25 C367.6,364.516667 367.566667,364.758333 367.5,364.975 C367.433333,365.191667 367.216667,365.3 366.85,365.3 Z M424.8,382.4 C426.066667,382.4 427.258333,382.158333 428.375,381.675 C429.491667,381.191667 430.466667,380.533333 431.3,379.7 C432.133333,378.866667 432.791667,377.891667 433.275,376.775 C433.758333,375.658333 434,374.466667 434,373.2 L434,373.2 L434,357.3 C434,355.2 433.608333,353.233333 432.825,351.4 C432.041667,349.566667 430.95,347.95 429.55,346.55 L429.55,346.55 L428.95,345.95 C427.55,344.083333 425.783333,342.591667 423.65,341.475 C421.516667,340.358333 419.183333,339.8 416.65,339.8 L416.65,339.8 L410.7,339.8 C408.566667,339.8 406.566667,340.2 404.7,341 C402.833333,341.8 401.208333,342.891667 399.825,344.275 C398.441667,345.658333 397.35,347.283333 396.55,349.15 C395.75,351.016667 395.35,353.016667 395.35,355.15 L395.35,355.15 L395.35,371.05 C395.35,372.683333 395.725,374.175 396.475,375.525 C397.225,376.875 398.216667,377.966667 399.45,378.8 L399.45,378.8 L400.35,379.7 C401.183333,380.533333 402.158333,381.191667 403.275,381.675 C404.391667,382.158333 405.583333,382.4 406.85,382.4 C408.716667,382.4 410.408333,381.9 411.925,380.9 C413.441667,379.9 414.566667,378.6 415.3,377 C415.6,377.333333 415.916667,377.641667 416.25,377.925 C416.583333,378.208333 416.933333,378.483333 417.3,378.75 L417.3,378.75 L418.25,379.7 C419.116667,380.566667 420.108333,381.233333 421.225,381.7 C422.341667,382.166667 423.533333,382.4 424.8,382.4 Z M422.65,378.15 C421.65,378.15 420.716667,377.966667 419.85,377.6 C418.983333,377.233333 418.225,376.725 417.575,376.075 C416.925,375.425 416.416667,374.675 416.05,373.825 C415.683333,372.975 415.5,372.05 415.5,371.05 L415.5,371.05 L415.5,366.2 L411.85,366.2 L411.85,371.05 C411.85,372.05 411.666667,372.975 411.3,373.825 C410.933333,374.675 410.425,375.425 409.775,376.075 C409.125,376.725 408.366667,377.233333 407.5,377.6 C406.633333,377.966667 405.7,378.15 404.7,378.15 C403.733333,378.15 402.816667,377.966667 401.95,377.6 C401.083333,377.233333 400.325,376.725 399.675,376.075 C399.025,375.425 398.516667,374.675 398.15,373.825 C397.783333,372.975 397.6,372.05 397.6,371.05 L397.6,371.05 L397.6,355.15 C397.6,353.35 397.941667,351.65 398.625,350.05 C399.308333,348.45 400.241667,347.058333 401.425,345.875 C402.608333,344.691667 404,343.758333 405.6,343.075 C407.2,342.391667 408.9,342.05 410.7,342.05 L410.7,342.05 L416.65,342.05 C418.45,342.05 420.15,342.391667 421.75,343.075 C423.35,343.758333 424.741667,344.691667 425.925,345.875 C427.108333,347.058333 428.041667,348.45 428.725,350.05 C429.408333,351.65 429.75,353.35 429.75,355.15 L429.75,355.15 L429.75,371.05 C429.75,372.05 429.566667,372.975 429.2,373.825 C428.833333,374.675 428.325,375.425 427.675,376.075 C427.025,376.725 426.266667,377.233333 425.4,377.6 C424.533333,377.966667 423.616667,378.15 422.65,378.15 Z M422.65,377 C423.45,377 424.216667,376.841667 424.95,376.525 C425.683333,376.208333 426.316667,375.783333 426.85,375.25 C427.383333,374.716667 427.808333,374.091667 428.125,373.375 C428.441667,372.658333 428.6,371.883333 428.6,371.05 L428.6,371.05 L428.6,355.15 C428.6,353.516667 428.283333,351.966667 427.65,350.5 C427.016667,349.033333 426.166667,347.766667 425.1,346.7 C424.033333,345.633333 422.766667,344.783333 421.3,344.15 C419.833333,343.516667 418.283333,343.2 416.65,343.2 L416.65,343.2 L410.7,343.2 C409.033333,343.2 407.475,343.516667 406.025,344.15 C404.575,344.783333 403.316667,345.633333 402.25,346.7 C401.183333,347.766667 400.333333,349.033333 399.7,350.5 C399.066667,351.966667 398.75,353.516667 398.75,355.15 L398.75,355.15 L398.75,371.05 C398.75,371.883333 398.908333,372.658333 399.225,373.375 C399.541667,374.091667 399.966667,374.716667 400.5,375.25 C401.033333,375.783333 401.666667,376.208333 402.4,376.525 C403.133333,376.841667 403.9,377 404.7,377 C405.533333,377 406.308333,376.841667 407.025,376.525 C407.741667,376.208333 408.375,375.783333 408.925,375.25 C409.475,374.716667 409.908333,374.091667 410.225,373.375 C410.541667,372.658333 410.7,371.883333 410.7,371.05 L410.7,371.05 L410.7,365.05 L416.65,365.05 L416.65,371.05 C416.65,371.883333 416.808333,372.658333 417.125,373.375 C417.441667,374.091667 417.875,374.716667 418.425,375.25 C418.975,375.783333 419.608333,376.208333 420.325,376.525 C421.041667,376.841667 421.816667,377 422.65,377 Z M401.35,360.275 C401.116667,360.491667 400.916667,360.516667 400.75,360.35 C400.583333,360.15 400.466667,359.775 400.4,359.225 C400.333333,358.675 400.3,358.05 400.3,357.35 C400.333333,356.683333 400.375,355.966667 400.425,355.2 C400.475,354.433333 400.583333,353.633333 400.75,352.8 C400.916667,351.966667 401.15,351.15 401.45,350.35 C401.75,349.55 402.2,348.833333 402.8,348.2 C403.366667,347.566667 404.05,347.083333 404.85,346.75 C405.65,346.416667 406.333333,346.2 406.9,346.1 C407.466667,346.033333 407.866667,346.058333 408.1,346.175 C408.333333,346.291667 408.483333,346.433333 408.55,346.6 C408.616667,346.766667 408.6,346.933333 408.5,347.1 C408.4,347.266667 408.166667,347.5 407.8,347.8 C407.466667,348.066667 407.05,348.416667 406.55,348.85 C406.05,349.283333 405.566667,349.733333 405.1,350.2 C404.633333,350.7 404.241667,351.25 403.925,351.85 C403.608333,352.45 403.316667,353.166667 403.05,354 C402.85,354.8 402.675,355.666667 402.525,356.6 C402.375,357.533333 402.2,358.333333 402,359 C401.8,359.633333 401.583333,360.058333 401.35,360.275 Z M416.65,359.1 L410.7,359.1 L410.7,355.15 L416.65,355.15 L416.65,359.1 Z M415.5,357.95 L415.5,356.3 L411.85,356.3 L411.85,357.95 L415.5,357.95 Z M401.05,363.75 C400.516667,363.75 400.25,363.466667 400.25,362.9 C400.25,362.366667 400.516667,362.1 401.05,362.1 C401.616667,362.1 401.9,362.366667 401.9,362.9 C401.9,363.466667 401.616667,363.75 401.05,363.75 Z M461.65,382.4 C462.916667,382.4 464.108333,382.158333 465.225,381.675 C466.341667,381.191667 467.316667,380.533333 468.15,379.7 C468.983333,378.866667 469.641667,377.891667 470.125,376.775 C470.608333,375.658333 470.85,374.466667 470.85,373.2 L470.85,373.2 L470.85,369.2 C470.85,366.9 470.116667,364.916667 468.65,363.25 C469.45,362.416667 470.016667,361.533333 470.35,360.6 C470.683333,359.666667 470.85,358.566667 470.85,357.3 L470.85,357.3 L470.85,353.3 C470.85,351.733333 470.55,350.283333 469.95,348.95 C469.35,347.616667 468.55,346.433333 467.55,345.4 L467.55,345.4 L466.85,344.75 C465.816667,343.25 464.491667,342.05 462.875,341.15 C461.258333,340.25 459.466667,339.8 457.5,339.8 L457.5,339.8 L441.6,339.8 C440.3,339.8 439.075,340.041667 437.925,340.525 C436.775,341.008333 435.775,341.675 434.925,342.525 C434.075,343.375 433.408333,344.366667 432.925,345.5 C432.441667,346.633333 432.2,347.85 432.2,349.15 L432.2,349.15 L432.2,371.05 C432.2,372.683333 432.575,374.166667 433.325,375.5 C434.075,376.833333 435.05,377.916667 436.25,378.75 L436.25,378.75 L437.2,379.7 C438.066667,380.566667 439.058333,381.233333 440.175,381.7 C441.291667,382.166667 442.483333,382.4 443.75,382.4 C445.616667,382.4 447.3,381.9 448.8,380.9 C450.3,379.9 451.416667,378.6 452.15,377 C452.45,377.333333 452.766667,377.641667 453.1,377.925 C453.433333,378.208333 453.783333,378.483333 454.15,378.75 L454.15,378.75 L455.1,379.7 C455.966667,380.566667 456.958333,381.233333 458.075,381.7 C459.191667,382.166667 460.383333,382.4 461.65,382.4 Z M459.5,378.15 C458.5,378.15 457.566667,377.966667 456.7,377.6 C455.833333,377.233333 455.075,376.725 454.425,376.075 C453.775,375.425 453.266667,374.675 452.9,373.825 C452.533333,372.975 452.35,372.05 452.35,371.05 L452.35,371.05 L452.35,366.2 L448.7,366.2 L448.7,371.05 C448.7,372.05 448.516667,372.975 448.15,373.825 C447.783333,374.675 447.275,375.425 446.625,376.075 C445.975,376.725 445.225,377.233333 444.375,377.6 C443.525,377.966667 442.6,378.15 441.6,378.15 C440.6,378.15 439.666667,377.966667 438.8,377.6 C437.933333,377.233333 437.175,376.725 436.525,376.075 C435.875,375.425 435.366667,374.675 435,373.825 C434.633333,372.975 434.45,372.05 434.45,371.05 L434.45,371.05 L434.45,349.15 C434.45,348.15 434.633333,347.225 435,346.375 C435.366667,345.525 435.875,344.775 436.525,344.125 C437.175,343.475 437.933333,342.966667 438.8,342.6 C439.666667,342.233333 440.6,342.05 441.6,342.05 L441.6,342.05 L457.5,342.05 C458.766667,342.05 459.95,342.283333 461.05,342.75 C462.15,343.216667 463.116667,343.866667 463.95,344.7 C464.783333,345.533333 465.433333,346.5 465.9,347.6 C466.366667,348.7 466.6,349.883333 466.6,351.15 L466.6,351.15 L466.6,355.15 C466.6,356.416667 466.3,357.566667 465.7,358.6 C465.1,359.633333 464.3,360.466667 463.3,361.1 C464.3,361.766667 465.1,362.608333 465.7,363.625 C466.3,364.641667 466.6,365.783333 466.6,367.05 L466.6,367.05 L466.6,371.05 C466.6,372.05 466.416667,372.975 466.05,373.825 C465.683333,374.675 465.175,375.425 464.525,376.075 C463.875,376.725 463.125,377.233333 462.275,377.6 C461.425,377.966667 460.5,378.15 459.5,378.15 Z M459.5,377 C460.333333,377 461.108333,376.841667 461.825,376.525 C462.541667,376.208333 463.166667,375.783333 463.7,375.25 C464.233333,374.716667 464.658333,374.091667 464.975,373.375 C465.291667,372.658333 465.45,371.883333 465.45,371.05 L465.45,371.05 L465.45,367.05 C465.45,366.216667 465.291667,365.441667 464.975,364.725 C464.658333,364.008333 464.233333,363.383333 463.7,362.85 C463.166667,362.316667 462.541667,361.891667 461.825,361.575 C461.108333,361.258333 460.333333,361.1 459.5,361.1 C460.333333,361.1 461.108333,360.941667 461.825,360.625 C462.541667,360.308333 463.166667,359.883333 463.7,359.35 C464.233333,358.816667 464.658333,358.191667 464.975,357.475 C465.291667,356.758333 465.45,355.983333 465.45,355.15 L465.45,355.15 L465.45,351.15 C465.45,350.05 465.241667,349.016667 464.825,348.05 C464.408333,347.083333 463.841667,346.241667 463.125,345.525 C462.408333,344.808333 461.566667,344.241667 460.6,343.825 C459.633333,343.408333 458.6,343.2 457.5,343.2 L457.5,343.2 L441.6,343.2 C440.766667,343.2 439.991667,343.358333 439.275,343.675 C438.558333,343.991667 437.925,344.416667 437.375,344.95 C436.825,345.483333 436.391667,346.108333 436.075,346.825 C435.758333,347.541667 435.6,348.316667 435.6,349.15 L435.6,349.15 L435.6,371.05 C435.6,371.883333 435.758333,372.658333 436.075,373.375 C436.391667,374.091667 436.825,374.716667 437.375,375.25 C437.925,375.783333 438.558333,376.208333 439.275,376.525 C439.991667,376.841667 440.766667,377 441.6,377 C442.433333,377 443.208333,376.841667 443.925,376.525 C444.641667,376.208333 445.266667,375.783333 445.8,375.25 C446.333333,374.716667 446.758333,374.091667 447.075,373.375 C447.391667,372.658333 447.55,371.883333 447.55,371.05 L447.55,371.05 L447.55,365.05 L453.5,365.05 L453.5,371.05 C453.5,371.883333 453.658333,372.658333 453.975,373.375 C454.291667,374.091667 454.725,374.716667 455.275,375.25 C455.825,375.783333 456.458333,376.208333 457.175,376.525 C457.891667,376.841667 458.666667,377 459.5,377 Z M438.35,360.6 C438.15,360.666667 437.966667,360.316667 437.8,359.55 C437.733333,359.183333 437.683333,358.708333 437.65,358.125 C437.616667,357.541667 437.591667,356.925 437.575,356.275 C437.558333,355.625 437.55,354.958333 437.55,354.275 L437.55,354.275 L437.55,352.35 C437.616667,351.183333 437.7,350.225 437.8,349.475 C437.9,348.725 438.133333,348.066667 438.5,347.5 C438.866667,346.933333 439.316667,346.483333 439.85,346.15 C440.383333,345.816667 440.85,345.633333 441.25,345.6 C441.716667,345.566667 442.066667,345.7 442.3,346 C442.533333,346.3 442.616667,346.583333 442.55,346.85 C442.483333,347.15 442.3,347.45 442,347.75 C441.7,348.05 441.383333,348.483333 441.05,349.05 C440.75,349.616667 440.466667,350.308333 440.2,351.125 C439.933333,351.941667 439.716667,352.85 439.55,353.85 C439.383333,354.883333 439.275,355.916667 439.225,356.95 C439.175,357.983333 439.066667,358.833333 438.9,359.5 C438.733333,360.166667 438.55,360.533333 438.35,360.6 Z M453.5,359.1 L447.55,359.1 L447.55,355.15 L453.5,355.15 L453.5,359.1 Z M452.35,357.95 L452.35,356.3 L448.7,356.3 L448.7,357.95 L452.35,357.95 Z M438.3,364.75 C437.933333,364.75 437.716667,364.65 437.65,364.45 C437.583333,364.25 437.55,364.016667 437.55,363.75 C437.55,363.483333 437.583333,363.25 437.65,363.05 C437.716667,362.85 437.933333,362.75 438.3,362.75 C438.666667,362.75 438.883333,362.85 438.95,363.05 C439.016667,363.25 439.05,363.483333 439.05,363.75 C439.05,364.016667 439.016667,364.25 438.95,364.45 C438.883333,364.65 438.666667,364.75 438.3,364.75 Z" id="green"></path>
        </g>
    </g>
</svg>