<?xml version="1.0" encoding="UTF-8"?>
<svg width="334px" height="44px" viewBox="0 0 334 44" version="1.1" xmlns="http://www.w3.org/2000/svg" xmlns:xlink="http://www.w3.org/1999/xlink">
    <title>pink</title>
    <g id="Page-1" stroke="none" stroke-width="1" fill="none" fill-rule="evenodd">
        <g id="Letter" transform="translate(-139.000000, -391.000000)" fill="#FF65AC" fill-rule="nonzero">
            <path d="M163.4,434.4 C165.5,434.4 167.466667,434 169.3,433.2 C171.133333,432.4 172.741667,431.316667 174.125,429.95 C175.508333,428.583333 176.6,426.975 177.4,425.125 C178.2,423.275 178.6,421.3 178.6,419.2 L178.6,403.3 C178.6,402.033333 178.358333,400.841667 177.875,399.725 C177.391667,398.608333 176.733333,397.633333 175.9,396.8 L175,395.9 C174.133333,394.666667 173.025,393.675 171.675,392.925 C170.325,392.175 168.833333,391.8 167.2,391.8 C165.9,391.8 164.683333,392.041667 163.55,392.525 C162.416667,393.008333 161.425,393.675 160.575,394.525 C159.725,395.375 159.058333,396.366667 158.575,397.5 C158.091667,398.633333 157.85,399.85 157.85,401.15 L157.85,408.6 L157,407.75 C156.133333,406.55 155.033333,405.583333 153.7,404.85 C152.366667,404.116667 150.9,403.75 149.3,403.75 C148,403.75 146.783333,403.991667 145.65,404.475 C144.516667,404.958333 143.525,405.625 142.675,406.475 C141.825,407.325 141.158333,408.316667 140.675,409.45 C140.191667,410.583333 139.95,411.8 139.95,413.1 L139.95,417.05 C139.95,419.583333 140.5,421.916667 141.6,424.05 C142.7,426.183333 144.2,427.95 146.1,429.35 L146.7,429.95 C148.1,431.35 149.716667,432.441667 151.55,433.225 C153.383333,434.008333 155.35,434.4 157.45,434.4 L163.4,434.4 Z M155.3,430.15 C153.5,430.15 151.8,429.808333 150.2,429.125 C148.6,428.441667 147.208333,427.508333 146.025,426.325 C144.841667,425.141667 143.908333,423.75 143.225,422.15 C142.541667,420.55 142.2,418.85 142.2,417.05 L142.2,413.1 C142.2,412.1 142.383333,411.175 142.75,410.325 C143.116667,409.475 143.625,408.725 144.275,408.075 C144.925,407.425 145.675,406.916667 146.525,406.55 C147.375,406.183333 148.3,406 149.3,406 C150.3,406 151.233333,406.183333 152.1,406.55 C152.966667,406.916667 153.725,407.425 154.375,408.075 C155.025,408.725 155.533333,409.475 155.9,410.325 C156.266667,411.175 156.45,412.1 156.45,413.1 L156.45,415.9 L160.1,415.9 L160.1,401.15 C160.1,400.15 160.283333,399.225 160.65,398.375 C161.016667,397.525 161.525,396.775 162.175,396.125 C162.825,395.475 163.575,394.966667 164.425,394.6 C165.275,394.233333 166.2,394.05 167.2,394.05 C168.2,394.05 169.133333,394.233333 170,394.6 C170.866667,394.966667 171.625,395.475 172.275,396.125 C172.925,396.775 173.433333,397.525 173.8,398.375 C174.166667,399.225 174.35,400.15 174.35,401.15 L174.35,417.05 C174.35,418.85 174.008333,420.55 173.325,422.15 C172.641667,423.75 171.7,425.141667 170.5,426.325 C169.3,427.508333 167.908333,428.441667 166.325,429.125 C164.741667,429.808333 163.05,430.15 161.25,430.15 L155.3,430.15 Z M161.25,429 C162.883333,429 164.425,428.683333 165.875,428.05 C167.325,427.416667 168.591667,426.566667 169.675,425.5 C170.758333,424.433333 171.616667,423.175 172.25,421.725 C172.883333,420.275 173.2,418.716667 173.2,417.05 L173.2,401.15 C173.2,400.316667 173.041667,399.541667 172.725,398.825 C172.408333,398.108333 171.975,397.483333 171.425,396.95 C170.875,396.416667 170.241667,395.991667 169.525,395.675 C168.808333,395.358333 168.033333,395.2 167.2,395.2 C166.366667,395.2 165.591667,395.358333 164.875,395.675 C164.158333,395.991667 163.533333,396.416667 163,396.95 C162.466667,397.483333 162.041667,398.108333 161.725,398.825 C161.408333,399.541667 161.25,400.316667 161.25,401.15 L161.25,417.05 L155.3,417.05 L155.3,413.1 C155.3,412.266667 155.141667,411.491667 154.825,410.775 C154.508333,410.058333 154.075,409.433333 153.525,408.9 C152.975,408.366667 152.341667,407.941667 151.625,407.625 C150.908333,407.308333 150.133333,407.15 149.3,407.15 C148.466667,407.15 147.691667,407.308333 146.975,407.625 C146.258333,407.941667 145.633333,408.366667 145.1,408.9 C144.566667,409.433333 144.141667,410.058333 143.825,410.775 C143.508333,411.491667 143.35,412.266667 143.35,413.1 L143.35,417.05 C143.35,418.716667 143.666667,420.275 144.3,421.725 C144.933333,423.175 145.783333,424.433333 146.85,425.5 C147.916667,426.566667 149.175,427.416667 150.625,428.05 C152.075,428.683333 153.633333,429 155.3,429 L161.25,429 Z M163.55,402.7 C163.15,403.066667 162.9,402.95 162.8,402.35 C162.733333,402.016667 162.716667,401.583333 162.75,401.05 C162.783333,400.516667 162.933333,400 163.2,399.5 C163.466667,399 163.833333,398.575 164.3,398.225 C164.766667,397.875 165.183333,397.616667 165.55,397.45 C165.916667,397.283333 166.225,397.216667 166.475,397.25 C166.725,397.283333 166.933333,397.366667 167.1,397.5 C167.266667,397.633333 167.383333,397.808333 167.45,398.025 C167.516667,398.241667 167.45,398.483333 167.25,398.75 C167.05,399.016667 166.741667,399.3 166.325,399.6 C165.908333,399.9 165.516667,400.233333 165.15,400.6 C164.783333,400.966667 164.466667,401.35 164.2,401.75 C163.933333,402.15 163.716667,402.466667 163.55,402.7 Z M163.25,405.75 C162.75,405.75 162.5,405.5 162.5,405 C162.5,404.5 162.75,404.25 163.25,404.25 C163.75,404.25 164,404.5 164,405 C164,405.5 163.75,405.75 163.25,405.75 Z M145.8,417.55 C145.6,417.583333 145.416667,417.383333 145.25,416.95 C145.116667,416.516667 145.033333,415.883333 145,415.05 C144.966667,414.216667 144.966667,413.466667 145,412.8 C145.066667,412.1 145.15,411.533333 145.25,411.1 C145.35,410.666667 145.583333,410.283333 145.95,409.95 C146.316667,409.65 146.758333,409.4 147.275,409.2 C147.791667,409 148.283333,408.883333 148.75,408.85 C149.183333,408.85 149.516667,408.941667 149.75,409.125 C149.983333,409.308333 150.066667,409.483333 150,409.65 C149.933333,409.816667 149.75,409.983333 149.45,410.15 C149.15,410.316667 148.833333,410.55 148.5,410.85 C147.8,411.55 147.3,412.483333 147,413.65 C146.833333,414.216667 146.725,414.808333 146.675,415.425 C146.625,416.041667 146.516667,416.533333 146.35,416.9 C146.183333,417.3 146,417.516667 145.8,417.55 Z M145.75,419.95 C145.516667,419.95 145.333333,419.916667 145.2,419.85 C145.066667,419.783333 145,419.616667 145,419.35 C145,419.083333 145.066667,418.925 145.2,418.875 C145.333333,418.825 145.516667,418.8 145.75,418.8 C145.983333,418.8 146.166667,418.825 146.3,418.875 C146.433333,418.925 146.5,419.083333 146.5,419.35 C146.5,419.616667 146.433333,419.783333 146.3,419.85 C146.166667,419.916667 145.983333,419.95 145.75,419.95 Z M204.9,434.4 C207.833333,434.4 209.933333,433.766667 211.2,432.5 C212.466667,431.233333 213.1,429.116667 213.1,426.15 C213.1,423.216667 212.466667,421.116667 211.2,419.85 L209.9,418.6 C209.433333,417.866667 208.833333,417.266667 208.1,416.8 C208.133333,416.7 208.15,416.5 208.15,416.2 C208.15,414.3 207.816667,412.866667 207.15,411.9 C208.916667,411.233333 210.35,410.133333 211.45,408.6 C212.55,407.066667 213.1,405.3 213.1,403.3 C213.1,402.033333 212.858333,400.841667 212.375,399.725 C211.891667,398.608333 211.233333,397.633333 210.4,396.8 L209.55,395.95 C208.683333,394.683333 207.575,393.675 206.225,392.925 C204.875,392.175 203.383333,391.8 201.75,391.8 L185.85,391.8 C184.55,391.8 183.333333,392.041667 182.2,392.525 C181.066667,393.008333 180.075,393.675 179.225,394.525 C178.375,395.375 177.708333,396.366667 177.225,397.5 C176.741667,398.633333 176.5,399.85 176.5,401.15 L176.5,423 C176.5,424.633333 176.875,426.125 177.625,427.475 C178.375,428.825 179.366667,429.933333 180.6,430.8 L181.5,431.7 C182.333333,432.533333 183.308333,433.191667 184.425,433.675 C185.541667,434.158333 186.733333,434.4 188,434.4 L204.9,434.4 Z M185.85,430.15 C184.85,430.15 183.925,429.966667 183.075,429.6 C182.225,429.233333 181.475,428.725 180.825,428.075 C180.175,427.425 179.666667,426.666667 179.3,425.8 C178.933333,424.933333 178.75,424 178.75,423 L178.75,401.15 C178.75,400.15 178.933333,399.225 179.3,398.375 C179.666667,397.525 180.175,396.775 180.825,396.125 C181.475,395.475 182.225,394.966667 183.075,394.6 C183.925,394.233333 184.85,394.05 185.85,394.05 L201.75,394.05 C202.75,394.05 203.675,394.233333 204.525,394.6 C205.375,394.966667 206.125,395.475 206.775,396.125 C207.425,396.775 207.933333,397.525 208.3,398.375 C208.666667,399.225 208.85,400.15 208.85,401.15 C208.85,402.15 208.666667,403.075 208.3,403.925 C207.933333,404.775 207.425,405.525 206.775,406.175 C206.125,406.825 205.375,407.333333 204.525,407.7 C203.675,408.066667 202.75,408.25 201.75,408.25 L192.95,408.25 L192.95,409.95 L199.8,409.95 C201.3,409.95 202.358333,410.258333 202.975,410.875 C203.591667,411.491667 203.9,412.55 203.9,414.05 C203.9,416.15 203.233333,417.433333 201.9,417.9 L202.75,417.9 C204.95,417.9 206.516667,418.366667 207.45,419.3 C208.383333,420.233333 208.85,421.8 208.85,424 C208.85,426.2 208.383333,427.775 207.45,428.725 C206.516667,429.675 204.95,430.15 202.75,430.15 L185.85,430.15 Z M202.75,429 C204.516667,429 205.783333,428.616667 206.55,427.85 C207.316667,427.083333 207.7,425.8 207.7,424 C207.7,422.233333 207.316667,420.966667 206.55,420.2 C205.783333,419.433333 204.516667,419.05 202.75,419.05 L191.8,419.05 L191.8,417.05 L199.8,417.05 C200.866667,417.05 201.625,416.816667 202.075,416.35 C202.525,415.883333 202.75,415.116667 202.75,414.05 C202.75,412.983333 202.525,412.225 202.075,411.775 C201.625,411.325 200.866667,411.1 199.8,411.1 L191.8,411.1 L191.8,407.1 L201.75,407.1 C202.583333,407.1 203.358333,406.941667 204.075,406.625 C204.791667,406.308333 205.416667,405.883333 205.95,405.35 C206.483333,404.816667 206.908333,404.191667 207.225,403.475 C207.541667,402.758333 207.7,401.983333 207.7,401.15 C207.7,400.316667 207.541667,399.541667 207.225,398.825 C206.908333,398.108333 206.483333,397.483333 205.95,396.95 C205.416667,396.416667 204.791667,395.991667 204.075,395.675 C203.358333,395.358333 202.583333,395.2 201.75,395.2 L185.85,395.2 C185.016667,395.2 184.241667,395.358333 183.525,395.675 C182.808333,395.991667 182.183333,396.416667 181.65,396.95 C181.116667,397.483333 180.691667,398.108333 180.375,398.825 C180.058333,399.541667 179.9,400.316667 179.9,401.15 L179.9,423 C179.9,423.833333 180.058333,424.608333 180.375,425.325 C180.691667,426.041667 181.116667,426.675 181.65,427.225 C182.183333,427.775 182.808333,428.208333 183.525,428.525 C184.241667,428.841667 185.016667,429 185.85,429 L202.75,429 Z M182.35,412.925 C182.15,413.008333 181.983333,412.65 181.85,411.85 C181.783333,411.45 181.725,410.95 181.675,410.35 C181.625,409.75 181.591667,409.108333 181.575,408.425 C181.558333,407.741667 181.55,407.041667 181.55,406.325 L181.55,404.3 C181.616667,403.033333 181.7,402.008333 181.8,401.225 C181.9,400.441667 182.133333,399.766667 182.5,399.2 C182.866667,398.633333 183.308333,398.158333 183.825,397.775 C184.341667,397.391667 184.816667,397.2 185.25,397.2 C185.716667,397.166667 186.058333,397.3 186.275,397.6 C186.491667,397.9 186.566667,398.2 186.5,398.5 C186.433333,398.833333 186.258333,399.158333 185.975,399.475 C185.691667,399.791667 185.383333,400.233333 185.05,400.8 C184.716667,401.366667 184.425,402.083333 184.175,402.95 C183.925,403.816667 183.716667,404.783333 183.55,405.85 C183.383333,406.916667 183.266667,408.008333 183.2,409.125 C183.133333,410.241667 183.016667,411.133333 182.85,411.8 C182.716667,412.466667 182.55,412.841667 182.35,412.925 Z M182.3,417.3 C181.933333,417.3 181.716667,417.191667 181.65,416.975 C181.583333,416.758333 181.55,416.516667 181.55,416.25 C181.55,415.95 181.583333,415.7 181.65,415.5 C181.716667,415.3 181.933333,415.2 182.3,415.2 C182.666667,415.2 182.883333,415.3 182.95,415.5 C183.016667,415.7 183.05,415.95 183.05,416.25 C183.05,416.516667 183.016667,416.758333 182.95,416.975 C182.883333,417.191667 182.666667,417.3 182.3,417.3 Z M236.3,434.4 C237.566667,434.4 238.766667,434.158333 239.9,433.675 C241.033333,433.191667 242.016667,432.533333 242.85,431.7 C243.683333,430.866667 244.341667,429.883333 244.825,428.75 C245.308333,427.616667 245.55,426.416667 245.55,425.15 C245.55,423.883333 245.308333,422.691667 244.825,421.575 C244.341667,420.458333 243.683333,419.483333 242.85,418.65 L241.95,417.75 C241.083333,416.516667 239.975,415.525 238.625,414.775 C237.275,414.025 235.783333,413.65 234.15,413.65 L231.65,413.65 L231.65,403.3 C231.65,402.033333 231.408333,400.841667 230.925,399.725 C230.441667,398.608333 229.783333,397.633333 228.95,396.8 L228.05,395.9 C227.183333,394.666667 226.075,393.675 224.725,392.925 C223.375,392.175 221.883333,391.8 220.25,391.8 C218.95,391.8 217.733333,392.041667 216.6,392.525 C215.466667,393.008333 214.475,393.675 213.625,394.525 C212.775,395.375 212.108333,396.366667 211.625,397.5 C211.141667,398.633333 210.9,399.85 210.9,401.15 L210.9,423 C210.9,424.633333 211.266667,426.116667 212,427.45 C212.733333,428.783333 213.716667,429.883333 214.95,430.75 L215.9,431.7 C216.733333,432.533333 217.708333,433.191667 218.825,433.675 C219.941667,434.158333 221.133333,434.4 222.4,434.4 L236.3,434.4 Z M220.25,430.15 C219.283333,430.15 218.366667,429.966667 217.5,429.6 C216.633333,429.233333 215.875,428.725 215.225,428.075 C214.575,427.425 214.066667,426.666667 213.7,425.8 C213.333333,424.933333 213.15,424 213.15,423 L213.15,401.15 C213.15,400.15 213.333333,399.225 213.7,398.375 C214.066667,397.525 214.575,396.775 215.225,396.125 C215.875,395.475 216.633333,394.966667 217.5,394.6 C218.366667,394.233333 219.283333,394.05 220.25,394.05 C221.25,394.05 222.183333,394.233333 223.05,394.6 C223.916667,394.966667 224.675,395.475 225.325,396.125 C225.975,396.775 226.483333,397.525 226.85,398.375 C227.216667,399.225 227.4,400.15 227.4,401.15 L227.4,415.9 L234.15,415.9 C235.15,415.9 236.083333,416.083333 236.95,416.45 C237.816667,416.816667 238.575,417.325 239.225,417.975 C239.875,418.625 240.383333,419.375 240.75,420.225 C241.116667,421.075 241.3,422 241.3,423 C241.3,424 241.116667,424.933333 240.75,425.8 C240.383333,426.666667 239.875,427.425 239.225,428.075 C238.575,428.725 237.816667,429.233333 236.95,429.6 C236.083333,429.966667 235.15,430.15 234.15,430.15 L220.25,430.15 Z M234.15,429 C234.983333,429 235.758333,428.841667 236.475,428.525 C237.191667,428.208333 237.825,427.775 238.375,427.225 C238.925,426.675 239.358333,426.041667 239.675,425.325 C239.991667,424.608333 240.15,423.833333 240.15,423 C240.15,422.166667 239.991667,421.391667 239.675,420.675 C239.358333,419.958333 238.925,419.333333 238.375,418.8 C237.825,418.266667 237.191667,417.841667 236.475,417.525 C235.758333,417.208333 234.983333,417.05 234.15,417.05 L226.25,417.05 L226.25,401.15 C226.25,400.316667 226.091667,399.541667 225.775,398.825 C225.458333,398.108333 225.025,397.483333 224.475,396.95 C223.925,396.416667 223.291667,395.991667 222.575,395.675 C221.858333,395.358333 221.083333,395.2 220.25,395.2 C219.45,395.2 218.683333,395.358333 217.95,395.675 C217.216667,395.991667 216.583333,396.416667 216.05,396.95 C215.516667,397.483333 215.091667,398.108333 214.775,398.825 C214.458333,399.541667 214.3,400.316667 214.3,401.15 L214.3,423 C214.3,423.833333 214.458333,424.608333 214.775,425.325 C215.091667,426.041667 215.516667,426.675 216.05,427.225 C216.583333,427.775 217.216667,428.208333 217.95,428.525 C218.683333,428.841667 219.45,429 220.25,429 L234.15,429 Z M216.75,408.725 C216.55,408.775 216.366667,408.516667 216.2,407.95 C216.133333,407.65 216.083333,407.283333 216.05,406.85 C216.016667,406.416667 215.991667,405.958333 215.975,405.475 C215.958333,404.991667 215.95,404.491667 215.95,403.975 L215.95,402.55 C216.016667,401.683333 216.1,400.958333 216.2,400.375 C216.3,399.791667 216.533333,399.3 216.9,398.9 C217.266667,398.466667 217.716667,398.125 218.25,397.875 C218.783333,397.625 219.25,397.5 219.65,397.5 C220.116667,397.466667 220.466667,397.55 220.7,397.75 C220.933333,397.95 221.016667,398.183333 220.95,398.45 C220.883333,398.65 220.7,398.858333 220.4,399.075 C220.1,399.291667 219.783333,399.616667 219.45,400.05 C219.15,400.45 218.866667,400.966667 218.6,401.6 C218.333333,402.233333 218.116667,402.933333 217.95,403.7 C217.783333,404.466667 217.675,405.241667 217.625,406.025 C217.575,406.808333 217.466667,407.433333 217.3,407.9 C217.133333,408.4 216.95,408.675 216.75,408.725 Z M216.7,411.85 C216.2,411.85 215.95,411.6 215.95,411.1 C215.95,410.6 216.2,410.35 216.7,410.35 C217.2,410.35 217.45,410.6 217.45,411.1 C217.45,411.6 217.2,411.85 216.7,411.85 Z M268.9,434.4 C270.166667,434.4 271.366667,434.158333 272.5,433.675 C273.633333,433.191667 274.616667,432.533333 275.45,431.7 C276.283333,430.866667 276.941667,429.883333 277.425,428.75 C277.908333,427.616667 278.15,426.416667 278.15,425.15 C278.15,423.883333 277.908333,422.691667 277.425,421.575 C276.941667,420.458333 276.283333,419.483333 275.45,418.65 L274.55,417.75 C273.683333,416.516667 272.575,415.525 271.225,414.775 C269.875,414.025 268.383333,413.65 266.75,413.65 L264.25,413.65 L264.25,403.3 C264.25,402.033333 264.008333,400.841667 263.525,399.725 C263.041667,398.608333 262.383333,397.633333 261.55,396.8 L260.65,395.9 C259.783333,394.666667 258.675,393.675 257.325,392.925 C255.975,392.175 254.483333,391.8 252.85,391.8 C251.55,391.8 250.333333,392.041667 249.2,392.525 C248.066667,393.008333 247.075,393.675 246.225,394.525 C245.375,395.375 244.708333,396.366667 244.225,397.5 C243.741667,398.633333 243.5,399.85 243.5,401.15 L243.5,423 C243.5,424.633333 243.866667,426.116667 244.6,427.45 C245.333333,428.783333 246.316667,429.883333 247.55,430.75 L248.5,431.7 C249.333333,432.533333 250.308333,433.191667 251.425,433.675 C252.541667,434.158333 253.733333,434.4 255,434.4 L268.9,434.4 Z M252.85,430.15 C251.883333,430.15 250.966667,429.966667 250.1,429.6 C249.233333,429.233333 248.475,428.725 247.825,428.075 C247.175,427.425 246.666667,426.666667 246.3,425.8 C245.933333,424.933333 245.75,424 245.75,423 L245.75,401.15 C245.75,400.15 245.933333,399.225 246.3,398.375 C246.666667,397.525 247.175,396.775 247.825,396.125 C248.475,395.475 249.233333,394.966667 250.1,394.6 C250.966667,394.233333 251.883333,394.05 252.85,394.05 C253.85,394.05 254.783333,394.233333 255.65,394.6 C256.516667,394.966667 257.275,395.475 257.925,396.125 C258.575,396.775 259.083333,397.525 259.45,398.375 C259.816667,399.225 260,400.15 260,401.15 L260,415.9 L266.75,415.9 C267.75,415.9 268.683333,416.083333 269.55,416.45 C270.416667,416.816667 271.175,417.325 271.825,417.975 C272.475,418.625 272.983333,419.375 273.35,420.225 C273.716667,421.075 273.9,422 273.9,423 C273.9,424 273.716667,424.933333 273.35,425.8 C272.983333,426.666667 272.475,427.425 271.825,428.075 C271.175,428.725 270.416667,429.233333 269.55,429.6 C268.683333,429.966667 267.75,430.15 266.75,430.15 L252.85,430.15 Z M266.75,429 C267.583333,429 268.358333,428.841667 269.075,428.525 C269.791667,428.208333 270.425,427.775 270.975,427.225 C271.525,426.675 271.958333,426.041667 272.275,425.325 C272.591667,424.608333 272.75,423.833333 272.75,423 C272.75,422.166667 272.591667,421.391667 272.275,420.675 C271.958333,419.958333 271.525,419.333333 270.975,418.8 C270.425,418.266667 269.791667,417.841667 269.075,417.525 C268.358333,417.208333 267.583333,417.05 266.75,417.05 L258.85,417.05 L258.85,401.15 C258.85,400.316667 258.691667,399.541667 258.375,398.825 C258.058333,398.108333 257.625,397.483333 257.075,396.95 C256.525,396.416667 255.891667,395.991667 255.175,395.675 C254.458333,395.358333 253.683333,395.2 252.85,395.2 C252.05,395.2 251.283333,395.358333 250.55,395.675 C249.816667,395.991667 249.183333,396.416667 248.65,396.95 C248.116667,397.483333 247.691667,398.108333 247.375,398.825 C247.058333,399.541667 246.9,400.316667 246.9,401.15 L246.9,423 C246.9,423.833333 247.058333,424.608333 247.375,425.325 C247.691667,426.041667 248.116667,426.675 248.65,427.225 C249.183333,427.775 249.816667,428.208333 250.55,428.525 C251.283333,428.841667 252.05,429 252.85,429 L266.75,429 Z M249.35,408.725 C249.15,408.775 248.966667,408.516667 248.8,407.95 C248.733333,407.65 248.683333,407.283333 248.65,406.85 C248.616667,406.416667 248.591667,405.958333 248.575,405.475 C248.558333,404.991667 248.55,404.491667 248.55,403.975 L248.55,402.55 C248.616667,401.683333 248.7,400.958333 248.8,400.375 C248.9,399.791667 249.133333,399.3 249.5,398.9 C249.866667,398.466667 250.316667,398.125 250.85,397.875 C251.383333,397.625 251.85,397.5 252.25,397.5 C252.716667,397.466667 253.066667,397.55 253.3,397.75 C253.533333,397.95 253.616667,398.183333 253.55,398.45 C253.483333,398.65 253.3,398.858333 253,399.075 C252.7,399.291667 252.383333,399.616667 252.05,400.05 C251.75,400.45 251.466667,400.966667 251.2,401.6 C250.933333,402.233333 250.716667,402.933333 250.55,403.7 C250.383333,404.466667 250.275,405.241667 250.225,406.025 C250.175,406.808333 250.066667,407.433333 249.9,407.9 C249.733333,408.4 249.55,408.675 249.35,408.725 Z M249.3,411.85 C248.8,411.85 248.55,411.6 248.55,411.1 C248.55,410.6 248.8,410.35 249.3,410.35 C249.8,410.35 250.05,410.6 250.05,411.1 C250.05,411.6 249.8,411.85 249.3,411.85 Z M291.7,434.4 C292.966667,434.4 294.158333,434.158333 295.275,433.675 C296.391667,433.191667 297.366667,432.533333 298.2,431.7 C299.033333,430.866667 299.691667,429.891667 300.175,428.775 C300.658333,427.658333 300.9,426.466667 300.9,425.2 L300.9,422.3 C302.2,422.066667 303.391667,421.616667 304.475,420.95 C305.558333,420.283333 306.5,419.458333 307.3,418.475 C308.1,417.491667 308.725,416.391667 309.175,415.175 C309.625,413.958333 309.85,412.666667 309.85,411.3 L309.85,403.35 C309.85,402.083333 309.608333,400.891667 309.125,399.775 C308.641667,398.658333 307.983333,397.683333 307.15,396.85 L306.3,396.05 C305.466667,394.783333 304.366667,393.766667 303,393 C301.633333,392.233333 300.133333,391.85 298.5,391.85 C296.533333,391.85 294.775,392.383333 293.225,393.45 C291.675,394.516667 290.55,395.9 289.85,397.6 L289.25,396.85 L288.35,395.95 C287.483333,394.716667 286.383333,393.725 285.05,392.975 C283.716667,392.225 282.233333,391.85 280.6,391.85 C279.3,391.85 278.083333,392.091667 276.95,392.575 C275.816667,393.058333 274.825,393.725 273.975,394.575 C273.125,395.425 272.458333,396.416667 271.975,397.55 C271.491667,398.683333 271.25,399.9 271.25,401.2 L271.25,409.15 C271.25,411.183333 271.7,413.033333 272.6,414.7 C273.5,416.366667 274.716667,417.716667 276.25,418.75 L276.85,419.3 C277.783333,420.3 278.9,421.066667 280.2,421.6 L280.2,423.05 C280.2,424.716667 280.575,426.225 281.325,427.575 C282.075,428.925 283.083333,430.016667 284.35,430.85 L285.2,431.7 C286.033333,432.533333 287.008333,433.191667 288.125,433.675 C289.241667,434.158333 290.433333,434.4 291.7,434.4 Z M289.55,430.15 C288.55,430.15 287.625,429.966667 286.775,429.6 C285.925,429.233333 285.175,428.725 284.525,428.075 C283.875,427.425 283.366667,426.675 283,425.825 C282.633333,424.975 282.45,424.05 282.45,423.05 L282.45,418.25 C281.183333,418.25 280.008333,418.008333 278.925,417.525 C277.841667,417.041667 276.9,416.383333 276.1,415.55 C275.3,414.716667 274.666667,413.758333 274.2,412.675 C273.733333,411.591667 273.5,410.416667 273.5,409.15 L273.5,401.2 C273.5,400.2 273.683333,399.275 274.05,398.425 C274.416667,397.575 274.925,396.825 275.575,396.175 C276.225,395.525 276.975,395.016667 277.825,394.65 C278.675,394.283333 279.6,394.1 280.6,394.1 C281.6,394.1 282.525,394.283333 283.375,394.65 C284.225,395.016667 284.975,395.525 285.625,396.175 C286.275,396.825 286.783333,397.575 287.15,398.425 C287.516667,399.275 287.7,400.2 287.7,401.2 L287.7,409.95 L291.4,409.95 L291.4,401.2 C291.4,400.2 291.583333,399.275 291.95,398.425 C292.316667,397.575 292.825,396.825 293.475,396.175 C294.125,395.525 294.875,395.016667 295.725,394.65 C296.575,394.283333 297.5,394.1 298.5,394.1 C299.5,394.1 300.425,394.283333 301.275,394.65 C302.125,395.016667 302.875,395.525 303.525,396.175 C304.175,396.825 304.683333,397.575 305.05,398.425 C305.416667,399.275 305.6,400.2 305.6,401.2 L305.6,409.15 C305.6,410.416667 305.366667,411.591667 304.9,412.675 C304.433333,413.758333 303.8,414.716667 303,415.55 C302.2,416.383333 301.25,417.041667 300.15,417.525 C299.05,418.008333 297.883333,418.25 296.65,418.25 L296.65,423.05 C296.65,424.05 296.466667,424.975 296.1,425.825 C295.733333,426.675 295.225,427.425 294.575,428.075 C293.925,428.725 293.175,429.233333 292.325,429.6 C291.475,429.966667 290.55,430.15 289.55,430.15 Z M289.55,429 C290.383333,429 291.158333,428.841667 291.875,428.525 C292.591667,428.208333 293.216667,427.783333 293.75,427.25 C294.283333,426.716667 294.708333,426.091667 295.025,425.375 C295.341667,424.658333 295.5,423.883333 295.5,423.05 L295.5,417.1 L296.55,417.1 C297.65,417.1 298.675,416.891667 299.625,416.475 C300.575,416.058333 301.408333,415.491667 302.125,414.775 C302.841667,414.058333 303.408333,413.216667 303.825,412.25 C304.241667,411.283333 304.45,410.25 304.45,409.15 L304.45,401.2 C304.45,400.366667 304.291667,399.591667 303.975,398.875 C303.658333,398.158333 303.233333,397.533333 302.7,397 C302.166667,396.466667 301.541667,396.041667 300.825,395.725 C300.108333,395.408333 299.333333,395.25 298.5,395.25 C297.666667,395.25 296.891667,395.408333 296.175,395.725 C295.458333,396.041667 294.833333,396.466667 294.3,397 C293.766667,397.533333 293.341667,398.158333 293.025,398.875 C292.708333,399.591667 292.55,400.366667 292.55,401.2 L292.55,411.1 L286.55,411.1 L286.55,401.2 C286.55,400.366667 286.391667,399.591667 286.075,398.875 C285.758333,398.158333 285.333333,397.533333 284.8,397 C284.266667,396.466667 283.641667,396.041667 282.925,395.725 C282.208333,395.408333 281.433333,395.25 280.6,395.25 C279.766667,395.25 278.991667,395.408333 278.275,395.725 C277.558333,396.041667 276.933333,396.466667 276.4,397 C275.866667,397.533333 275.441667,398.158333 275.125,398.875 C274.808333,399.591667 274.65,400.366667 274.65,401.2 L274.65,409.15 C274.65,410.25 274.858333,411.283333 275.275,412.25 C275.691667,413.216667 276.258333,414.058333 276.975,414.775 C277.691667,415.491667 278.533333,416.058333 279.5,416.475 C280.466667,416.891667 281.5,417.1 282.6,417.1 L283.6,417.1 L283.6,423.05 C283.6,423.883333 283.758333,424.658333 284.075,425.375 C284.391667,426.091667 284.816667,426.716667 285.35,427.25 C285.883333,427.783333 286.508333,428.208333 287.225,428.525 C287.941667,428.841667 288.716667,429 289.55,429 Z M295,404.95 C294.8,404.983333 294.616667,404.8 294.45,404.4 C294.316667,404 294.233333,403.425 294.2,402.675 C294.166667,401.925 294.166667,401.233333 294.2,400.6 C294.233333,399.966667 294.308333,399.45 294.425,399.05 C294.541667,398.65 294.783333,398.316667 295.15,398.05 C295.516667,397.783333 295.966667,397.558333 296.5,397.375 C297.033333,397.191667 297.5,397.083333 297.9,397.05 C298.366667,397.016667 298.708333,397.075 298.925,397.225 C299.141667,397.375 299.216667,397.533333 299.15,397.7 C299.116667,397.866667 298.95,398.033333 298.65,398.2 C298.35,398.366667 298.033333,398.583333 297.7,398.85 C297.4,399.15 297.116667,399.516667 296.85,399.95 C296.583333,400.383333 296.366667,400.866667 296.2,401.4 C296.033333,401.933333 295.916667,402.475 295.85,403.025 C295.783333,403.575 295.683333,404.033333 295.55,404.4 C295.383333,404.733333 295.2,404.916667 295,404.95 Z M277.1,408.75 C276.9,408.816667 276.733333,408.566667 276.6,408 C276.533333,407.7 276.475,407.333333 276.425,406.9 C276.375,406.466667 276.341667,406.008333 276.325,405.525 C276.308333,405.041667 276.3,404.541667 276.3,404.025 L276.3,402.6 C276.366667,401.7 276.45,400.966667 276.55,400.4 C276.65,399.833333 276.883333,399.35 277.25,398.95 C277.616667,398.516667 278.058333,398.166667 278.575,397.9 C279.091667,397.633333 279.566667,397.5 280,397.5 C280.466667,397.5 280.808333,397.6 281.025,397.8 C281.241667,398 281.316667,398.216667 281.25,398.45 C281.216667,398.683333 281.05,398.908333 280.75,399.125 C280.45,399.341667 280.133333,399.666667 279.8,400.1 C279.1,400.933333 278.6,402.133333 278.3,403.7 C278.133333,404.466667 278.016667,405.25 277.95,406.05 C277.883333,406.85 277.783333,407.483333 277.65,407.95 C277.483333,408.416667 277.3,408.683333 277.1,408.75 Z M294.95,408.3 C294.45,408.3 294.2,408.05 294.2,407.55 C294.2,407.05 294.45,406.8 294.95,406.8 C295.45,406.8 295.7,407.05 295.7,407.55 C295.7,408.05 295.45,408.3 294.95,408.3 Z M277.05,411.9 C276.55,411.9 276.3,411.633333 276.3,411.1 C276.3,410.6 276.55,410.35 277.05,410.35 C277.55,410.35 277.8,410.6 277.8,411.1 C277.8,411.633333 277.55,411.9 277.05,411.9 Z M354,434.4 C355.533333,434.4 356.983333,434.108333 358.35,433.525 C359.716667,432.941667 360.908333,432.141667 361.925,431.125 C362.941667,430.108333 363.741667,428.916667 364.325,427.55 C364.908333,426.183333 365.2,424.733333 365.2,423.2 L365.2,421.2 C365.2,420.1 364.991667,419.033333 364.575,418 C364.158333,416.966667 363.616667,416.066667 362.95,415.3 C363.75,414.466667 364.325,413.566667 364.675,412.6 C365.025,411.633333 365.2,410.516667 365.2,409.25 L365.2,405.25 C365.2,403.716667 364.908333,402.275 364.325,400.925 C363.741667,399.575 362.95,398.4 361.95,397.4 L361.15,396.6 C360.116667,395.133333 358.791667,393.966667 357.175,393.1 C355.558333,392.233333 353.783333,391.8 351.85,391.8 L335.95,391.8 C334.65,391.8 333.425,392.041667 332.275,392.525 C331.125,393.008333 330.125,393.675 329.275,394.525 C328.425,395.375 327.758333,396.366667 327.275,397.5 C326.791667,398.633333 326.55,399.85 326.55,401.15 L326.55,423 C326.55,424.6 326.916667,426.066667 327.65,427.4 C328.383333,428.733333 329.35,429.833333 330.55,430.7 L331.55,431.7 C332.383333,432.566667 333.366667,433.233333 334.5,433.7 C335.633333,434.166667 336.833333,434.4 338.1,434.4 L354,434.4 Z M335.95,430.15 C334.95,430.15 334.016667,429.966667 333.15,429.6 C332.283333,429.233333 331.525,428.725 330.875,428.075 C330.225,427.425 329.716667,426.666667 329.35,425.8 C328.983333,424.933333 328.8,424 328.8,423 L328.8,401.15 C328.8,400.15 328.983333,399.225 329.35,398.375 C329.716667,397.525 330.225,396.775 330.875,396.125 C331.525,395.475 332.283333,394.966667 333.15,394.6 C334.016667,394.233333 334.95,394.05 335.95,394.05 L351.85,394.05 C353.116667,394.05 354.3,394.283333 355.4,394.75 C356.5,395.216667 357.466667,395.866667 358.3,396.7 C359.133333,397.533333 359.783333,398.5 360.25,399.6 C360.716667,400.7 360.95,401.866667 360.95,403.1 L360.95,407.1 C360.95,408.366667 360.65,409.525 360.05,410.575 C359.45,411.625 358.65,412.466667 357.65,413.1 C358.616667,413.733333 359.408333,414.566667 360.025,415.6 C360.641667,416.633333 360.95,417.783333 360.95,419.05 L360.95,421.05 C360.95,422.316667 360.716667,423.5 360.25,424.6 C359.783333,425.7 359.133333,426.658333 358.3,427.475 C357.466667,428.291667 356.5,428.941667 355.4,429.425 C354.3,429.908333 353.116667,430.15 351.85,430.15 L335.95,430.15 Z M351.85,429 C352.95,429 353.983333,428.791667 354.95,428.375 C355.916667,427.958333 356.758333,427.383333 357.475,426.65 C358.191667,425.916667 358.758333,425.075 359.175,424.125 C359.591667,423.175 359.8,422.15 359.8,421.05 L359.8,419.05 C359.8,418.216667 359.641667,417.441667 359.325,416.725 C359.008333,416.008333 358.583333,415.383333 358.05,414.85 C357.516667,414.316667 356.891667,413.891667 356.175,413.575 C355.458333,413.258333 354.683333,413.1 353.85,413.1 C354.683333,413.1 355.458333,412.941667 356.175,412.625 C356.891667,412.308333 357.516667,411.875 358.05,411.325 C358.583333,410.775 359.008333,410.141667 359.325,409.425 C359.641667,408.708333 359.8,407.933333 359.8,407.1 L359.8,403.1 C359.8,402 359.591667,400.975 359.175,400.025 C358.758333,399.075 358.191667,398.241667 357.475,397.525 C356.758333,396.808333 355.916667,396.241667 354.95,395.825 C353.983333,395.408333 352.95,395.2 351.85,395.2 L335.95,395.2 C335.116667,395.2 334.341667,395.358333 333.625,395.675 C332.908333,395.991667 332.275,396.416667 331.725,396.95 C331.175,397.483333 330.741667,398.108333 330.425,398.825 C330.108333,399.541667 329.95,400.316667 329.95,401.15 L329.95,423 C329.95,423.833333 330.108333,424.608333 330.425,425.325 C330.741667,426.041667 331.175,426.675 331.725,427.225 C332.275,427.775 332.908333,428.208333 333.625,428.525 C334.341667,428.841667 335.116667,429 335.95,429 L351.85,429 Z M332.7,412.6 C332.5,412.666667 332.316667,412.316667 332.15,411.55 C332.083333,411.183333 332.033333,410.708333 332,410.125 C331.966667,409.541667 331.941667,408.925 331.925,408.275 C331.908333,407.625 331.9,406.958333 331.9,406.275 C331.9,405.591667 331.916667,404.95 331.95,404.35 C331.983333,403.183333 332.05,402.225 332.15,401.475 C332.25,400.725 332.483333,400.066667 332.85,399.5 C333.216667,398.933333 333.666667,398.475 334.2,398.125 C334.733333,397.775 335.216667,397.583333 335.65,397.55 C336.083333,397.55 336.416667,397.691667 336.65,397.975 C336.883333,398.258333 336.966667,398.55 336.9,398.85 C336.833333,399.15 336.65,399.441667 336.35,399.725 C336.05,400.008333 335.733333,400.433333 335.4,401 C335.1,401.566667 334.816667,402.258333 334.55,403.075 C334.283333,403.891667 334.066667,404.816667 333.9,405.85 C333.733333,406.85 333.625,407.875 333.575,408.925 C333.525,409.975 333.416667,410.833333 333.25,411.5 C333.083333,412.166667 332.9,412.533333 332.7,412.6 Z M347.85,411.1 L341.9,411.1 L341.9,407.1 L347.85,407.1 L347.85,411.1 Z M346.7,409.95 L346.7,408.25 L343.05,408.25 L343.05,409.95 L346.7,409.95 Z M332.65,416.75 C332.283333,416.75 332.066667,416.65 332,416.45 C331.933333,416.25 331.9,416 331.9,415.7 C331.9,415.433333 331.933333,415.208333 332,415.025 C332.066667,414.841667 332.283333,414.75 332.65,414.75 C333.016667,414.75 333.233333,414.841667 333.3,415.025 C333.366667,415.208333 333.4,415.433333 333.4,415.7 C333.4,416 333.366667,416.25 333.3,416.45 C333.233333,416.65 333.016667,416.75 332.65,416.75 Z M347.85,418.8 L341.9,418.8 L341.9,414.8 L347.85,414.8 L347.85,418.8 Z M346.7,417.65 L346.7,415.95 L343.05,415.95 L343.05,417.65 L346.7,417.65 Z M391.45,434.4 C394.383333,434.4 396.483333,433.766667 397.75,432.5 C399.016667,431.233333 399.65,429.116667 399.65,426.15 C399.65,423.216667 399.016667,421.116667 397.75,419.85 L396.45,418.6 C395.983333,417.866667 395.383333,417.266667 394.65,416.8 C394.683333,416.7 394.7,416.5 394.7,416.2 C394.7,414.3 394.366667,412.866667 393.7,411.9 C395.466667,411.233333 396.9,410.133333 398,408.6 C399.1,407.066667 399.65,405.3 399.65,403.3 C399.65,402.033333 399.408333,400.841667 398.925,399.725 C398.441667,398.608333 397.783333,397.633333 396.95,396.8 L396.1,395.95 C395.233333,394.683333 394.125,393.675 392.775,392.925 C391.425,392.175 389.933333,391.8 388.3,391.8 L372.4,391.8 C371.1,391.8 369.883333,392.041667 368.75,392.525 C367.616667,393.008333 366.625,393.675 365.775,394.525 C364.925,395.375 364.258333,396.366667 363.775,397.5 C363.291667,398.633333 363.05,399.85 363.05,401.15 L363.05,423 C363.05,424.633333 363.425,426.125 364.175,427.475 C364.925,428.825 365.916667,429.933333 367.15,430.8 L368.05,431.7 C368.883333,432.533333 369.858333,433.191667 370.975,433.675 C372.091667,434.158333 373.283333,434.4 374.55,434.4 L391.45,434.4 Z M372.4,430.15 C371.4,430.15 370.475,429.966667 369.625,429.6 C368.775,429.233333 368.025,428.725 367.375,428.075 C366.725,427.425 366.216667,426.666667 365.85,425.8 C365.483333,424.933333 365.3,424 365.3,423 L365.3,401.15 C365.3,400.15 365.483333,399.225 365.85,398.375 C366.216667,397.525 366.725,396.775 367.375,396.125 C368.025,395.475 368.775,394.966667 369.625,394.6 C370.475,394.233333 371.4,394.05 372.4,394.05 L388.3,394.05 C389.3,394.05 390.225,394.233333 391.075,394.6 C391.925,394.966667 392.675,395.475 393.325,396.125 C393.975,396.775 394.483333,397.525 394.85,398.375 C395.216667,399.225 395.4,400.15 395.4,401.15 C395.4,402.15 395.216667,403.075 394.85,403.925 C394.483333,404.775 393.975,405.525 393.325,406.175 C392.675,406.825 391.925,407.333333 391.075,407.7 C390.225,408.066667 389.3,408.25 388.3,408.25 L379.5,408.25 L379.5,409.95 L386.35,409.95 C387.85,409.95 388.908333,410.258333 389.525,410.875 C390.141667,411.491667 390.45,412.55 390.45,414.05 C390.45,416.15 389.783333,417.433333 388.45,417.9 L389.3,417.9 C391.5,417.9 393.066667,418.366667 394,419.3 C394.933333,420.233333 395.4,421.8 395.4,424 C395.4,426.2 394.933333,427.775 394,428.725 C393.066667,429.675 391.5,430.15 389.3,430.15 L372.4,430.15 Z M389.3,429 C391.066667,429 392.333333,428.616667 393.1,427.85 C393.866667,427.083333 394.25,425.8 394.25,424 C394.25,422.233333 393.866667,420.966667 393.1,420.2 C392.333333,419.433333 391.066667,419.05 389.3,419.05 L378.35,419.05 L378.35,417.05 L386.35,417.05 C387.416667,417.05 388.175,416.816667 388.625,416.35 C389.075,415.883333 389.3,415.116667 389.3,414.05 C389.3,412.983333 389.075,412.225 388.625,411.775 C388.175,411.325 387.416667,411.1 386.35,411.1 L378.35,411.1 L378.35,407.1 L388.3,407.1 C389.133333,407.1 389.908333,406.941667 390.625,406.625 C391.341667,406.308333 391.966667,405.883333 392.5,405.35 C393.033333,404.816667 393.458333,404.191667 393.775,403.475 C394.091667,402.758333 394.25,401.983333 394.25,401.15 C394.25,400.316667 394.091667,399.541667 393.775,398.825 C393.458333,398.108333 393.033333,397.483333 392.5,396.95 C391.966667,396.416667 391.341667,395.991667 390.625,395.675 C389.908333,395.358333 389.133333,395.2 388.3,395.2 L372.4,395.2 C371.566667,395.2 370.791667,395.358333 370.075,395.675 C369.358333,395.991667 368.733333,396.416667 368.2,396.95 C367.666667,397.483333 367.241667,398.108333 366.925,398.825 C366.608333,399.541667 366.45,400.316667 366.45,401.15 L366.45,423 C366.45,423.833333 366.608333,424.608333 366.925,425.325 C367.241667,426.041667 367.666667,426.675 368.2,427.225 C368.733333,427.775 369.358333,428.208333 370.075,428.525 C370.791667,428.841667 371.566667,429 372.4,429 L389.3,429 Z M368.9,412.925 C368.7,413.008333 368.533333,412.65 368.4,411.85 C368.333333,411.45 368.275,410.95 368.225,410.35 C368.175,409.75 368.141667,409.108333 368.125,408.425 C368.108333,407.741667 368.1,407.041667 368.1,406.325 L368.1,404.3 C368.166667,403.033333 368.25,402.008333 368.35,401.225 C368.45,400.441667 368.683333,399.766667 369.05,399.2 C369.416667,398.633333 369.858333,398.158333 370.375,397.775 C370.891667,397.391667 371.366667,397.2 371.8,397.2 C372.266667,397.166667 372.608333,397.3 372.825,397.6 C373.041667,397.9 373.116667,398.2 373.05,398.5 C372.983333,398.833333 372.808333,399.158333 372.525,399.475 C372.241667,399.791667 371.933333,400.233333 371.6,400.8 C371.266667,401.366667 370.975,402.083333 370.725,402.95 C370.475,403.816667 370.266667,404.783333 370.1,405.85 C369.933333,406.916667 369.816667,408.008333 369.75,409.125 C369.683333,410.241667 369.566667,411.133333 369.4,411.8 C369.266667,412.466667 369.1,412.841667 368.9,412.925 Z M368.85,417.3 C368.483333,417.3 368.266667,417.191667 368.2,416.975 C368.133333,416.758333 368.1,416.516667 368.1,416.25 C368.1,415.95 368.133333,415.7 368.2,415.5 C368.266667,415.3 368.483333,415.2 368.85,415.2 C369.216667,415.2 369.433333,415.3 369.5,415.5 C369.566667,415.7 369.6,415.95 369.6,416.25 C369.6,416.516667 369.566667,416.758333 369.5,416.975 C369.433333,417.191667 369.216667,417.3 368.85,417.3 Z M426.8,434.4 C428.066667,434.4 429.258333,434.158333 430.375,433.675 C431.491667,433.191667 432.466667,432.533333 433.3,431.7 C434.133333,430.866667 434.791667,429.891667 435.275,428.775 C435.758333,427.658333 436,426.466667 436,425.2 L436,409.3 C436,407.2 435.608333,405.233333 434.825,403.4 C434.041667,401.566667 432.95,399.95 431.55,398.55 L430.95,397.95 C429.55,396.083333 427.783333,394.591667 425.65,393.475 C423.516667,392.358333 421.183333,391.8 418.65,391.8 L412.7,391.8 C410.566667,391.8 408.566667,392.2 406.7,393 C404.833333,393.8 403.208333,394.891667 401.825,396.275 C400.441667,397.658333 399.35,399.283333 398.55,401.15 C397.75,403.016667 397.35,405.016667 397.35,407.15 L397.35,423.05 C397.35,424.683333 397.725,426.175 398.475,427.525 C399.225,428.875 400.216667,429.966667 401.45,430.8 L402.35,431.7 C403.183333,432.533333 404.158333,433.191667 405.275,433.675 C406.391667,434.158333 407.583333,434.4 408.85,434.4 C410.716667,434.4 412.408333,433.9 413.925,432.9 C415.441667,431.9 416.566667,430.6 417.3,429 C417.6,429.333333 417.916667,429.641667 418.25,429.925 C418.583333,430.208333 418.933333,430.483333 419.3,430.75 L420.25,431.7 C421.116667,432.566667 422.108333,433.233333 423.225,433.7 C424.341667,434.166667 425.533333,434.4 426.8,434.4 Z M424.65,430.15 C423.65,430.15 422.716667,429.966667 421.85,429.6 C420.983333,429.233333 420.225,428.725 419.575,428.075 C418.925,427.425 418.416667,426.675 418.05,425.825 C417.683333,424.975 417.5,424.05 417.5,423.05 L417.5,418.2 L413.85,418.2 L413.85,423.05 C413.85,424.05 413.666667,424.975 413.3,425.825 C412.933333,426.675 412.425,427.425 411.775,428.075 C411.125,428.725 410.366667,429.233333 409.5,429.6 C408.633333,429.966667 407.7,430.15 406.7,430.15 C405.733333,430.15 404.816667,429.966667 403.95,429.6 C403.083333,429.233333 402.325,428.725 401.675,428.075 C401.025,427.425 400.516667,426.675 400.15,425.825 C399.783333,424.975 399.6,424.05 399.6,423.05 L399.6,407.15 C399.6,405.35 399.941667,403.65 400.625,402.05 C401.308333,400.45 402.241667,399.058333 403.425,397.875 C404.608333,396.691667 406,395.758333 407.6,395.075 C409.2,394.391667 410.9,394.05 412.7,394.05 L418.65,394.05 C420.45,394.05 422.15,394.391667 423.75,395.075 C425.35,395.758333 426.741667,396.691667 427.925,397.875 C429.108333,399.058333 430.041667,400.45 430.725,402.05 C431.408333,403.65 431.75,405.35 431.75,407.15 L431.75,423.05 C431.75,424.05 431.566667,424.975 431.2,425.825 C430.833333,426.675 430.325,427.425 429.675,428.075 C429.025,428.725 428.266667,429.233333 427.4,429.6 C426.533333,429.966667 425.616667,430.15 424.65,430.15 Z M424.65,429 C425.45,429 426.216667,428.841667 426.95,428.525 C427.683333,428.208333 428.316667,427.783333 428.85,427.25 C429.383333,426.716667 429.808333,426.091667 430.125,425.375 C430.441667,424.658333 430.6,423.883333 430.6,423.05 L430.6,407.15 C430.6,405.516667 430.283333,403.966667 429.65,402.5 C429.016667,401.033333 428.166667,399.766667 427.1,398.7 C426.033333,397.633333 424.766667,396.783333 423.3,396.15 C421.833333,395.516667 420.283333,395.2 418.65,395.2 L412.7,395.2 C411.033333,395.2 409.475,395.516667 408.025,396.15 C406.575,396.783333 405.316667,397.633333 404.25,398.7 C403.183333,399.766667 402.333333,401.033333 401.7,402.5 C401.066667,403.966667 400.75,405.516667 400.75,407.15 L400.75,423.05 C400.75,423.883333 400.908333,424.658333 401.225,425.375 C401.541667,426.091667 401.966667,426.716667 402.5,427.25 C403.033333,427.783333 403.666667,428.208333 404.4,428.525 C405.133333,428.841667 405.9,429 406.7,429 C407.533333,429 408.308333,428.841667 409.025,428.525 C409.741667,428.208333 410.375,427.783333 410.925,427.25 C411.475,426.716667 411.908333,426.091667 412.225,425.375 C412.541667,424.658333 412.7,423.883333 412.7,423.05 L412.7,417.05 L418.65,417.05 L418.65,423.05 C418.65,423.883333 418.808333,424.658333 419.125,425.375 C419.441667,426.091667 419.875,426.716667 420.425,427.25 C420.975,427.783333 421.608333,428.208333 422.325,428.525 C423.041667,428.841667 423.816667,429 424.65,429 Z M403.35,412.275 C403.116667,412.491667 402.916667,412.516667 402.75,412.35 C402.583333,412.15 402.466667,411.775 402.4,411.225 C402.333333,410.675 402.3,410.05 402.3,409.35 C402.333333,408.683333 402.375,407.966667 402.425,407.2 C402.475,406.433333 402.583333,405.633333 402.75,404.8 C402.916667,403.966667 403.15,403.15 403.45,402.35 C403.75,401.55 404.2,400.833333 404.8,400.2 C405.366667,399.566667 406.05,399.083333 406.85,398.75 C407.65,398.416667 408.333333,398.2 408.9,398.1 C409.466667,398.033333 409.866667,398.058333 410.1,398.175 C410.333333,398.291667 410.483333,398.433333 410.55,398.6 C410.616667,398.766667 410.6,398.933333 410.5,399.1 C410.4,399.266667 410.166667,399.5 409.8,399.8 C409.466667,400.066667 409.05,400.416667 408.55,400.85 C408.05,401.283333 407.566667,401.733333 407.1,402.2 C406.633333,402.7 406.241667,403.25 405.925,403.85 C405.608333,404.45 405.316667,405.166667 405.05,406 C404.85,406.8 404.675,407.666667 404.525,408.6 C404.375,409.533333 404.2,410.333333 404,411 C403.8,411.633333 403.583333,412.058333 403.35,412.275 Z M418.65,411.1 L412.7,411.1 L412.7,407.15 L418.65,407.15 L418.65,411.1 Z M417.5,409.95 L417.5,408.3 L413.85,408.3 L413.85,409.95 L417.5,409.95 Z M403.05,415.75 C402.516667,415.75 402.25,415.466667 402.25,414.9 C402.25,414.366667 402.516667,414.1 403.05,414.1 C403.616667,414.1 403.9,414.366667 403.9,414.9 C403.9,415.466667 403.616667,415.75 403.05,415.75 Z M463.65,434.4 C464.916667,434.4 466.108333,434.158333 467.225,433.675 C468.341667,433.191667 469.316667,432.533333 470.15,431.7 C470.983333,430.866667 471.641667,429.891667 472.125,428.775 C472.608333,427.658333 472.85,426.466667 472.85,425.2 L472.85,421.2 C472.85,418.9 472.116667,416.916667 470.65,415.25 C471.45,414.416667 472.016667,413.533333 472.35,412.6 C472.683333,411.666667 472.85,410.566667 472.85,409.3 L472.85,405.3 C472.85,403.733333 472.55,402.283333 471.95,400.95 C471.35,399.616667 470.55,398.433333 469.55,397.4 L468.85,396.75 C467.816667,395.25 466.491667,394.05 464.875,393.15 C463.258333,392.25 461.466667,391.8 459.5,391.8 L443.6,391.8 C442.3,391.8 441.075,392.041667 439.925,392.525 C438.775,393.008333 437.775,393.675 436.925,394.525 C436.075,395.375 435.408333,396.366667 434.925,397.5 C434.441667,398.633333 434.2,399.85 434.2,401.15 L434.2,423.05 C434.2,424.683333 434.575,426.166667 435.325,427.5 C436.075,428.833333 437.05,429.916667 438.25,430.75 L439.2,431.7 C440.066667,432.566667 441.058333,433.233333 442.175,433.7 C443.291667,434.166667 444.483333,434.4 445.75,434.4 C447.616667,434.4 449.3,433.9 450.8,432.9 C452.3,431.9 453.416667,430.6 454.15,429 C454.45,429.333333 454.766667,429.641667 455.1,429.925 C455.433333,430.208333 455.783333,430.483333 456.15,430.75 L457.1,431.7 C457.966667,432.566667 458.958333,433.233333 460.075,433.7 C461.191667,434.166667 462.383333,434.4 463.65,434.4 Z M461.5,430.15 C460.5,430.15 459.566667,429.966667 458.7,429.6 C457.833333,429.233333 457.075,428.725 456.425,428.075 C455.775,427.425 455.266667,426.675 454.9,425.825 C454.533333,424.975 454.35,424.05 454.35,423.05 L454.35,418.2 L450.7,418.2 L450.7,423.05 C450.7,424.05 450.516667,424.975 450.15,425.825 C449.783333,426.675 449.275,427.425 448.625,428.075 C447.975,428.725 447.225,429.233333 446.375,429.6 C445.525,429.966667 444.6,430.15 443.6,430.15 C442.6,430.15 441.666667,429.966667 440.8,429.6 C439.933333,429.233333 439.175,428.725 438.525,428.075 C437.875,427.425 437.366667,426.675 437,425.825 C436.633333,424.975 436.45,424.05 436.45,423.05 L436.45,401.15 C436.45,400.15 436.633333,399.225 437,398.375 C437.366667,397.525 437.875,396.775 438.525,396.125 C439.175,395.475 439.933333,394.966667 440.8,394.6 C441.666667,394.233333 442.6,394.05 443.6,394.05 L459.5,394.05 C460.766667,394.05 461.95,394.283333 463.05,394.75 C464.15,395.216667 465.116667,395.866667 465.95,396.7 C466.783333,397.533333 467.433333,398.5 467.9,399.6 C468.366667,400.7 468.6,401.883333 468.6,403.15 L468.6,407.15 C468.6,408.416667 468.3,409.566667 467.7,410.6 C467.1,411.633333 466.3,412.466667 465.3,413.1 C466.3,413.766667 467.1,414.608333 467.7,415.625 C468.3,416.641667 468.6,417.783333 468.6,419.05 L468.6,423.05 C468.6,424.05 468.416667,424.975 468.05,425.825 C467.683333,426.675 467.175,427.425 466.525,428.075 C465.875,428.725 465.125,429.233333 464.275,429.6 C463.425,429.966667 462.5,430.15 461.5,430.15 Z M461.5,429 C462.333333,429 463.108333,428.841667 463.825,428.525 C464.541667,428.208333 465.166667,427.783333 465.7,427.25 C466.233333,426.716667 466.658333,426.091667 466.975,425.375 C467.291667,424.658333 467.45,423.883333 467.45,423.05 L467.45,419.05 C467.45,418.216667 467.291667,417.441667 466.975,416.725 C466.658333,416.008333 466.233333,415.383333 465.7,414.85 C465.166667,414.316667 464.541667,413.891667 463.825,413.575 C463.108333,413.258333 462.333333,413.1 461.5,413.1 C462.333333,413.1 463.108333,412.941667 463.825,412.625 C464.541667,412.308333 465.166667,411.883333 465.7,411.35 C466.233333,410.816667 466.658333,410.191667 466.975,409.475 C467.291667,408.758333 467.45,407.983333 467.45,407.15 L467.45,403.15 C467.45,402.05 467.241667,401.016667 466.825,400.05 C466.408333,399.083333 465.841667,398.241667 465.125,397.525 C464.408333,396.808333 463.566667,396.241667 462.6,395.825 C461.633333,395.408333 460.6,395.2 459.5,395.2 L443.6,395.2 C442.766667,395.2 441.991667,395.358333 441.275,395.675 C440.558333,395.991667 439.925,396.416667 439.375,396.95 C438.825,397.483333 438.391667,398.108333 438.075,398.825 C437.758333,399.541667 437.6,400.316667 437.6,401.15 L437.6,423.05 C437.6,423.883333 437.758333,424.658333 438.075,425.375 C438.391667,426.091667 438.825,426.716667 439.375,427.25 C439.925,427.783333 440.558333,428.208333 441.275,428.525 C441.991667,428.841667 442.766667,429 443.6,429 C444.433333,429 445.208333,428.841667 445.925,428.525 C446.641667,428.208333 447.266667,427.783333 447.8,427.25 C448.333333,426.716667 448.758333,426.091667 449.075,425.375 C449.391667,424.658333 449.55,423.883333 449.55,423.05 L449.55,417.05 L455.5,417.05 L455.5,423.05 C455.5,423.883333 455.658333,424.658333 455.975,425.375 C456.291667,426.091667 456.725,426.716667 457.275,427.25 C457.825,427.783333 458.458333,428.208333 459.175,428.525 C459.891667,428.841667 460.666667,429 461.5,429 Z M440.35,412.6 C440.15,412.666667 439.966667,412.316667 439.8,411.55 C439.733333,411.183333 439.683333,410.708333 439.65,410.125 C439.616667,409.541667 439.591667,408.925 439.575,408.275 C439.558333,407.625 439.55,406.958333 439.55,406.275 L439.55,404.35 C439.616667,403.183333 439.7,402.225 439.8,401.475 C439.9,400.725 440.133333,400.066667 440.5,399.5 C440.866667,398.933333 441.316667,398.483333 441.85,398.15 C442.383333,397.816667 442.85,397.633333 443.25,397.6 C443.716667,397.566667 444.066667,397.7 444.3,398 C444.533333,398.3 444.616667,398.583333 444.55,398.85 C444.483333,399.15 444.3,399.45 444,399.75 C443.7,400.05 443.383333,400.483333 443.05,401.05 C442.75,401.616667 442.466667,402.308333 442.2,403.125 C441.933333,403.941667 441.716667,404.85 441.55,405.85 C441.383333,406.883333 441.275,407.916667 441.225,408.95 C441.175,409.983333 441.066667,410.833333 440.9,411.5 C440.733333,412.166667 440.55,412.533333 440.35,412.6 Z M455.5,411.1 L449.55,411.1 L449.55,407.15 L455.5,407.15 L455.5,411.1 Z M454.35,409.95 L454.35,408.3 L450.7,408.3 L450.7,409.95 L454.35,409.95 Z M440.3,416.75 C439.933333,416.75 439.716667,416.65 439.65,416.45 C439.583333,416.25 439.55,416.016667 439.55,415.75 C439.55,415.483333 439.583333,415.25 439.65,415.05 C439.716667,414.85 439.933333,414.75 440.3,414.75 C440.666667,414.75 440.883333,414.85 440.95,415.05 C441.016667,415.25 441.05,415.483333 441.05,415.75 C441.05,416.016667 441.016667,416.25 440.95,416.45 C440.883333,416.65 440.666667,416.75 440.3,416.75 Z" id="pink"></path>
        </g>
    </g>
</svg>