<?xml version="1.0" encoding="UTF-8"?>
<svg width="336px" height="44px" viewBox="0 0 336 44" version="1.1" xmlns="http://www.w3.org/2000/svg" xmlns:xlink="http://www.w3.org/1999/xlink">
    <title>rainbow logo</title>
    <g id="Page-1" stroke="none" stroke-width="1" fill="none" fill-rule="evenodd">
        <g id="Letter" transform="translate(-137.000000, -204.000000)" fill-rule="nonzero">
            <g id="rainbow-logo" transform="translate(137.950000, 204.800000)">
                <g id="multicolor_logo-copy" fill="#FFFFFF">
                    <path d="M151.75,42.6 C153.016667,42.6 154.208333,42.3583333 155.325,41.875 C156.441667,41.3916667 157.416667,40.7333333 158.25,39.9 C159.083333,39.0666667 159.741667,38.0916667 160.225,36.975 C160.708333,35.8583333 160.95,34.6666667 160.95,33.4 L160.95,33.4 L160.95,30.5 C162.25,30.2666667 163.441667,29.8166667 164.525,29.15 C165.608333,28.4833333 166.55,27.6583333 167.35,26.675 C168.15,25.6916667 168.775,24.5916667 169.225,23.375 C169.675,22.1583333 169.9,20.8666667 169.9,19.5 L169.9,19.5 L169.9,11.55 C169.9,10.2833333 169.658333,9.09166667 169.175,7.975 C168.691667,6.85833333 168.033333,5.88333333 167.2,5.05 L167.2,5.05 L166.35,4.25 C165.516667,2.98333333 164.416667,1.96666667 163.05,1.2 C161.683333,0.433333333 160.183333,0.05 158.55,0.05 C156.583333,0.05 154.825,0.583333333 153.275,1.65 C151.725,2.71666667 150.6,4.1 149.9,5.8 L149.9,5.8 L149.3,5.05 L148.4,4.15 C147.533333,2.91666667 146.433333,1.925 145.1,1.175 C143.766667,0.425 142.283333,0.05 140.65,0.05 C139.35,0.05 138.133333,0.291666667 137,0.775 C135.866667,1.25833333 134.875,1.925 134.025,2.775 C133.175,3.625 132.508333,4.61666667 132.025,5.75 C131.541667,6.88333333 131.3,8.1 131.3,9.4 L131.3,9.4 L131.3,17.35 C131.3,19.3833333 131.75,21.2333333 132.65,22.9 C133.55,24.5666667 134.766667,25.9166667 136.3,26.95 L136.3,26.95 L136.9,27.5 C137.833333,28.5 138.95,29.2666667 140.25,29.8 L140.25,29.8 L140.25,31.25 C140.25,32.9166667 140.625,34.425 141.375,35.775 C142.125,37.125 143.133333,38.2166667 144.4,39.05 L144.4,39.05 L145.25,39.9 C146.083333,40.7333333 147.058333,41.3916667 148.175,41.875 C149.291667,42.3583333 150.483333,42.6 151.75,42.6 Z" id="Path"></path>
                    <path d="M128.95,42.6 C130.216667,42.6 131.416667,42.3583333 132.55,41.875 C133.683333,41.3916667 134.666667,40.7333333 135.5,39.9 C136.333333,39.0666667 136.991667,38.0833333 137.475,36.95 C137.958333,35.8166667 138.2,34.6166667 138.2,33.35 C138.2,32.0833333 137.958333,30.8916667 137.475,29.775 C136.991667,28.6583333 136.333333,27.6833333 135.5,26.85 L135.5,26.85 L134.6,25.95 C133.733333,24.7166667 132.625,23.725 131.275,22.975 C129.925,22.225 128.433333,21.85 126.8,21.85 L126.8,21.85 L124.3,21.85 L124.3,11.5 C124.3,10.2333333 124.058333,9.04166667 123.575,7.925 C123.091667,6.80833333 122.433333,5.83333333 121.6,5 L121.6,5 L120.7,4.1 C119.833333,2.86666667 118.725,1.875 117.375,1.125 C116.025,0.375 114.533333,2.27373675e-13 112.9,2.27373675e-13 C111.6,2.27373675e-13 110.383333,0.241666667 109.25,0.725 C108.116667,1.20833333 107.125,1.875 106.275,2.725 C105.425,3.575 104.758333,4.56666667 104.275,5.7 C103.791667,6.83333333 103.55,8.05 103.55,9.35 L103.55,9.35 L103.55,31.2 C103.55,32.8333333 103.916667,34.3166667 104.65,35.65 C105.383333,36.9833333 106.366667,38.0833333 107.6,38.95 L107.6,38.95 L108.55,39.9 C109.383333,40.7333333 110.358333,41.3916667 111.475,41.875 C112.591667,42.3583333 113.783333,42.6 115.05,42.6 L115.05,42.6 L128.95,42.6 Z" id="Path"></path>
                    <path d="M325.7,42.6 C326.966667,42.6 328.158333,42.3583333 329.275,41.875 C330.391667,41.3916667 331.366667,40.7333333 332.2,39.9 C333.033333,39.0666667 333.691667,38.0916667 334.175,36.975 C334.658333,35.8583333 334.9,34.6666667 334.9,33.4 L334.9,33.4 L334.9,29.4 C334.9,27.1 334.166667,25.1166667 332.7,23.45 C333.5,22.6166667 334.066667,21.7333333 334.4,20.8 C334.733333,19.8666667 334.9,18.7666667 334.9,17.5 L334.9,17.5 L334.9,13.5 C334.9,11.9333333 334.6,10.4833333 334,9.15 C333.4,7.81666667 332.6,6.63333333 331.6,5.6 L331.6,5.6 L330.9,4.95 C329.866667,3.45 328.541667,2.25 326.925,1.35 C325.308333,0.45 323.516667,2.27373675e-13 321.55,2.27373675e-13 L321.55,2.27373675e-13 L305.65,2.27373675e-13 C304.35,2.27373675e-13 303.125,0.241666667 301.975,0.725 C300.825,1.20833333 299.825,1.875 298.975,2.725 C298.125,3.575 297.458333,4.56666667 296.975,5.7 C296.491667,6.83333333 296.25,8.05 296.25,9.35 L296.25,9.35 L296.25,31.25 C296.25,32.8833333 296.625,34.3666667 297.375,35.7 C298.125,37.0333333 299.1,38.1166667 300.3,38.95 L300.3,38.95 L301.25,39.9 C302.116667,40.7666667 303.108333,41.4333333 304.225,41.9 C305.341667,42.3666667 306.533333,42.6 307.8,42.6 C309.666667,42.6 311.35,42.1 312.85,41.1 C314.35,40.1 315.466667,38.8 316.2,37.2 C316.5,37.5333333 316.816667,37.8416667 317.15,38.125 C317.483333,38.4083333 317.833333,38.6833333 318.2,38.95 L318.2,38.95 L319.15,39.9 C320.016667,40.7666667 321.008333,41.4333333 322.125,41.9 C323.241667,42.3666667 324.433333,42.6 325.7,42.6 Z" id="Path"></path>
                    <path d="M96.35,42.6 C97.6166667,42.6 98.8166667,42.3583333 99.95,41.875 C101.083333,41.3916667 102.066667,40.7333333 102.9,39.9 C103.733333,39.0666667 104.391667,38.0833333 104.875,36.95 C105.358333,35.8166667 105.6,34.6166667 105.6,33.35 C105.6,32.0833333 105.358333,30.8916667 104.875,29.775 C104.391667,28.6583333 103.733333,27.6833333 102.9,26.85 L102.9,26.85 L102,25.95 C101.133333,24.7166667 100.025,23.725 98.675,22.975 C97.325,22.225 95.8333333,21.85 94.2,21.85 L94.2,21.85 L91.7,21.85 L91.7,11.5 C91.7,10.2333333 91.4583333,9.04166667 90.975,7.925 C90.4916667,6.80833333 89.8333333,5.83333333 89,5 L89,5 L88.1,4.1 C87.2333333,2.86666667 86.125,1.875 84.775,1.125 C83.425,0.375 81.9333333,0 80.3,0 C79,0 77.7833333,0.241666667 76.65,0.725 C75.5166667,1.20833333 74.525,1.875 73.675,2.725 C72.825,3.575 72.1583333,4.56666667 71.675,5.7 C71.1916667,6.83333333 70.95,8.05 70.95,9.35 L70.95,9.35 L70.95,31.2 C70.95,32.8333333 71.3166667,34.3166667 72.05,35.65 C72.7833333,36.9833333 73.7666667,38.0833333 75,38.95 L75,38.95 L75.95,39.9 C76.7833333,40.7333333 77.7583333,41.3916667 78.875,41.875 C79.9916667,42.3583333 81.1833333,42.6 82.45,42.6 L82.45,42.6 L96.35,42.6 Z" id="Path"></path>
                    <path d="M286.85,42.6 C288.116667,42.6 289.308333,42.3583333 290.425,41.875 C291.541667,41.3916667 292.516667,40.7333333 293.35,39.9 C294.183333,39.0666667 294.841667,38.0916667 295.325,36.975 C295.808333,35.8583333 296.05,34.6666667 296.05,33.4 L296.05,33.4 L296.05,17.5 C296.05,15.4 295.658333,13.4333333 294.875,11.6 C294.091667,9.76666667 293,8.15 291.6,6.75 L291.6,6.75 L291,6.15 C289.6,4.28333333 287.833333,2.79166667 285.7,1.675 C283.566667,0.558333333 281.233333,0 278.7,0 L278.7,0 L272.75,0 C270.616667,0 268.616667,0.4 266.75,1.2 C264.883333,2 263.258333,3.09166667 261.875,4.475 C260.491667,5.85833333 259.4,7.48333333 258.6,9.35 C257.8,11.2166667 257.4,13.2166667 257.4,15.35 L257.4,15.35 L257.4,31.25 C257.4,32.8833333 257.775,34.375 258.525,35.725 C259.275,37.075 260.266667,38.1666667 261.5,39 L261.5,39 L262.4,39.9 C263.233333,40.7333333 264.208333,41.3916667 265.325,41.875 C266.441667,42.3583333 267.633333,42.6 268.9,42.6 C270.766667,42.6 272.458333,42.1 273.975,41.1 C275.491667,40.1 276.616667,38.8 277.35,37.2 C277.65,37.5333333 277.966667,37.8416667 278.3,38.125 C278.633333,38.4083333 278.983333,38.6833333 279.35,38.95 L279.35,38.95 L280.3,39.9 C281.166667,40.7666667 282.158333,41.4333333 283.275,41.9 C284.391667,42.3666667 285.583333,42.6 286.85,42.6 Z" id="Path"></path>
                    <path d="M64.95,42.6 C67.8833333,42.6 69.9833333,41.9666667 71.25,40.7 C72.5166667,39.4333333 73.15,37.3166667 73.15,34.35 C73.15,31.4166667 72.5166667,29.3166667 71.25,28.05 L71.25,28.05 L69.95,26.8 C69.4833333,26.0666667 68.8833333,25.4666667 68.15,25 C68.1833333,24.9 68.2,24.7 68.2,24.4 C68.2,22.5 67.8666667,21.0666667 67.2,20.1 C68.9666667,19.4333333 70.4,18.3333333 71.5,16.8 C72.6,15.2666667 73.15,13.5 73.15,11.5 C73.15,10.2333333 72.9083333,9.04166667 72.425,7.925 C71.9416667,6.80833333 71.2833333,5.83333333 70.45,5 L70.45,5 L69.6,4.15 C68.7333333,2.88333333 67.625,1.875 66.275,1.125 C64.925,0.375 63.4333333,0 61.8,0 L61.8,0 L45.9,0 C44.6,0 43.3833333,0.241666667 42.25,0.725 C41.1166667,1.20833333 40.125,1.875 39.275,2.725 C38.425,3.575 37.7583333,4.56666667 37.275,5.7 C36.7916667,6.83333333 36.55,8.05 36.55,9.35 L36.55,9.35 L36.55,31.2 C36.55,32.8333333 36.925,34.325 37.675,35.675 C38.425,37.025 39.4166667,38.1333333 40.65,39 L40.65,39 L41.55,39.9 C42.3833333,40.7333333 43.3583333,41.3916667 44.475,41.875 C45.5916667,42.3583333 46.7833333,42.6 48.05,42.6 L48.05,42.6 L64.95,42.6 Z" id="Path"></path>
                    <path d="M251.5,42.6 C254.433333,42.6 256.533333,41.9666667 257.8,40.7 C259.066667,39.4333333 259.7,37.3166667 259.7,34.35 C259.7,31.4166667 259.066667,29.3166667 257.8,28.05 L257.8,28.05 L256.5,26.8 C256.033333,26.0666667 255.433333,25.4666667 254.7,25 C254.733333,24.9 254.75,24.7 254.75,24.4 C254.75,22.5 254.416667,21.0666667 253.75,20.1 C255.516667,19.4333333 256.95,18.3333333 258.05,16.8 C259.15,15.2666667 259.7,13.5 259.7,11.5 C259.7,10.2333333 259.458333,9.04166667 258.975,7.925 C258.491667,6.80833333 257.833333,5.83333333 257,5 L257,5 L256.15,4.15 C255.283333,2.88333333 254.175,1.875 252.825,1.125 C251.475,0.375 249.983333,0 248.35,0 L248.35,0 L232.45,0 C231.15,0 229.933333,0.241666667 228.8,0.725 C227.666667,1.20833333 226.675,1.875 225.825,2.725 C224.975,3.575 224.308333,4.56666667 223.825,5.7 C223.341667,6.83333333 223.1,8.05 223.1,9.35 L223.1,9.35 L223.1,31.2 C223.1,32.8333333 223.475,34.325 224.225,35.675 C224.975,37.025 225.966667,38.1333333 227.2,39 L227.2,39 L228.1,39.9 C228.933333,40.7333333 229.908333,41.3916667 231.025,41.875 C232.141667,42.3583333 233.333333,42.6 234.6,42.6 L234.6,42.6 L251.5,42.6 Z" id="Path"></path>
                    <path d="M23.45,42.6 C25.55,42.6 27.5166667,42.2 29.35,41.4 C31.1833333,40.6 32.7916667,39.5166667 34.175,38.15 C35.5583333,36.7833333 36.65,35.175 37.45,33.325 C38.25,31.475 38.65,29.5 38.65,27.4 L38.65,11.5 C38.65,10.2333333 38.4083333,9.04166667 37.925,7.925 C37.4416667,6.80833333 36.7833333,5.83333333 35.95,5 L35.05,4.1 C34.1833333,2.86666667 33.075,1.875 31.725,1.125 C30.375,0.375 28.8833333,0 27.25,0 C25.95,0 24.7333333,0.241666667 23.6,0.725 C22.4666667,1.20833333 21.475,1.875 20.625,2.725 C19.775,3.575 19.1083333,4.56666667 18.625,5.7 C18.1416667,6.83333333 17.9,8.05 17.9,9.35 L17.9,16.8 L17.05,15.95 C16.1833333,14.75 15.0833333,13.7833333 13.75,13.05 C12.4166667,12.3166667 10.95,11.95 9.35,11.95 C8.05,11.95 6.83333333,12.1916667 5.7,12.675 C4.56666667,13.1583333 3.575,13.825 2.725,14.675 C1.875,15.525 1.20833333,16.5166667 0.725,17.65 C0.241666667,18.7833333 0,20 0,21.3 L0,25.25 C0,27.7833333 0.55,30.1166667 1.65,32.25 C2.75,34.3833333 4.25,36.15 6.15,37.55 L6.75,38.15 C8.15,39.55 9.76666667,40.6416667 11.6,41.425 C13.4333333,42.2083333 15.4,42.6 17.5,42.6 L23.45,42.6 Z" id="Path"></path>
                    <path d="M214.05,42.6 C215.583333,42.6 217.033333,42.3083333 218.4,41.725 C219.766667,41.1416667 220.958333,40.3416667 221.975,39.325 C222.991667,38.3083333 223.791667,37.1166667 224.375,35.75 C224.958333,34.3833333 225.25,32.9333333 225.25,31.4 L225.25,29.4 C225.25,28.3 225.041667,27.2333333 224.625,26.2 C224.208333,25.1666667 223.666667,24.2666667 223,23.5 C223.8,22.6666667 224.375,21.7666667 224.725,20.8 C225.075,19.8333333 225.25,18.7166667 225.25,17.45 L225.25,13.45 C225.25,11.9166667 224.958333,10.475 224.375,9.125 C223.791667,7.775 223,6.6 222,5.6 L221.2,4.8 C220.166667,3.33333333 218.841667,2.16666667 217.225,1.3 C215.608333,0.433333333 213.833333,0 211.9,0 L196,0 C194.7,0 193.475,0.241666667 192.325,0.725 C191.175,1.20833333 190.175,1.875 189.325,2.725 C188.475,3.575 187.808333,4.56666667 187.325,5.7 C186.841667,6.83333333 186.6,8.05 186.6,9.35 L186.6,31.2 C186.6,32.8 186.966667,34.2666667 187.7,35.6 C188.433333,36.9333333 189.4,38.0333333 190.6,38.9 L191.6,39.9 C192.433333,40.7666667 193.416667,41.4333333 194.55,41.9 C195.683333,42.3666667 196.883333,42.6 198.15,42.6 L214.05,42.6 Z" id="Path"></path>
                </g>
                <g id="multicolor_logo">
                    <path d="M151.75,42.6 C153.016667,42.6 154.208333,42.3583333 155.325,41.875 C156.441667,41.3916667 157.416667,40.7333333 158.25,39.9 C159.083333,39.0666667 159.741667,38.0916667 160.225,36.975 C160.708333,35.8583333 160.95,34.6666667 160.95,33.4 L160.95,33.4 L160.95,30.5 C162.25,30.2666667 163.441667,29.8166667 164.525,29.15 C165.608333,28.4833333 166.55,27.6583333 167.35,26.675 C168.15,25.6916667 168.775,24.5916667 169.225,23.375 C169.675,22.1583333 169.9,20.8666667 169.9,19.5 L169.9,19.5 L169.9,11.55 C169.9,10.2833333 169.658333,9.09166667 169.175,7.975 C168.691667,6.85833333 168.033333,5.88333333 167.2,5.05 L167.2,5.05 L166.35,4.25 C165.516667,2.98333333 164.416667,1.96666667 163.05,1.2 C161.683333,0.433333333 160.183333,0.05 158.55,0.05 C156.583333,0.05 154.825,0.583333333 153.275,1.65 C151.725,2.71666667 150.6,4.1 149.9,5.8 L149.9,5.8 L149.3,5.05 L148.4,4.15 C147.533333,2.91666667 146.433333,1.925 145.1,1.175 C143.766667,0.425 142.283333,0.05 140.65,0.05 C139.35,0.05 138.133333,0.291666667 137,0.775 C135.866667,1.25833333 134.875,1.925 134.025,2.775 C133.175,3.625 132.508333,4.61666667 132.025,5.75 C131.541667,6.88333333 131.3,8.1 131.3,9.4 L131.3,9.4 L131.3,17.35 C131.3,19.3833333 131.75,21.2333333 132.65,22.9 C133.55,24.5666667 134.766667,25.9166667 136.3,26.95 L136.3,26.95 L136.9,27.5 C137.833333,28.5 138.95,29.2666667 140.25,29.8 L140.25,29.8 L140.25,31.25 C140.25,32.9166667 140.625,34.425 141.375,35.775 C142.125,37.125 143.133333,38.2166667 144.4,39.05 L144.4,39.05 L145.25,39.9 C146.083333,40.7333333 147.058333,41.3916667 148.175,41.875 C149.291667,42.3583333 150.483333,42.6 151.75,42.6 Z M149.6,38.35 C148.6,38.35 147.675,38.1666667 146.825,37.8 C145.975,37.4333333 145.225,36.925 144.575,36.275 C143.925,35.625 143.416667,34.875 143.05,34.025 C142.683333,33.175 142.5,32.25 142.5,31.25 L142.5,31.25 L142.5,26.45 C141.233333,26.45 140.058333,26.2083333 138.975,25.725 C137.891667,25.2416667 136.95,24.5833333 136.15,23.75 C135.35,22.9166667 134.716667,21.9583333 134.25,20.875 C133.783333,19.7916667 133.55,18.6166667 133.55,17.35 L133.55,17.35 L133.55,9.4 C133.55,8.4 133.733333,7.475 134.1,6.625 C134.466667,5.775 134.975,5.025 135.625,4.375 C136.275,3.725 137.025,3.21666667 137.875,2.85 C138.725,2.48333333 139.65,2.3 140.65,2.3 C141.65,2.3 142.575,2.48333333 143.425,2.85 C144.275,3.21666667 145.025,3.725 145.675,4.375 C146.325,5.025 146.833333,5.775 147.2,6.625 C147.566667,7.475 147.75,8.4 147.75,9.4 L147.75,9.4 L147.75,18.15 L151.45,18.15 L151.45,9.4 C151.45,8.4 151.633333,7.475 152,6.625 C152.366667,5.775 152.875,5.025 153.525,4.375 C154.175,3.725 154.925,3.21666667 155.775,2.85 C156.625,2.48333333 157.55,2.3 158.55,2.3 C159.55,2.3 160.475,2.48333333 161.325,2.85 C162.175,3.21666667 162.925,3.725 163.575,4.375 C164.225,5.025 164.733333,5.775 165.1,6.625 C165.466667,7.475 165.65,8.4 165.65,9.4 L165.65,9.4 L165.65,17.35 C165.65,18.6166667 165.416667,19.7916667 164.95,20.875 C164.483333,21.9583333 163.85,22.9166667 163.05,23.75 C162.25,24.5833333 161.3,25.2416667 160.2,25.725 C159.1,26.2083333 157.933333,26.45 156.7,26.45 L156.7,26.45 L156.7,31.25 C156.7,32.25 156.516667,33.175 156.15,34.025 C155.783333,34.875 155.275,35.625 154.625,36.275 C153.975,36.925 153.225,37.4333333 152.375,37.8 C151.525,38.1666667 150.6,38.35 149.6,38.35 Z M149.6,37.2 C150.433333,37.2 151.208333,37.0416667 151.925,36.725 C152.641667,36.4083333 153.266667,35.9833333 153.8,35.45 C154.333333,34.9166667 154.758333,34.2916667 155.075,33.575 C155.391667,32.8583333 155.55,32.0833333 155.55,31.25 L155.55,31.25 L155.55,25.3 L156.6,25.3 C157.7,25.3 158.725,25.0916667 159.675,24.675 C160.625,24.2583333 161.458333,23.6916667 162.175,22.975 C162.891667,22.2583333 163.458333,21.4166667 163.875,20.45 C164.291667,19.4833333 164.5,18.45 164.5,17.35 L164.5,17.35 L164.5,9.4 C164.5,8.56666667 164.341667,7.79166667 164.025,7.075 C163.708333,6.35833333 163.283333,5.73333333 162.75,5.2 C162.216667,4.66666667 161.591667,4.24166667 160.875,3.925 C160.158333,3.60833333 159.383333,3.45 158.55,3.45 C157.716667,3.45 156.941667,3.60833333 156.225,3.925 C155.508333,4.24166667 154.883333,4.66666667 154.35,5.2 C153.816667,5.73333333 153.391667,6.35833333 153.075,7.075 C152.758333,7.79166667 152.6,8.56666667 152.6,9.4 L152.6,9.4 L152.6,19.3 L146.6,19.3 L146.6,9.4 C146.6,8.56666667 146.441667,7.79166667 146.125,7.075 C145.808333,6.35833333 145.383333,5.73333333 144.85,5.2 C144.316667,4.66666667 143.691667,4.24166667 142.975,3.925 C142.258333,3.60833333 141.483333,3.45 140.65,3.45 C139.816667,3.45 139.041667,3.60833333 138.325,3.925 C137.608333,4.24166667 136.983333,4.66666667 136.45,5.2 C135.916667,5.73333333 135.491667,6.35833333 135.175,7.075 C134.858333,7.79166667 134.7,8.56666667 134.7,9.4 L134.7,9.4 L134.7,17.35 C134.7,18.45 134.908333,19.4833333 135.325,20.45 C135.741667,21.4166667 136.308333,22.2583333 137.025,22.975 C137.741667,23.6916667 138.583333,24.2583333 139.55,24.675 C140.516667,25.0916667 141.55,25.3 142.65,25.3 L142.65,25.3 L143.65,25.3 L143.65,31.25 C143.65,32.0833333 143.808333,32.8583333 144.125,33.575 C144.441667,34.2916667 144.866667,34.9166667 145.4,35.45 C145.933333,35.9833333 146.558333,36.4083333 147.275,36.725 C147.991667,37.0416667 148.766667,37.2 149.6,37.2 Z M155.05,13.15 C154.85,13.1833333 154.666667,13 154.5,12.6 C154.366667,12.2 154.283333,11.625 154.25,10.875 C154.216667,10.125 154.216667,9.43333333 154.25,8.8 C154.283333,8.16666667 154.358333,7.65 154.475,7.25 C154.591667,6.85 154.833333,6.51666667 155.2,6.25 C155.566667,5.98333333 156.016667,5.75833333 156.55,5.575 C157.083333,5.39166667 157.55,5.28333333 157.95,5.25 C158.416667,5.21666667 158.758333,5.275 158.975,5.425 C159.191667,5.575 159.266667,5.73333333 159.2,5.9 C159.166667,6.06666667 159,6.23333333 158.7,6.4 C158.4,6.56666667 158.083333,6.78333333 157.75,7.05 C157.45,7.35 157.166667,7.71666667 156.9,8.15 C156.633333,8.58333333 156.416667,9.06666667 156.25,9.6 C156.083333,10.1333333 155.966667,10.675 155.9,11.225 C155.833333,11.775 155.733333,12.2333333 155.6,12.6 C155.433333,12.9333333 155.25,13.1166667 155.05,13.15 Z M137.15,16.95 C136.95,17.0166667 136.783333,16.7666667 136.65,16.2 C136.583333,15.9 136.525,15.5333333 136.475,15.1 C136.425,14.6666667 136.391667,14.2083333 136.375,13.725 C136.358333,13.2416667 136.35,12.7416667 136.35,12.225 L136.35,10.8 C136.416667,9.9 136.5,9.16666667 136.6,8.6 C136.7,8.03333333 136.933333,7.55 137.3,7.15 C137.666667,6.71666667 138.108333,6.36666667 138.625,6.1 C139.141667,5.83333333 139.616667,5.7 140.05,5.7 C140.516667,5.7 140.858333,5.8 141.075,6 C141.291667,6.2 141.366667,6.41666667 141.3,6.65 C141.266667,6.88333333 141.1,7.10833333 140.8,7.325 C140.5,7.54166667 140.183333,7.86666667 139.85,8.3 C139.15,9.13333333 138.65,10.3333333 138.35,11.9 C138.183333,12.6666667 138.066667,13.45 138,14.25 C137.933333,15.05 137.833333,15.6833333 137.7,16.15 C137.533333,16.6166667 137.35,16.8833333 137.15,16.95 Z M155,16.5 C154.5,16.5 154.25,16.25 154.25,15.75 C154.25,15.25 154.5,15 155,15 C155.5,15 155.75,15.25 155.75,15.75 C155.75,16.25 155.5,16.5 155,16.5 Z M137.1,20.1 C136.6,20.1 136.35,19.8333333 136.35,19.3 C136.35,18.8 136.6,18.55 137.1,18.55 C137.6,18.55 137.85,18.8 137.85,19.3 C137.85,19.8333333 137.6,20.1 137.1,20.1 Z" id="orange" fill="#FD7F2D"></path>
                    <path d="M128.95,42.6 C130.216667,42.6 131.416667,42.3583333 132.55,41.875 C133.683333,41.3916667 134.666667,40.7333333 135.5,39.9 C136.333333,39.0666667 136.991667,38.0833333 137.475,36.95 C137.958333,35.8166667 138.2,34.6166667 138.2,33.35 C138.2,32.0833333 137.958333,30.8916667 137.475,29.775 C136.991667,28.6583333 136.333333,27.6833333 135.5,26.85 L135.5,26.85 L134.6,25.95 C133.733333,24.7166667 132.625,23.725 131.275,22.975 C129.925,22.225 128.433333,21.85 126.8,21.85 L126.8,21.85 L124.3,21.85 L124.3,11.5 C124.3,10.2333333 124.058333,9.04166667 123.575,7.925 C123.091667,6.80833333 122.433333,5.83333333 121.6,5 L121.6,5 L120.7,4.1 C119.833333,2.86666667 118.725,1.875 117.375,1.125 C116.025,0.375 114.533333,2.27373675e-13 112.9,2.27373675e-13 C111.6,2.27373675e-13 110.383333,0.241666667 109.25,0.725 C108.116667,1.20833333 107.125,1.875 106.275,2.725 C105.425,3.575 104.758333,4.56666667 104.275,5.7 C103.791667,6.83333333 103.55,8.05 103.55,9.35 L103.55,9.35 L103.55,31.2 C103.55,32.8333333 103.916667,34.3166667 104.65,35.65 C105.383333,36.9833333 106.366667,38.0833333 107.6,38.95 L107.6,38.95 L108.55,39.9 C109.383333,40.7333333 110.358333,41.3916667 111.475,41.875 C112.591667,42.3583333 113.783333,42.6 115.05,42.6 L115.05,42.6 L128.95,42.6 Z M126.8,38.35 L112.9,38.35 C111.933333,38.35 111.016667,38.1666667 110.15,37.8 C109.283333,37.4333333 108.525,36.925 107.875,36.275 C107.225,35.625 106.716667,34.8666667 106.35,34 C105.983333,33.1333333 105.8,32.2 105.8,31.2 L105.8,31.2 L105.8,9.35 C105.8,8.35 105.983333,7.425 106.35,6.575 C106.716667,5.725 107.225,4.975 107.875,4.325 C108.525,3.675 109.283333,3.16666667 110.15,2.8 C111.016667,2.43333333 111.933333,2.25 112.9,2.25 C113.9,2.25 114.833333,2.43333333 115.7,2.8 C116.566667,3.16666667 117.325,3.675 117.975,4.325 C118.625,4.975 119.133333,5.725 119.5,6.575 C119.866667,7.425 120.05,8.35 120.05,9.35 L120.05,9.35 L120.05,24.1 L126.8,24.1 C127.8,24.1 128.733333,24.2833333 129.6,24.65 C130.466667,25.0166667 131.225,25.525 131.875,26.175 C132.525,26.825 133.033333,27.575 133.4,28.425 C133.766667,29.275 133.95,30.2 133.95,31.2 C133.95,32.2 133.766667,33.1333333 133.4,34 C133.033333,34.8666667 132.525,35.625 131.875,36.275 C131.225,36.925 130.466667,37.4333333 129.6,37.8 C128.733333,38.1666667 127.8,38.35 126.8,38.35 L126.8,38.35 Z M126.8,37.2 C127.633333,37.2 128.408333,37.0416667 129.125,36.725 C129.841667,36.4083333 130.475,35.975 131.025,35.425 C131.575,34.875 132.008333,34.2416667 132.325,33.525 C132.641667,32.8083333 132.8,32.0333333 132.8,31.2 C132.8,30.3666667 132.641667,29.5916667 132.325,28.875 C132.008333,28.1583333 131.575,27.5333333 131.025,27 C130.475,26.4666667 129.841667,26.0416667 129.125,25.725 C128.408333,25.4083333 127.633333,25.25 126.8,25.25 L126.8,25.25 L118.9,25.25 L118.9,9.35 C118.9,8.51666667 118.741667,7.74166667 118.425,7.025 C118.108333,6.30833333 117.675,5.68333333 117.125,5.15 C116.575,4.61666667 115.941667,4.19166667 115.225,3.875 C114.508333,3.55833333 113.733333,3.4 112.9,3.4 C112.1,3.4 111.333333,3.55833333 110.6,3.875 C109.866667,4.19166667 109.233333,4.61666667 108.7,5.15 C108.166667,5.68333333 107.741667,6.30833333 107.425,7.025 C107.108333,7.74166667 106.95,8.51666667 106.95,9.35 L106.95,9.35 L106.95,31.2 C106.95,32.0333333 107.108333,32.8083333 107.425,33.525 C107.741667,34.2416667 108.166667,34.875 108.7,35.425 C109.233333,35.975 109.866667,36.4083333 110.6,36.725 C111.333333,37.0416667 112.1,37.2 112.9,37.2 L112.9,37.2 L126.8,37.2 Z M109.4,16.925 C109.2,16.975 109.016667,16.7166667 108.85,16.15 C108.783333,15.85 108.733333,15.4833333 108.7,15.05 C108.666667,14.6166667 108.641667,14.1583333 108.625,13.675 C108.608333,13.1916667 108.6,12.6916667 108.6,12.175 L108.6,12.175 L108.6,10.75 C108.666667,9.88333333 108.75,9.15833333 108.85,8.575 C108.95,7.99166667 109.183333,7.5 109.55,7.1 C109.916667,6.66666667 110.366667,6.325 110.9,6.075 C111.433333,5.825 111.9,5.7 112.3,5.7 C112.766667,5.66666667 113.116667,5.75 113.35,5.95 C113.583333,6.15 113.666667,6.38333333 113.6,6.65 C113.533333,6.85 113.35,7.05833333 113.05,7.275 C112.75,7.49166667 112.433333,7.81666667 112.1,8.25 C111.8,8.65 111.516667,9.16666667 111.25,9.8 C110.983333,10.4333333 110.766667,11.1333333 110.6,11.9 C110.433333,12.6666667 110.325,13.4416667 110.275,14.225 C110.225,15.0083333 110.116667,15.6333333 109.95,16.1 C109.783333,16.6 109.6,16.875 109.4,16.925 Z M109.35,20.05 C108.85,20.05 108.6,19.8 108.6,19.3 C108.6,18.8 108.85,18.55 109.35,18.55 C109.85,18.55 110.1,18.8 110.1,19.3 C110.1,19.8 109.85,20.05 109.35,20.05 Z M325.7,42.6 C326.966667,42.6 328.158333,42.3583333 329.275,41.875 C330.391667,41.3916667 331.366667,40.7333333 332.2,39.9 C333.033333,39.0666667 333.691667,38.0916667 334.175,36.975 C334.658333,35.8583333 334.9,34.6666667 334.9,33.4 L334.9,33.4 L334.9,29.4 C334.9,27.1 334.166667,25.1166667 332.7,23.45 C333.5,22.6166667 334.066667,21.7333333 334.4,20.8 C334.733333,19.8666667 334.9,18.7666667 334.9,17.5 L334.9,17.5 L334.9,13.5 C334.9,11.9333333 334.6,10.4833333 334,9.15 C333.4,7.81666667 332.6,6.63333333 331.6,5.6 L331.6,5.6 L330.9,4.95 C329.866667,3.45 328.541667,2.25 326.925,1.35 C325.308333,0.45 323.516667,2.27373675e-13 321.55,2.27373675e-13 L321.55,2.27373675e-13 L305.65,2.27373675e-13 C304.35,2.27373675e-13 303.125,0.241666667 301.975,0.725 C300.825,1.20833333 299.825,1.875 298.975,2.725 C298.125,3.575 297.458333,4.56666667 296.975,5.7 C296.491667,6.83333333 296.25,8.05 296.25,9.35 L296.25,9.35 L296.25,31.25 C296.25,32.8833333 296.625,34.3666667 297.375,35.7 C298.125,37.0333333 299.1,38.1166667 300.3,38.95 L300.3,38.95 L301.25,39.9 C302.116667,40.7666667 303.108333,41.4333333 304.225,41.9 C305.341667,42.3666667 306.533333,42.6 307.8,42.6 C309.666667,42.6 311.35,42.1 312.85,41.1 C314.35,40.1 315.466667,38.8 316.2,37.2 C316.5,37.5333333 316.816667,37.8416667 317.15,38.125 C317.483333,38.4083333 317.833333,38.6833333 318.2,38.95 L318.2,38.95 L319.15,39.9 C320.016667,40.7666667 321.008333,41.4333333 322.125,41.9 C323.241667,42.3666667 324.433333,42.6 325.7,42.6 Z M323.55,38.35 C322.55,38.35 321.616667,38.1666667 320.75,37.8 C319.883333,37.4333333 319.125,36.925 318.475,36.275 C317.825,35.625 317.316667,34.875 316.95,34.025 C316.583333,33.175 316.4,32.25 316.4,31.25 L316.4,31.25 L316.4,26.4 L312.75,26.4 L312.75,31.25 C312.75,32.25 312.566667,33.175 312.2,34.025 C311.833333,34.875 311.325,35.625 310.675,36.275 C310.025,36.925 309.275,37.4333333 308.425,37.8 C307.575,38.1666667 306.65,38.35 305.65,38.35 C304.65,38.35 303.716667,38.1666667 302.85,37.8 C301.983333,37.4333333 301.225,36.925 300.575,36.275 C299.925,35.625 299.416667,34.875 299.05,34.025 C298.683333,33.175 298.5,32.25 298.5,31.25 L298.5,31.25 L298.5,9.35 C298.5,8.35 298.683333,7.425 299.05,6.575 C299.416667,5.725 299.925,4.975 300.575,4.325 C301.225,3.675 301.983333,3.16666667 302.85,2.8 C303.716667,2.43333333 304.65,2.25 305.65,2.25 L305.65,2.25 L321.55,2.25 C322.816667,2.25 324,2.48333333 325.1,2.95 C326.2,3.41666667 327.166667,4.06666667 328,4.9 C328.833333,5.73333333 329.483333,6.7 329.95,7.8 C330.416667,8.9 330.65,10.0833333 330.65,11.35 L330.65,11.35 L330.65,15.35 C330.65,16.6166667 330.35,17.7666667 329.75,18.8 C329.15,19.8333333 328.35,20.6666667 327.35,21.3 C328.35,21.9666667 329.15,22.8083333 329.75,23.825 C330.35,24.8416667 330.65,25.9833333 330.65,27.25 L330.65,27.25 L330.65,31.25 C330.65,32.25 330.466667,33.175 330.1,34.025 C329.733333,34.875 329.225,35.625 328.575,36.275 C327.925,36.925 327.175,37.4333333 326.325,37.8 C325.475,38.1666667 324.55,38.35 323.55,38.35 Z M323.55,37.2 C324.383333,37.2 325.158333,37.0416667 325.875,36.725 C326.591667,36.4083333 327.216667,35.9833333 327.75,35.45 C328.283333,34.9166667 328.708333,34.2916667 329.025,33.575 C329.341667,32.8583333 329.5,32.0833333 329.5,31.25 L329.5,31.25 L329.5,27.25 C329.5,26.4166667 329.341667,25.6416667 329.025,24.925 C328.708333,24.2083333 328.283333,23.5833333 327.75,23.05 C327.216667,22.5166667 326.591667,22.0916667 325.875,21.775 C325.158333,21.4583333 324.383333,21.3 323.55,21.3 C324.383333,21.3 325.158333,21.1416667 325.875,20.825 C326.591667,20.5083333 327.216667,20.0833333 327.75,19.55 C328.283333,19.0166667 328.708333,18.3916667 329.025,17.675 C329.341667,16.9583333 329.5,16.1833333 329.5,15.35 L329.5,15.35 L329.5,11.35 C329.5,10.25 329.291667,9.21666667 328.875,8.25 C328.458333,7.28333333 327.891667,6.44166667 327.175,5.725 C326.458333,5.00833333 325.616667,4.44166667 324.65,4.025 C323.683333,3.60833333 322.65,3.4 321.55,3.4 L321.55,3.4 L305.65,3.4 C304.816667,3.4 304.041667,3.55833333 303.325,3.875 C302.608333,4.19166667 301.975,4.61666667 301.425,5.15 C300.875,5.68333333 300.441667,6.30833333 300.125,7.025 C299.808333,7.74166667 299.65,8.51666667 299.65,9.35 L299.65,9.35 L299.65,31.25 C299.65,32.0833333 299.808333,32.8583333 300.125,33.575 C300.441667,34.2916667 300.875,34.9166667 301.425,35.45 C301.975,35.9833333 302.608333,36.4083333 303.325,36.725 C304.041667,37.0416667 304.816667,37.2 305.65,37.2 C306.483333,37.2 307.258333,37.0416667 307.975,36.725 C308.691667,36.4083333 309.316667,35.9833333 309.85,35.45 C310.383333,34.9166667 310.808333,34.2916667 311.125,33.575 C311.441667,32.8583333 311.6,32.0833333 311.6,31.25 L311.6,31.25 L311.6,25.25 L317.55,25.25 L317.55,31.25 C317.55,32.0833333 317.708333,32.8583333 318.025,33.575 C318.341667,34.2916667 318.775,34.9166667 319.325,35.45 C319.875,35.9833333 320.508333,36.4083333 321.225,36.725 C321.941667,37.0416667 322.716667,37.2 323.55,37.2 Z M302.4,20.8 C302.2,20.8666667 302.016667,20.5166667 301.85,19.75 C301.783333,19.3833333 301.733333,18.9083333 301.7,18.325 C301.666667,17.7416667 301.641667,17.125 301.625,16.475 C301.608333,15.825 301.6,15.1583333 301.6,14.475 L301.6,14.475 L301.6,12.55 C301.666667,11.3833333 301.75,10.425 301.85,9.675 C301.95,8.925 302.183333,8.26666667 302.55,7.7 C302.916667,7.13333333 303.366667,6.68333333 303.9,6.35 C304.433333,6.01666667 304.9,5.83333333 305.3,5.8 C305.766667,5.76666667 306.116667,5.9 306.35,6.2 C306.583333,6.5 306.666667,6.78333333 306.6,7.05 C306.533333,7.35 306.35,7.65 306.05,7.95 C305.75,8.25 305.433333,8.68333333 305.1,9.25 C304.8,9.81666667 304.516667,10.5083333 304.25,11.325 C303.983333,12.1416667 303.766667,13.05 303.6,14.05 C303.433333,15.0833333 303.325,16.1166667 303.275,17.15 C303.225,18.1833333 303.116667,19.0333333 302.95,19.7 C302.783333,20.3666667 302.6,20.7333333 302.4,20.8 Z M317.55,19.3 L311.6,19.3 L311.6,15.35 L317.55,15.35 L317.55,19.3 Z M316.4,18.15 L316.4,16.5 L312.75,16.5 L312.75,18.15 L316.4,18.15 Z M302.35,24.95 C301.983333,24.95 301.766667,24.85 301.7,24.65 C301.633333,24.45 301.6,24.2166667 301.6,23.95 C301.6,23.6833333 301.633333,23.45 301.7,23.25 C301.766667,23.05 301.983333,22.95 302.35,22.95 C302.716667,22.95 302.933333,23.05 303,23.25 C303.066667,23.45 303.1,23.6833333 303.1,23.95 C303.1,24.2166667 303.066667,24.45 303,24.65 C302.933333,24.85 302.716667,24.95 302.35,24.95 Z" id="green" fill="#AFE444"></path>
                    <path d="M96.35,42.6 C97.6166667,42.6 98.8166667,42.3583333 99.95,41.875 C101.083333,41.3916667 102.066667,40.7333333 102.9,39.9 C103.733333,39.0666667 104.391667,38.0833333 104.875,36.95 C105.358333,35.8166667 105.6,34.6166667 105.6,33.35 C105.6,32.0833333 105.358333,30.8916667 104.875,29.775 C104.391667,28.6583333 103.733333,27.6833333 102.9,26.85 L102.9,26.85 L102,25.95 C101.133333,24.7166667 100.025,23.725 98.675,22.975 C97.325,22.225 95.8333333,21.85 94.2,21.85 L94.2,21.85 L91.7,21.85 L91.7,11.5 C91.7,10.2333333 91.4583333,9.04166667 90.975,7.925 C90.4916667,6.80833333 89.8333333,5.83333333 89,5 L89,5 L88.1,4.1 C87.2333333,2.86666667 86.125,1.875 84.775,1.125 C83.425,0.375 81.9333333,0 80.3,0 C79,0 77.7833333,0.241666667 76.65,0.725 C75.5166667,1.20833333 74.525,1.875 73.675,2.725 C72.825,3.575 72.1583333,4.56666667 71.675,5.7 C71.1916667,6.83333333 70.95,8.05 70.95,9.35 L70.95,9.35 L70.95,31.2 C70.95,32.8333333 71.3166667,34.3166667 72.05,35.65 C72.7833333,36.9833333 73.7666667,38.0833333 75,38.95 L75,38.95 L75.95,39.9 C76.7833333,40.7333333 77.7583333,41.3916667 78.875,41.875 C79.9916667,42.3583333 81.1833333,42.6 82.45,42.6 L82.45,42.6 L96.35,42.6 Z M94.2,38.35 L80.3,38.35 C79.3333333,38.35 78.4166667,38.1666667 77.55,37.8 C76.6833333,37.4333333 75.925,36.925 75.275,36.275 C74.625,35.625 74.1166667,34.8666667 73.75,34 C73.3833333,33.1333333 73.2,32.2 73.2,31.2 L73.2,31.2 L73.2,9.35 C73.2,8.35 73.3833333,7.425 73.75,6.575 C74.1166667,5.725 74.625,4.975 75.275,4.325 C75.925,3.675 76.6833333,3.16666667 77.55,2.8 C78.4166667,2.43333333 79.3333333,2.25 80.3,2.25 C81.3,2.25 82.2333333,2.43333333 83.1,2.8 C83.9666667,3.16666667 84.725,3.675 85.375,4.325 C86.025,4.975 86.5333333,5.725 86.9,6.575 C87.2666667,7.425 87.45,8.35 87.45,9.35 L87.45,9.35 L87.45,24.1 L94.2,24.1 C95.2,24.1 96.1333333,24.2833333 97,24.65 C97.8666667,25.0166667 98.625,25.525 99.275,26.175 C99.925,26.825 100.433333,27.575 100.8,28.425 C101.166667,29.275 101.35,30.2 101.35,31.2 C101.35,32.2 101.166667,33.1333333 100.8,34 C100.433333,34.8666667 99.925,35.625 99.275,36.275 C98.625,36.925 97.8666667,37.4333333 97,37.8 C96.1333333,38.1666667 95.2,38.35 94.2,38.35 L94.2,38.35 Z M94.2,37.2 C95.0333333,37.2 95.8083333,37.0416667 96.525,36.725 C97.2416667,36.4083333 97.875,35.975 98.425,35.425 C98.975,34.875 99.4083333,34.2416667 99.725,33.525 C100.041667,32.8083333 100.2,32.0333333 100.2,31.2 C100.2,30.3666667 100.041667,29.5916667 99.725,28.875 C99.4083333,28.1583333 98.975,27.5333333 98.425,27 C97.875,26.4666667 97.2416667,26.0416667 96.525,25.725 C95.8083333,25.4083333 95.0333333,25.25 94.2,25.25 L94.2,25.25 L86.3,25.25 L86.3,9.35 C86.3,8.51666667 86.1416667,7.74166667 85.825,7.025 C85.5083333,6.30833333 85.075,5.68333333 84.525,5.15 C83.975,4.61666667 83.3416667,4.19166667 82.625,3.875 C81.9083333,3.55833333 81.1333333,3.4 80.3,3.4 C79.5,3.4 78.7333333,3.55833333 78,3.875 C77.2666667,4.19166667 76.6333333,4.61666667 76.1,5.15 C75.5666667,5.68333333 75.1416667,6.30833333 74.825,7.025 C74.5083333,7.74166667 74.35,8.51666667 74.35,9.35 L74.35,9.35 L74.35,31.2 C74.35,32.0333333 74.5083333,32.8083333 74.825,33.525 C75.1416667,34.2416667 75.5666667,34.875 76.1,35.425 C76.6333333,35.975 77.2666667,36.4083333 78,36.725 C78.7333333,37.0416667 79.5,37.2 80.3,37.2 L80.3,37.2 L94.2,37.2 Z M76.8,16.925 C76.6,16.975 76.4166667,16.7166667 76.25,16.15 C76.1833333,15.85 76.1333333,15.4833333 76.1,15.05 C76.0666667,14.6166667 76.0416667,14.1583333 76.025,13.675 C76.0083333,13.1916667 76,12.6916667 76,12.175 L76,12.175 L76,10.75 C76.0666667,9.88333333 76.15,9.15833333 76.25,8.575 C76.35,7.99166667 76.5833333,7.5 76.95,7.1 C77.3166667,6.66666667 77.7666667,6.325 78.3,6.075 C78.8333333,5.825 79.3,5.7 79.7,5.7 C80.1666667,5.66666667 80.5166667,5.75 80.75,5.95 C80.9833333,6.15 81.0666667,6.38333333 81,6.65 C80.9333333,6.85 80.75,7.05833333 80.45,7.275 C80.15,7.49166667 79.8333333,7.81666667 79.5,8.25 C79.2,8.65 78.9166667,9.16666667 78.65,9.8 C78.3833333,10.4333333 78.1666667,11.1333333 78,11.9 C77.8333333,12.6666667 77.725,13.4416667 77.675,14.225 C77.625,15.0083333 77.5166667,15.6333333 77.35,16.1 C77.1833333,16.6 77,16.875 76.8,16.925 Z M76.75,20.05 C76.25,20.05 76,19.8 76,19.3 C76,18.8 76.25,18.55 76.75,18.55 C77.25,18.55 77.5,18.8 77.5,19.3 C77.5,19.8 77.25,20.05 76.75,20.05 Z M286.85,42.6 C288.116667,42.6 289.308333,42.3583333 290.425,41.875 C291.541667,41.3916667 292.516667,40.7333333 293.35,39.9 C294.183333,39.0666667 294.841667,38.0916667 295.325,36.975 C295.808333,35.8583333 296.05,34.6666667 296.05,33.4 L296.05,33.4 L296.05,17.5 C296.05,15.4 295.658333,13.4333333 294.875,11.6 C294.091667,9.76666667 293,8.15 291.6,6.75 L291.6,6.75 L291,6.15 C289.6,4.28333333 287.833333,2.79166667 285.7,1.675 C283.566667,0.558333333 281.233333,0 278.7,0 L278.7,0 L272.75,0 C270.616667,0 268.616667,0.4 266.75,1.2 C264.883333,2 263.258333,3.09166667 261.875,4.475 C260.491667,5.85833333 259.4,7.48333333 258.6,9.35 C257.8,11.2166667 257.4,13.2166667 257.4,15.35 L257.4,15.35 L257.4,31.25 C257.4,32.8833333 257.775,34.375 258.525,35.725 C259.275,37.075 260.266667,38.1666667 261.5,39 L261.5,39 L262.4,39.9 C263.233333,40.7333333 264.208333,41.3916667 265.325,41.875 C266.441667,42.3583333 267.633333,42.6 268.9,42.6 C270.766667,42.6 272.458333,42.1 273.975,41.1 C275.491667,40.1 276.616667,38.8 277.35,37.2 C277.65,37.5333333 277.966667,37.8416667 278.3,38.125 C278.633333,38.4083333 278.983333,38.6833333 279.35,38.95 L279.35,38.95 L280.3,39.9 C281.166667,40.7666667 282.158333,41.4333333 283.275,41.9 C284.391667,42.3666667 285.583333,42.6 286.85,42.6 Z M284.7,38.35 C283.7,38.35 282.766667,38.1666667 281.9,37.8 C281.033333,37.4333333 280.275,36.925 279.625,36.275 C278.975,35.625 278.466667,34.875 278.1,34.025 C277.733333,33.175 277.55,32.25 277.55,31.25 L277.55,31.25 L277.55,26.4 L273.9,26.4 L273.9,31.25 C273.9,32.25 273.716667,33.175 273.35,34.025 C272.983333,34.875 272.475,35.625 271.825,36.275 C271.175,36.925 270.416667,37.4333333 269.55,37.8 C268.683333,38.1666667 267.75,38.35 266.75,38.35 C265.783333,38.35 264.866667,38.1666667 264,37.8 C263.133333,37.4333333 262.375,36.925 261.725,36.275 C261.075,35.625 260.566667,34.875 260.2,34.025 C259.833333,33.175 259.65,32.25 259.65,31.25 L259.65,31.25 L259.65,15.35 C259.65,13.55 259.991667,11.85 260.675,10.25 C261.358333,8.65 262.291667,7.25833333 263.475,6.075 C264.658333,4.89166667 266.05,3.95833333 267.65,3.275 C269.25,2.59166667 270.95,2.25 272.75,2.25 L272.75,2.25 L278.7,2.25 C280.5,2.25 282.2,2.59166667 283.8,3.275 C285.4,3.95833333 286.791667,4.89166667 287.975,6.075 C289.158333,7.25833333 290.091667,8.65 290.775,10.25 C291.458333,11.85 291.8,13.55 291.8,15.35 L291.8,15.35 L291.8,31.25 C291.8,32.25 291.616667,33.175 291.25,34.025 C290.883333,34.875 290.375,35.625 289.725,36.275 C289.075,36.925 288.316667,37.4333333 287.45,37.8 C286.583333,38.1666667 285.666667,38.35 284.7,38.35 Z M284.7,37.2 C285.5,37.2 286.266667,37.0416667 287,36.725 C287.733333,36.4083333 288.366667,35.9833333 288.9,35.45 C289.433333,34.9166667 289.858333,34.2916667 290.175,33.575 C290.491667,32.8583333 290.65,32.0833333 290.65,31.25 L290.65,31.25 L290.65,15.35 C290.65,13.7166667 290.333333,12.1666667 289.7,10.7 C289.066667,9.23333333 288.216667,7.96666667 287.15,6.9 C286.083333,5.83333333 284.816667,4.98333333 283.35,4.35 C281.883333,3.71666667 280.333333,3.4 278.7,3.4 L278.7,3.4 L272.75,3.4 C271.083333,3.4 269.525,3.71666667 268.075,4.35 C266.625,4.98333333 265.366667,5.83333333 264.3,6.9 C263.233333,7.96666667 262.383333,9.23333333 261.75,10.7 C261.116667,12.1666667 260.8,13.7166667 260.8,15.35 L260.8,15.35 L260.8,31.25 C260.8,32.0833333 260.958333,32.8583333 261.275,33.575 C261.591667,34.2916667 262.016667,34.9166667 262.55,35.45 C263.083333,35.9833333 263.716667,36.4083333 264.45,36.725 C265.183333,37.0416667 265.95,37.2 266.75,37.2 C267.583333,37.2 268.358333,37.0416667 269.075,36.725 C269.791667,36.4083333 270.425,35.9833333 270.975,35.45 C271.525,34.9166667 271.958333,34.2916667 272.275,33.575 C272.591667,32.8583333 272.75,32.0833333 272.75,31.25 L272.75,31.25 L272.75,25.25 L278.7,25.25 L278.7,31.25 C278.7,32.0833333 278.858333,32.8583333 279.175,33.575 C279.491667,34.2916667 279.925,34.9166667 280.475,35.45 C281.025,35.9833333 281.658333,36.4083333 282.375,36.725 C283.091667,37.0416667 283.866667,37.2 284.7,37.2 Z M263.4,20.475 C263.166667,20.6916667 262.966667,20.7166667 262.8,20.55 C262.633333,20.35 262.516667,19.975 262.45,19.425 C262.383333,18.875 262.35,18.25 262.35,17.55 C262.383333,16.8833333 262.425,16.1666667 262.475,15.4 C262.525,14.6333333 262.633333,13.8333333 262.8,13 C262.966667,12.1666667 263.2,11.35 263.5,10.55 C263.8,9.75 264.25,9.03333333 264.85,8.4 C265.416667,7.76666667 266.1,7.28333333 266.9,6.95 C267.7,6.61666667 268.383333,6.4 268.95,6.3 C269.516667,6.23333333 269.916667,6.25833333 270.15,6.375 C270.383333,6.49166667 270.533333,6.63333333 270.6,6.8 C270.666667,6.96666667 270.65,7.13333333 270.55,7.3 C270.45,7.46666667 270.216667,7.7 269.85,8 C269.516667,8.26666667 269.1,8.61666667 268.6,9.05 C268.1,9.48333333 267.616667,9.93333333 267.15,10.4 C266.683333,10.9 266.291667,11.45 265.975,12.05 C265.658333,12.65 265.366667,13.3666667 265.1,14.2 C264.9,15 264.725,15.8666667 264.575,16.8 C264.425,17.7333333 264.25,18.5333333 264.05,19.2 C263.85,19.8333333 263.633333,20.2583333 263.4,20.475 Z M278.7,19.3 L272.75,19.3 L272.75,15.35 L278.7,15.35 L278.7,19.3 Z M277.55,18.15 L277.55,16.5 L273.9,16.5 L273.9,18.15 L277.55,18.15 Z M263.1,23.95 C262.566667,23.95 262.3,23.6666667 262.3,23.1 C262.3,22.5666667 262.566667,22.3 263.1,22.3 C263.666667,22.3 263.95,22.5666667 263.95,23.1 C263.95,23.6666667 263.666667,23.95 263.1,23.95 Z" id="pink" fill="#FF65AC"></path>
                    <path d="M64.95,42.6 C67.8833333,42.6 69.9833333,41.9666667 71.25,40.7 C72.5166667,39.4333333 73.15,37.3166667 73.15,34.35 C73.15,31.4166667 72.5166667,29.3166667 71.25,28.05 L71.25,28.05 L69.95,26.8 C69.4833333,26.0666667 68.8833333,25.4666667 68.15,25 C68.1833333,24.9 68.2,24.7 68.2,24.4 C68.2,22.5 67.8666667,21.0666667 67.2,20.1 C68.9666667,19.4333333 70.4,18.3333333 71.5,16.8 C72.6,15.2666667 73.15,13.5 73.15,11.5 C73.15,10.2333333 72.9083333,9.04166667 72.425,7.925 C71.9416667,6.80833333 71.2833333,5.83333333 70.45,5 L70.45,5 L69.6,4.15 C68.7333333,2.88333333 67.625,1.875 66.275,1.125 C64.925,0.375 63.4333333,0 61.8,0 L61.8,0 L45.9,0 C44.6,0 43.3833333,0.241666667 42.25,0.725 C41.1166667,1.20833333 40.125,1.875 39.275,2.725 C38.425,3.575 37.7583333,4.56666667 37.275,5.7 C36.7916667,6.83333333 36.55,8.05 36.55,9.35 L36.55,9.35 L36.55,31.2 C36.55,32.8333333 36.925,34.325 37.675,35.675 C38.425,37.025 39.4166667,38.1333333 40.65,39 L40.65,39 L41.55,39.9 C42.3833333,40.7333333 43.3583333,41.3916667 44.475,41.875 C45.5916667,42.3583333 46.7833333,42.6 48.05,42.6 L48.05,42.6 L64.95,42.6 Z M62.8,38.35 L45.9,38.35 C44.9,38.35 43.975,38.1666667 43.125,37.8 C42.275,37.4333333 41.525,36.925 40.875,36.275 C40.225,35.625 39.7166667,34.8666667 39.35,34 C38.9833333,33.1333333 38.8,32.2 38.8,31.2 L38.8,31.2 L38.8,9.35 C38.8,8.35 38.9833333,7.425 39.35,6.575 C39.7166667,5.725 40.225,4.975 40.875,4.325 C41.525,3.675 42.275,3.16666667 43.125,2.8 C43.975,2.43333333 44.9,2.25 45.9,2.25 L45.9,2.25 L61.8,2.25 C62.8,2.25 63.725,2.43333333 64.575,2.8 C65.425,3.16666667 66.175,3.675 66.825,4.325 C67.475,4.975 67.9833333,5.725 68.35,6.575 C68.7166667,7.425 68.9,8.35 68.9,9.35 C68.9,10.35 68.7166667,11.275 68.35,12.125 C67.9833333,12.975 67.475,13.725 66.825,14.375 C66.175,15.025 65.425,15.5333333 64.575,15.9 C63.725,16.2666667 62.8,16.45 61.8,16.45 L61.8,16.45 L53,16.45 L53,18.15 L59.85,18.15 C61.35,18.15 62.4083333,18.4583333 63.025,19.075 C63.6416667,19.6916667 63.95,20.75 63.95,22.25 C63.95,24.35 63.2833333,25.6333333 61.95,26.1 L61.95,26.1 L62.8,26.1 C65,26.1 66.5666667,26.5666667 67.5,27.5 C68.4333333,28.4333333 68.9,30 68.9,32.2 C68.9,34.4 68.4333333,35.975 67.5,36.925 C66.5666667,37.875 65,38.35 62.8,38.35 L62.8,38.35 Z M62.8,37.2 C64.5666667,37.2 65.8333333,36.8166667 66.6,36.05 C67.3666667,35.2833333 67.75,34 67.75,32.2 C67.75,30.4333333 67.3666667,29.1666667 66.6,28.4 C65.8333333,27.6333333 64.5666667,27.25 62.8,27.25 L62.8,27.25 L51.85,27.25 L51.85,25.25 L59.85,25.25 C60.9166667,25.25 61.675,25.0166667 62.125,24.55 C62.575,24.0833333 62.8,23.3166667 62.8,22.25 C62.8,21.1833333 62.575,20.425 62.125,19.975 C61.675,19.525 60.9166667,19.3 59.85,19.3 L59.85,19.3 L51.85,19.3 L51.85,15.3 L61.8,15.3 C62.6333333,15.3 63.4083333,15.1416667 64.125,14.825 C64.8416667,14.5083333 65.4666667,14.0833333 66,13.55 C66.5333333,13.0166667 66.9583333,12.3916667 67.275,11.675 C67.5916667,10.9583333 67.75,10.1833333 67.75,9.35 C67.75,8.51666667 67.5916667,7.74166667 67.275,7.025 C66.9583333,6.30833333 66.5333333,5.68333333 66,5.15 C65.4666667,4.61666667 64.8416667,4.19166667 64.125,3.875 C63.4083333,3.55833333 62.6333333,3.4 61.8,3.4 L61.8,3.4 L45.9,3.4 C45.0666667,3.4 44.2916667,3.55833333 43.575,3.875 C42.8583333,4.19166667 42.2333333,4.61666667 41.7,5.15 C41.1666667,5.68333333 40.7416667,6.30833333 40.425,7.025 C40.1083333,7.74166667 39.95,8.51666667 39.95,9.35 L39.95,9.35 L39.95,31.2 C39.95,32.0333333 40.1083333,32.8083333 40.425,33.525 C40.7416667,34.2416667 41.1666667,34.875 41.7,35.425 C42.2333333,35.975 42.8583333,36.4083333 43.575,36.725 C44.2916667,37.0416667 45.0666667,37.2 45.9,37.2 L45.9,37.2 L62.8,37.2 Z M42.4,21.125 C42.2,21.2083333 42.0333333,20.85 41.9,20.05 C41.8333333,19.65 41.775,19.15 41.725,18.55 C41.675,17.95 41.6416667,17.3083333 41.625,16.625 C41.6083333,15.9416667 41.6,15.2416667 41.6,14.525 L41.6,14.525 L41.6,12.5 C41.6666667,11.2333333 41.75,10.2083333 41.85,9.425 C41.95,8.64166667 42.1833333,7.96666667 42.55,7.4 C42.9166667,6.83333333 43.3583333,6.35833333 43.875,5.975 C44.3916667,5.59166667 44.8666667,5.4 45.3,5.4 C45.7666667,5.36666667 46.1083333,5.5 46.325,5.8 C46.5416667,6.1 46.6166667,6.4 46.55,6.7 C46.4833333,7.03333333 46.3083333,7.35833333 46.025,7.675 C45.7416667,7.99166667 45.4333333,8.43333333 45.1,9 C44.7666667,9.56666667 44.475,10.2833333 44.225,11.15 C43.975,12.0166667 43.7666667,12.9833333 43.6,14.05 C43.4333333,15.1166667 43.3166667,16.2083333 43.25,17.325 C43.1833333,18.4416667 43.0666667,19.3333333 42.9,20 C42.7666667,20.6666667 42.6,21.0416667 42.4,21.125 Z M42.35,25.5 C41.9833333,25.5 41.7666667,25.3916667 41.7,25.175 C41.6333333,24.9583333 41.6,24.7166667 41.6,24.45 C41.6,24.15 41.6333333,23.9 41.7,23.7 C41.7666667,23.5 41.9833333,23.4 42.35,23.4 C42.7166667,23.4 42.9333333,23.5 43,23.7 C43.0666667,23.9 43.1,24.15 43.1,24.45 C43.1,24.7166667 43.0666667,24.9583333 43,25.175 C42.9333333,25.3916667 42.7166667,25.5 42.35,25.5 Z M251.5,42.6 C254.433333,42.6 256.533333,41.9666667 257.8,40.7 C259.066667,39.4333333 259.7,37.3166667 259.7,34.35 C259.7,31.4166667 259.066667,29.3166667 257.8,28.05 L257.8,28.05 L256.5,26.8 C256.033333,26.0666667 255.433333,25.4666667 254.7,25 C254.733333,24.9 254.75,24.7 254.75,24.4 C254.75,22.5 254.416667,21.0666667 253.75,20.1 C255.516667,19.4333333 256.95,18.3333333 258.05,16.8 C259.15,15.2666667 259.7,13.5 259.7,11.5 C259.7,10.2333333 259.458333,9.04166667 258.975,7.925 C258.491667,6.80833333 257.833333,5.83333333 257,5 L257,5 L256.15,4.15 C255.283333,2.88333333 254.175,1.875 252.825,1.125 C251.475,0.375 249.983333,0 248.35,0 L248.35,0 L232.45,0 C231.15,0 229.933333,0.241666667 228.8,0.725 C227.666667,1.20833333 226.675,1.875 225.825,2.725 C224.975,3.575 224.308333,4.56666667 223.825,5.7 C223.341667,6.83333333 223.1,8.05 223.1,9.35 L223.1,9.35 L223.1,31.2 C223.1,32.8333333 223.475,34.325 224.225,35.675 C224.975,37.025 225.966667,38.1333333 227.2,39 L227.2,39 L228.1,39.9 C228.933333,40.7333333 229.908333,41.3916667 231.025,41.875 C232.141667,42.3583333 233.333333,42.6 234.6,42.6 L234.6,42.6 L251.5,42.6 Z M249.35,38.35 L232.45,38.35 C231.45,38.35 230.525,38.1666667 229.675,37.8 C228.825,37.4333333 228.075,36.925 227.425,36.275 C226.775,35.625 226.266667,34.8666667 225.9,34 C225.533333,33.1333333 225.35,32.2 225.35,31.2 L225.35,31.2 L225.35,9.35 C225.35,8.35 225.533333,7.425 225.9,6.575 C226.266667,5.725 226.775,4.975 227.425,4.325 C228.075,3.675 228.825,3.16666667 229.675,2.8 C230.525,2.43333333 231.45,2.25 232.45,2.25 L232.45,2.25 L248.35,2.25 C249.35,2.25 250.275,2.43333333 251.125,2.8 C251.975,3.16666667 252.725,3.675 253.375,4.325 C254.025,4.975 254.533333,5.725 254.9,6.575 C255.266667,7.425 255.45,8.35 255.45,9.35 C255.45,10.35 255.266667,11.275 254.9,12.125 C254.533333,12.975 254.025,13.725 253.375,14.375 C252.725,15.025 251.975,15.5333333 251.125,15.9 C250.275,16.2666667 249.35,16.45 248.35,16.45 L248.35,16.45 L239.55,16.45 L239.55,18.15 L246.4,18.15 C247.9,18.15 248.958333,18.4583333 249.575,19.075 C250.191667,19.6916667 250.5,20.75 250.5,22.25 C250.5,24.35 249.833333,25.6333333 248.5,26.1 L248.5,26.1 L249.35,26.1 C251.55,26.1 253.116667,26.5666667 254.05,27.5 C254.983333,28.4333333 255.45,30 255.45,32.2 C255.45,34.4 254.983333,35.975 254.05,36.925 C253.116667,37.875 251.55,38.35 249.35,38.35 L249.35,38.35 Z M249.35,37.2 C251.116667,37.2 252.383333,36.8166667 253.15,36.05 C253.916667,35.2833333 254.3,34 254.3,32.2 C254.3,30.4333333 253.916667,29.1666667 253.15,28.4 C252.383333,27.6333333 251.116667,27.25 249.35,27.25 L249.35,27.25 L238.4,27.25 L238.4,25.25 L246.4,25.25 C247.466667,25.25 248.225,25.0166667 248.675,24.55 C249.125,24.0833333 249.35,23.3166667 249.35,22.25 C249.35,21.1833333 249.125,20.425 248.675,19.975 C248.225,19.525 247.466667,19.3 246.4,19.3 L246.4,19.3 L238.4,19.3 L238.4,15.3 L248.35,15.3 C249.183333,15.3 249.958333,15.1416667 250.675,14.825 C251.391667,14.5083333 252.016667,14.0833333 252.55,13.55 C253.083333,13.0166667 253.508333,12.3916667 253.825,11.675 C254.141667,10.9583333 254.3,10.1833333 254.3,9.35 C254.3,8.51666667 254.141667,7.74166667 253.825,7.025 C253.508333,6.30833333 253.083333,5.68333333 252.55,5.15 C252.016667,4.61666667 251.391667,4.19166667 250.675,3.875 C249.958333,3.55833333 249.183333,3.4 248.35,3.4 L248.35,3.4 L232.45,3.4 C231.616667,3.4 230.841667,3.55833333 230.125,3.875 C229.408333,4.19166667 228.783333,4.61666667 228.25,5.15 C227.716667,5.68333333 227.291667,6.30833333 226.975,7.025 C226.658333,7.74166667 226.5,8.51666667 226.5,9.35 L226.5,9.35 L226.5,31.2 C226.5,32.0333333 226.658333,32.8083333 226.975,33.525 C227.291667,34.2416667 227.716667,34.875 228.25,35.425 C228.783333,35.975 229.408333,36.4083333 230.125,36.725 C230.841667,37.0416667 231.616667,37.2 232.45,37.2 L232.45,37.2 L249.35,37.2 Z M228.95,21.125 C228.75,21.2083333 228.583333,20.85 228.45,20.05 C228.383333,19.65 228.325,19.15 228.275,18.55 C228.225,17.95 228.191667,17.3083333 228.175,16.625 C228.158333,15.9416667 228.15,15.2416667 228.15,14.525 L228.15,14.525 L228.15,12.5 C228.216667,11.2333333 228.3,10.2083333 228.4,9.425 C228.5,8.64166667 228.733333,7.96666667 229.1,7.4 C229.466667,6.83333333 229.908333,6.35833333 230.425,5.975 C230.941667,5.59166667 231.416667,5.4 231.85,5.4 C232.316667,5.36666667 232.658333,5.5 232.875,5.8 C233.091667,6.1 233.166667,6.4 233.1,6.7 C233.033333,7.03333333 232.858333,7.35833333 232.575,7.675 C232.291667,7.99166667 231.983333,8.43333333 231.65,9 C231.316667,9.56666667 231.025,10.2833333 230.775,11.15 C230.525,12.0166667 230.316667,12.9833333 230.15,14.05 C229.983333,15.1166667 229.866667,16.2083333 229.8,17.325 C229.733333,18.4416667 229.616667,19.3333333 229.45,20 C229.316667,20.6666667 229.15,21.0416667 228.95,21.125 Z M228.9,25.5 C228.533333,25.5 228.316667,25.3916667 228.25,25.175 C228.183333,24.9583333 228.15,24.7166667 228.15,24.45 C228.15,24.15 228.183333,23.9 228.25,23.7 C228.316667,23.5 228.533333,23.4 228.9,23.4 C229.266667,23.4 229.483333,23.5 229.55,23.7 C229.616667,23.9 229.65,24.15 229.65,24.45 C229.65,24.7166667 229.616667,24.9583333 229.55,25.175 C229.483333,25.3916667 229.266667,25.5 228.9,25.5 Z" id="yellow" fill="#EAE03F"></path>
                    <path d="M23.45,42.6 C25.55,42.6 27.5166667,42.2 29.35,41.4 C31.1833333,40.6 32.7916667,39.5166667 34.175,38.15 C35.5583333,36.7833333 36.65,35.175 37.45,33.325 C38.25,31.475 38.65,29.5 38.65,27.4 L38.65,11.5 C38.65,10.2333333 38.4083333,9.04166667 37.925,7.925 C37.4416667,6.80833333 36.7833333,5.83333333 35.95,5 L35.05,4.1 C34.1833333,2.86666667 33.075,1.875 31.725,1.125 C30.375,0.375 28.8833333,0 27.25,0 C25.95,0 24.7333333,0.241666667 23.6,0.725 C22.4666667,1.20833333 21.475,1.875 20.625,2.725 C19.775,3.575 19.1083333,4.56666667 18.625,5.7 C18.1416667,6.83333333 17.9,8.05 17.9,9.35 L17.9,16.8 L17.05,15.95 C16.1833333,14.75 15.0833333,13.7833333 13.75,13.05 C12.4166667,12.3166667 10.95,11.95 9.35,11.95 C8.05,11.95 6.83333333,12.1916667 5.7,12.675 C4.56666667,13.1583333 3.575,13.825 2.725,14.675 C1.875,15.525 1.20833333,16.5166667 0.725,17.65 C0.241666667,18.7833333 0,20 0,21.3 L0,25.25 C0,27.7833333 0.55,30.1166667 1.65,32.25 C2.75,34.3833333 4.25,36.15 6.15,37.55 L6.75,38.15 C8.15,39.55 9.76666667,40.6416667 11.6,41.425 C13.4333333,42.2083333 15.4,42.6 17.5,42.6 L23.45,42.6 Z M15.35,38.35 C13.55,38.35 11.85,38.0083333 10.25,37.325 C8.65,36.6416667 7.25833333,35.7083333 6.075,34.525 C4.89166667,33.3416667 3.95833333,31.95 3.275,30.35 C2.59166667,28.75 2.25,27.05 2.25,25.25 L2.25,21.3 C2.25,20.3 2.43333333,19.375 2.8,18.525 C3.16666667,17.675 3.675,16.925 4.325,16.275 C4.975,15.625 5.725,15.1166667 6.575,14.75 C7.425,14.3833333 8.35,14.2 9.35,14.2 C10.35,14.2 11.2833333,14.3833333 12.15,14.75 C13.0166667,15.1166667 13.775,15.625 14.425,16.275 C15.075,16.925 15.5833333,17.675 15.95,18.525 C16.3166667,19.375 16.5,20.3 16.5,21.3 L16.5,24.1 L20.15,24.1 L20.15,9.35 C20.15,8.35 20.3333333,7.425 20.7,6.575 C21.0666667,5.725 21.575,4.975 22.225,4.325 C22.875,3.675 23.625,3.16666667 24.475,2.8 C25.325,2.43333333 26.25,2.25 27.25,2.25 C28.25,2.25 29.1833333,2.43333333 30.05,2.8 C30.9166667,3.16666667 31.675,3.675 32.325,4.325 C32.975,4.975 33.4833333,5.725 33.85,6.575 C34.2166667,7.425 34.4,8.35 34.4,9.35 L34.4,25.25 C34.4,27.05 34.0583333,28.75 33.375,30.35 C32.6916667,31.95 31.75,33.3416667 30.55,34.525 C29.35,35.7083333 27.9583333,36.6416667 26.375,37.325 C24.7916667,38.0083333 23.1,38.35 21.3,38.35 L15.35,38.35 Z M21.3,37.2 C22.9333333,37.2 24.475,36.8833333 25.925,36.25 C27.375,35.6166667 28.6416667,34.7666667 29.725,33.7 C30.8083333,32.6333333 31.6666667,31.375 32.3,29.925 C32.9333333,28.475 33.25,26.9166667 33.25,25.25 L33.25,9.35 C33.25,8.51666667 33.0916667,7.74166667 32.775,7.025 C32.4583333,6.30833333 32.025,5.68333333 31.475,5.15 C30.925,4.61666667 30.2916667,4.19166667 29.575,3.875 C28.8583333,3.55833333 28.0833333,3.4 27.25,3.4 C26.4166667,3.4 25.6416667,3.55833333 24.925,3.875 C24.2083333,4.19166667 23.5833333,4.61666667 23.05,5.15 C22.5166667,5.68333333 22.0916667,6.30833333 21.775,7.025 C21.4583333,7.74166667 21.3,8.51666667 21.3,9.35 L21.3,25.25 L15.35,25.25 L15.35,21.3 C15.35,20.4666667 15.1916667,19.6916667 14.875,18.975 C14.5583333,18.2583333 14.125,17.6333333 13.575,17.1 C13.025,16.5666667 12.3916667,16.1416667 11.675,15.825 C10.9583333,15.5083333 10.1833333,15.35 9.35,15.35 C8.51666667,15.35 7.74166667,15.5083333 7.025,15.825 C6.30833333,16.1416667 5.68333333,16.5666667 5.15,17.1 C4.61666667,17.6333333 4.19166667,18.2583333 3.875,18.975 C3.55833333,19.6916667 3.4,20.4666667 3.4,21.3 L3.4,25.25 C3.4,26.9166667 3.71666667,28.475 4.35,29.925 C4.98333333,31.375 5.83333333,32.6333333 6.9,33.7 C7.96666667,34.7666667 9.225,35.6166667 10.675,36.25 C12.125,36.8833333 13.6833333,37.2 15.35,37.2 L21.3,37.2 Z M23.6,10.9 C23.2,11.2666667 22.95,11.15 22.85,10.55 C22.7833333,10.2166667 22.7666667,9.78333333 22.8,9.25 C22.8333333,8.71666667 22.9833333,8.2 23.25,7.7 C23.5166667,7.2 23.8833333,6.775 24.35,6.425 C24.8166667,6.075 25.2333333,5.81666667 25.6,5.65 C25.9666667,5.48333333 26.275,5.41666667 26.525,5.45 C26.775,5.48333333 26.9833333,5.56666667 27.15,5.7 C27.3166667,5.83333333 27.4333333,6.00833333 27.5,6.225 C27.5666667,6.44166667 27.5,6.68333333 27.3,6.95 C27.1,7.21666667 26.7916667,7.5 26.375,7.8 C25.9583333,8.1 25.5666667,8.43333333 25.2,8.8 C24.8333333,9.16666667 24.5166667,9.55 24.25,9.95 C23.9833333,10.35 23.7666667,10.6666667 23.6,10.9 Z M23.3,13.95 C22.8,13.95 22.55,13.7 22.55,13.2 C22.55,12.7 22.8,12.45 23.3,12.45 C23.8,12.45 24.05,12.7 24.05,13.2 C24.05,13.7 23.8,13.95 23.3,13.95 Z M5.85,25.75 C5.65,25.7833333 5.46666667,25.5833333 5.3,25.15 C5.16666667,24.7166667 5.08333333,24.0833333 5.05,23.25 C5.01666667,22.4166667 5.01666667,21.6666667 5.05,21 C5.11666667,20.3 5.2,19.7333333 5.3,19.3 C5.4,18.8666667 5.63333333,18.4833333 6,18.15 C6.36666667,17.85 6.80833333,17.6 7.325,17.4 C7.84166667,17.2 8.33333333,17.0833333 8.8,17.05 C9.23333333,17.05 9.56666667,17.1416667 9.8,17.325 C10.0333333,17.5083333 10.1166667,17.6833333 10.05,17.85 C9.98333333,18.0166667 9.8,18.1833333 9.5,18.35 C9.2,18.5166667 8.88333333,18.75 8.55,19.05 C7.85,19.75 7.35,20.6833333 7.05,21.85 C6.88333333,22.4166667 6.775,23.0083333 6.725,23.625 C6.675,24.2416667 6.56666667,24.7333333 6.4,25.1 C6.23333333,25.5 6.05,25.7166667 5.85,25.75 Z M5.8,28.15 C5.56666667,28.15 5.38333333,28.1166667 5.25,28.05 C5.11666667,27.9833333 5.05,27.8166667 5.05,27.55 C5.05,27.2833333 5.11666667,27.125 5.25,27.075 C5.38333333,27.025 5.56666667,27 5.8,27 C6.03333333,27 6.21666667,27.025 6.35,27.075 C6.48333333,27.125 6.55,27.2833333 6.55,27.55 C6.55,27.8166667 6.48333333,27.9833333 6.35,28.05 C6.21666667,28.1166667 6.03333333,28.15 5.8,28.15 Z M214.05,42.6 C215.583333,42.6 217.033333,42.3083333 218.4,41.725 C219.766667,41.1416667 220.958333,40.3416667 221.975,39.325 C222.991667,38.3083333 223.791667,37.1166667 224.375,35.75 C224.958333,34.3833333 225.25,32.9333333 225.25,31.4 L225.25,29.4 C225.25,28.3 225.041667,27.2333333 224.625,26.2 C224.208333,25.1666667 223.666667,24.2666667 223,23.5 C223.8,22.6666667 224.375,21.7666667 224.725,20.8 C225.075,19.8333333 225.25,18.7166667 225.25,17.45 L225.25,13.45 C225.25,11.9166667 224.958333,10.475 224.375,9.125 C223.791667,7.775 223,6.6 222,5.6 L221.2,4.8 C220.166667,3.33333333 218.841667,2.16666667 217.225,1.3 C215.608333,0.433333333 213.833333,0 211.9,0 L196,0 C194.7,0 193.475,0.241666667 192.325,0.725 C191.175,1.20833333 190.175,1.875 189.325,2.725 C188.475,3.575 187.808333,4.56666667 187.325,5.7 C186.841667,6.83333333 186.6,8.05 186.6,9.35 L186.6,31.2 C186.6,32.8 186.966667,34.2666667 187.7,35.6 C188.433333,36.9333333 189.4,38.0333333 190.6,38.9 L191.6,39.9 C192.433333,40.7666667 193.416667,41.4333333 194.55,41.9 C195.683333,42.3666667 196.883333,42.6 198.15,42.6 L214.05,42.6 Z M196,38.35 C195,38.35 194.066667,38.1666667 193.2,37.8 C192.333333,37.4333333 191.575,36.925 190.925,36.275 C190.275,35.625 189.766667,34.8666667 189.4,34 C189.033333,33.1333333 188.85,32.2 188.85,31.2 L188.85,9.35 C188.85,8.35 189.033333,7.425 189.4,6.575 C189.766667,5.725 190.275,4.975 190.925,4.325 C191.575,3.675 192.333333,3.16666667 193.2,2.8 C194.066667,2.43333333 195,2.25 196,2.25 L211.9,2.25 C213.166667,2.25 214.35,2.48333333 215.45,2.95 C216.55,3.41666667 217.516667,4.06666667 218.35,4.9 C219.183333,5.73333333 219.833333,6.7 220.3,7.8 C220.766667,8.9 221,10.0666667 221,11.3 L221,15.3 C221,16.5666667 220.7,17.725 220.1,18.775 C219.5,19.825 218.7,20.6666667 217.7,21.3 C218.666667,21.9333333 219.458333,22.7666667 220.075,23.8 C220.691667,24.8333333 221,25.9833333 221,27.25 L221,29.25 C221,30.5166667 220.766667,31.7 220.3,32.8 C219.833333,33.9 219.183333,34.8583333 218.35,35.675 C217.516667,36.4916667 216.55,37.1416667 215.45,37.625 C214.35,38.1083333 213.166667,38.35 211.9,38.35 L196,38.35 Z M211.9,37.2 C213,37.2 214.033333,36.9916667 215,36.575 C215.966667,36.1583333 216.808333,35.5833333 217.525,34.85 C218.241667,34.1166667 218.808333,33.275 219.225,32.325 C219.641667,31.375 219.85,30.35 219.85,29.25 L219.85,27.25 C219.85,26.4166667 219.691667,25.6416667 219.375,24.925 C219.058333,24.2083333 218.633333,23.5833333 218.1,23.05 C217.566667,22.5166667 216.941667,22.0916667 216.225,21.775 C215.508333,21.4583333 214.733333,21.3 213.9,21.3 C214.733333,21.3 215.508333,21.1416667 216.225,20.825 C216.941667,20.5083333 217.566667,20.075 218.1,19.525 C218.633333,18.975 219.058333,18.3416667 219.375,17.625 C219.691667,16.9083333 219.85,16.1333333 219.85,15.3 L219.85,11.3 C219.85,10.2 219.641667,9.175 219.225,8.225 C218.808333,7.275 218.241667,6.44166667 217.525,5.725 C216.808333,5.00833333 215.966667,4.44166667 215,4.025 C214.033333,3.60833333 213,3.4 211.9,3.4 L196,3.4 C195.166667,3.4 194.391667,3.55833333 193.675,3.875 C192.958333,4.19166667 192.325,4.61666667 191.775,5.15 C191.225,5.68333333 190.791667,6.30833333 190.475,7.025 C190.158333,7.74166667 190,8.51666667 190,9.35 L190,31.2 C190,32.0333333 190.158333,32.8083333 190.475,33.525 C190.791667,34.2416667 191.225,34.875 191.775,35.425 C192.325,35.975 192.958333,36.4083333 193.675,36.725 C194.391667,37.0416667 195.166667,37.2 196,37.2 L211.9,37.2 Z M192.75,20.8 C192.55,20.8666667 192.366667,20.5166667 192.2,19.75 C192.133333,19.3833333 192.083333,18.9083333 192.05,18.325 C192.016667,17.7416667 191.991667,17.125 191.975,16.475 C191.958333,15.825 191.95,15.1583333 191.95,14.475 C191.95,13.7916667 191.966667,13.15 192,12.55 C192.033333,11.3833333 192.1,10.425 192.2,9.675 C192.3,8.925 192.533333,8.26666667 192.9,7.7 C193.266667,7.13333333 193.716667,6.675 194.25,6.325 C194.783333,5.975 195.266667,5.78333333 195.7,5.75 C196.133333,5.75 196.466667,5.89166667 196.7,6.175 C196.933333,6.45833333 197.016667,6.75 196.95,7.05 C196.883333,7.35 196.7,7.64166667 196.4,7.925 C196.1,8.20833333 195.783333,8.63333333 195.45,9.2 C195.15,9.76666667 194.866667,10.4583333 194.6,11.275 C194.333333,12.0916667 194.116667,13.0166667 193.95,14.05 C193.783333,15.05 193.675,16.075 193.625,17.125 C193.575,18.175 193.466667,19.0333333 193.3,19.7 C193.133333,20.3666667 192.95,20.7333333 192.75,20.8 Z M207.9,19.3 L201.95,19.3 L201.95,15.3 L207.9,15.3 L207.9,19.3 Z M206.75,18.15 L206.75,16.45 L203.1,16.45 L203.1,18.15 L206.75,18.15 Z M192.7,24.95 C192.333333,24.95 192.116667,24.85 192.05,24.65 C191.983333,24.45 191.95,24.2 191.95,23.9 C191.95,23.6333333 191.983333,23.4083333 192.05,23.225 C192.116667,23.0416667 192.333333,22.95 192.7,22.95 C193.066667,22.95 193.283333,23.0416667 193.35,23.225 C193.416667,23.4083333 193.45,23.6333333 193.45,23.9 C193.45,24.2 193.416667,24.45 193.35,24.65 C193.283333,24.85 193.066667,24.95 192.7,24.95 Z M207.9,27 L201.95,27 L201.95,23 L207.9,23 L207.9,27 Z M206.75,25.85 L206.75,24.15 L203.1,24.15 L203.1,25.85 L206.75,25.85 Z" id="red" fill="#F23D6D"></path>
                </g>
            </g>
        </g>
    </g>
</svg>