<?xml version="1.0" encoding="UTF-8"?>
<svg width="334px" height="44px" viewBox="0 0 334 44" version="1.1" xmlns="http://www.w3.org/2000/svg" xmlns:xlink="http://www.w3.org/1999/xlink">
    <title>yellow</title>
    <g id="Page-1" stroke="none" stroke-width="1" fill="none" fill-rule="evenodd">
        <g id="Letter" transform="translate(-141.000000, -443.000000)" fill="#EAE03F" fill-rule="nonzero">
            <path d="M165.4,486.4 C167.5,486.4 169.466667,486 171.3,485.2 C173.133333,484.4 174.741667,483.316667 176.125,481.95 C177.508333,480.583333 178.6,478.975 179.4,477.125 C180.2,475.275 180.6,473.3 180.6,471.2 L180.6,455.3 C180.6,454.033333 180.358333,452.841667 179.875,451.725 C179.391667,450.608333 178.733333,449.633333 177.9,448.8 L177,447.9 C176.133333,446.666667 175.025,445.675 173.675,444.925 C172.325,444.175 170.833333,443.8 169.2,443.8 C167.9,443.8 166.683333,444.041667 165.55,444.525 C164.416667,445.008333 163.425,445.675 162.575,446.525 C161.725,447.375 161.058333,448.366667 160.575,449.5 C160.091667,450.633333 159.85,451.85 159.85,453.15 L159.85,460.6 L159,459.75 C158.133333,458.55 157.033333,457.583333 155.7,456.85 C154.366667,456.116667 152.9,455.75 151.3,455.75 C150,455.75 148.783333,455.991667 147.65,456.475 C146.516667,456.958333 145.525,457.625 144.675,458.475 C143.825,459.325 143.158333,460.316667 142.675,461.45 C142.191667,462.583333 141.95,463.8 141.95,465.1 L141.95,469.05 C141.95,471.583333 142.5,473.916667 143.6,476.05 C144.7,478.183333 146.2,479.95 148.1,481.35 L148.7,481.95 C150.1,483.35 151.716667,484.441667 153.55,485.225 C155.383333,486.008333 157.35,486.4 159.45,486.4 L165.4,486.4 Z M157.3,482.15 C155.5,482.15 153.8,481.808333 152.2,481.125 C150.6,480.441667 149.208333,479.508333 148.025,478.325 C146.841667,477.141667 145.908333,475.75 145.225,474.15 C144.541667,472.55 144.2,470.85 144.2,469.05 L144.2,465.1 C144.2,464.1 144.383333,463.175 144.75,462.325 C145.116667,461.475 145.625,460.725 146.275,460.075 C146.925,459.425 147.675,458.916667 148.525,458.55 C149.375,458.183333 150.3,458 151.3,458 C152.3,458 153.233333,458.183333 154.1,458.55 C154.966667,458.916667 155.725,459.425 156.375,460.075 C157.025,460.725 157.533333,461.475 157.9,462.325 C158.266667,463.175 158.45,464.1 158.45,465.1 L158.45,467.9 L162.1,467.9 L162.1,453.15 C162.1,452.15 162.283333,451.225 162.65,450.375 C163.016667,449.525 163.525,448.775 164.175,448.125 C164.825,447.475 165.575,446.966667 166.425,446.6 C167.275,446.233333 168.2,446.05 169.2,446.05 C170.2,446.05 171.133333,446.233333 172,446.6 C172.866667,446.966667 173.625,447.475 174.275,448.125 C174.925,448.775 175.433333,449.525 175.8,450.375 C176.166667,451.225 176.35,452.15 176.35,453.15 L176.35,469.05 C176.35,470.85 176.008333,472.55 175.325,474.15 C174.641667,475.75 173.7,477.141667 172.5,478.325 C171.3,479.508333 169.908333,480.441667 168.325,481.125 C166.741667,481.808333 165.05,482.15 163.25,482.15 L157.3,482.15 Z M163.25,481 C164.883333,481 166.425,480.683333 167.875,480.05 C169.325,479.416667 170.591667,478.566667 171.675,477.5 C172.758333,476.433333 173.616667,475.175 174.25,473.725 C174.883333,472.275 175.2,470.716667 175.2,469.05 L175.2,453.15 C175.2,452.316667 175.041667,451.541667 174.725,450.825 C174.408333,450.108333 173.975,449.483333 173.425,448.95 C172.875,448.416667 172.241667,447.991667 171.525,447.675 C170.808333,447.358333 170.033333,447.2 169.2,447.2 C168.366667,447.2 167.591667,447.358333 166.875,447.675 C166.158333,447.991667 165.533333,448.416667 165,448.95 C164.466667,449.483333 164.041667,450.108333 163.725,450.825 C163.408333,451.541667 163.25,452.316667 163.25,453.15 L163.25,469.05 L157.3,469.05 L157.3,465.1 C157.3,464.266667 157.141667,463.491667 156.825,462.775 C156.508333,462.058333 156.075,461.433333 155.525,460.9 C154.975,460.366667 154.341667,459.941667 153.625,459.625 C152.908333,459.308333 152.133333,459.15 151.3,459.15 C150.466667,459.15 149.691667,459.308333 148.975,459.625 C148.258333,459.941667 147.633333,460.366667 147.1,460.9 C146.566667,461.433333 146.141667,462.058333 145.825,462.775 C145.508333,463.491667 145.35,464.266667 145.35,465.1 L145.35,469.05 C145.35,470.716667 145.666667,472.275 146.3,473.725 C146.933333,475.175 147.783333,476.433333 148.85,477.5 C149.916667,478.566667 151.175,479.416667 152.625,480.05 C154.075,480.683333 155.633333,481 157.3,481 L163.25,481 Z M165.55,454.7 C165.15,455.066667 164.9,454.95 164.8,454.35 C164.733333,454.016667 164.716667,453.583333 164.75,453.05 C164.783333,452.516667 164.933333,452 165.2,451.5 C165.466667,451 165.833333,450.575 166.3,450.225 C166.766667,449.875 167.183333,449.616667 167.55,449.45 C167.916667,449.283333 168.225,449.216667 168.475,449.25 C168.725,449.283333 168.933333,449.366667 169.1,449.5 C169.266667,449.633333 169.383333,449.808333 169.45,450.025 C169.516667,450.241667 169.45,450.483333 169.25,450.75 C169.05,451.016667 168.741667,451.3 168.325,451.6 C167.908333,451.9 167.516667,452.233333 167.15,452.6 C166.783333,452.966667 166.466667,453.35 166.2,453.75 C165.933333,454.15 165.716667,454.466667 165.55,454.7 Z M165.25,457.75 C164.75,457.75 164.5,457.5 164.5,457 C164.5,456.5 164.75,456.25 165.25,456.25 C165.75,456.25 166,456.5 166,457 C166,457.5 165.75,457.75 165.25,457.75 Z M147.8,469.55 C147.6,469.583333 147.416667,469.383333 147.25,468.95 C147.116667,468.516667 147.033333,467.883333 147,467.05 C146.966667,466.216667 146.966667,465.466667 147,464.8 C147.066667,464.1 147.15,463.533333 147.25,463.1 C147.35,462.666667 147.583333,462.283333 147.95,461.95 C148.316667,461.65 148.758333,461.4 149.275,461.2 C149.791667,461 150.283333,460.883333 150.75,460.85 C151.183333,460.85 151.516667,460.941667 151.75,461.125 C151.983333,461.308333 152.066667,461.483333 152,461.65 C151.933333,461.816667 151.75,461.983333 151.45,462.15 C151.15,462.316667 150.833333,462.55 150.5,462.85 C149.8,463.55 149.3,464.483333 149,465.65 C148.833333,466.216667 148.725,466.808333 148.675,467.425 C148.625,468.041667 148.516667,468.533333 148.35,468.9 C148.183333,469.3 148,469.516667 147.8,469.55 Z M147.75,471.95 C147.516667,471.95 147.333333,471.916667 147.2,471.85 C147.066667,471.783333 147,471.616667 147,471.35 C147,471.083333 147.066667,470.925 147.2,470.875 C147.333333,470.825 147.516667,470.8 147.75,470.8 C147.983333,470.8 148.166667,470.825 148.3,470.875 C148.433333,470.925 148.5,471.083333 148.5,471.35 C148.5,471.616667 148.433333,471.783333 148.3,471.85 C148.166667,471.916667 147.983333,471.95 147.75,471.95 Z M206.9,486.4 C209.833333,486.4 211.933333,485.766667 213.2,484.5 C214.466667,483.233333 215.1,481.116667 215.1,478.15 C215.1,475.216667 214.466667,473.116667 213.2,471.85 L213.2,471.85 L211.9,470.6 C211.433333,469.866667 210.833333,469.266667 210.1,468.8 C210.133333,468.7 210.15,468.5 210.15,468.2 C210.15,466.3 209.816667,464.866667 209.15,463.9 C210.916667,463.233333 212.35,462.133333 213.45,460.6 C214.55,459.066667 215.1,457.3 215.1,455.3 C215.1,454.033333 214.858333,452.841667 214.375,451.725 C213.891667,450.608333 213.233333,449.633333 212.4,448.8 L212.4,448.8 L211.55,447.95 C210.683333,446.683333 209.575,445.675 208.225,444.925 C206.875,444.175 205.383333,443.8 203.75,443.8 L203.75,443.8 L187.85,443.8 C186.55,443.8 185.333333,444.041667 184.2,444.525 C183.066667,445.008333 182.075,445.675 181.225,446.525 C180.375,447.375 179.708333,448.366667 179.225,449.5 C178.741667,450.633333 178.5,451.85 178.5,453.15 L178.5,453.15 L178.5,475 C178.5,476.633333 178.875,478.125 179.625,479.475 C180.375,480.825 181.366667,481.933333 182.6,482.8 L182.6,482.8 L183.5,483.7 C184.333333,484.533333 185.308333,485.191667 186.425,485.675 C187.541667,486.158333 188.733333,486.4 190,486.4 L190,486.4 L206.9,486.4 Z M204.75,482.15 L187.85,482.15 C186.85,482.15 185.925,481.966667 185.075,481.6 C184.225,481.233333 183.475,480.725 182.825,480.075 C182.175,479.425 181.666667,478.666667 181.3,477.8 C180.933333,476.933333 180.75,476 180.75,475 L180.75,475 L180.75,453.15 C180.75,452.15 180.933333,451.225 181.3,450.375 C181.666667,449.525 182.175,448.775 182.825,448.125 C183.475,447.475 184.225,446.966667 185.075,446.6 C185.925,446.233333 186.85,446.05 187.85,446.05 L187.85,446.05 L203.75,446.05 C204.75,446.05 205.675,446.233333 206.525,446.6 C207.375,446.966667 208.125,447.475 208.775,448.125 C209.425,448.775 209.933333,449.525 210.3,450.375 C210.666667,451.225 210.85,452.15 210.85,453.15 C210.85,454.15 210.666667,455.075 210.3,455.925 C209.933333,456.775 209.425,457.525 208.775,458.175 C208.125,458.825 207.375,459.333333 206.525,459.7 C205.675,460.066667 204.75,460.25 203.75,460.25 L203.75,460.25 L194.95,460.25 L194.95,461.95 L201.8,461.95 C203.3,461.95 204.358333,462.258333 204.975,462.875 C205.591667,463.491667 205.9,464.55 205.9,466.05 C205.9,468.15 205.233333,469.433333 203.9,469.9 L203.9,469.9 L204.75,469.9 C206.95,469.9 208.516667,470.366667 209.45,471.3 C210.383333,472.233333 210.85,473.8 210.85,476 C210.85,478.2 210.383333,479.775 209.45,480.725 C208.516667,481.675 206.95,482.15 204.75,482.15 L204.75,482.15 Z M204.75,481 C206.516667,481 207.783333,480.616667 208.55,479.85 C209.316667,479.083333 209.7,477.8 209.7,476 C209.7,474.233333 209.316667,472.966667 208.55,472.2 C207.783333,471.433333 206.516667,471.05 204.75,471.05 L204.75,471.05 L193.8,471.05 L193.8,469.05 L201.8,469.05 C202.866667,469.05 203.625,468.816667 204.075,468.35 C204.525,467.883333 204.75,467.116667 204.75,466.05 C204.75,464.983333 204.525,464.225 204.075,463.775 C203.625,463.325 202.866667,463.1 201.8,463.1 L201.8,463.1 L193.8,463.1 L193.8,459.1 L203.75,459.1 C204.583333,459.1 205.358333,458.941667 206.075,458.625 C206.791667,458.308333 207.416667,457.883333 207.95,457.35 C208.483333,456.816667 208.908333,456.191667 209.225,455.475 C209.541667,454.758333 209.7,453.983333 209.7,453.15 C209.7,452.316667 209.541667,451.541667 209.225,450.825 C208.908333,450.108333 208.483333,449.483333 207.95,448.95 C207.416667,448.416667 206.791667,447.991667 206.075,447.675 C205.358333,447.358333 204.583333,447.2 203.75,447.2 L203.75,447.2 L187.85,447.2 C187.016667,447.2 186.241667,447.358333 185.525,447.675 C184.808333,447.991667 184.183333,448.416667 183.65,448.95 C183.116667,449.483333 182.691667,450.108333 182.375,450.825 C182.058333,451.541667 181.9,452.316667 181.9,453.15 L181.9,453.15 L181.9,475 C181.9,475.833333 182.058333,476.608333 182.375,477.325 C182.691667,478.041667 183.116667,478.675 183.65,479.225 C184.183333,479.775 184.808333,480.208333 185.525,480.525 C186.241667,480.841667 187.016667,481 187.85,481 L187.85,481 L204.75,481 Z M184.35,464.925 C184.15,465.008333 183.983333,464.65 183.85,463.85 C183.783333,463.45 183.725,462.95 183.675,462.35 C183.625,461.75 183.591667,461.108333 183.575,460.425 C183.558333,459.741667 183.55,459.041667 183.55,458.325 L183.55,458.325 L183.55,456.3 C183.616667,455.033333 183.7,454.008333 183.8,453.225 C183.9,452.441667 184.133333,451.766667 184.5,451.2 C184.866667,450.633333 185.308333,450.158333 185.825,449.775 C186.341667,449.391667 186.816667,449.2 187.25,449.2 C187.716667,449.166667 188.058333,449.3 188.275,449.6 C188.491667,449.9 188.566667,450.2 188.5,450.5 C188.433333,450.833333 188.258333,451.158333 187.975,451.475 C187.691667,451.791667 187.383333,452.233333 187.05,452.8 C186.716667,453.366667 186.425,454.083333 186.175,454.95 C185.925,455.816667 185.716667,456.783333 185.55,457.85 C185.383333,458.916667 185.266667,460.008333 185.2,461.125 C185.133333,462.241667 185.016667,463.133333 184.85,463.8 C184.716667,464.466667 184.55,464.841667 184.35,464.925 Z M184.3,469.3 C183.933333,469.3 183.716667,469.191667 183.65,468.975 C183.583333,468.758333 183.55,468.516667 183.55,468.25 C183.55,467.95 183.583333,467.7 183.65,467.5 C183.716667,467.3 183.933333,467.2 184.3,467.2 C184.666667,467.2 184.883333,467.3 184.95,467.5 C185.016667,467.7 185.05,467.95 185.05,468.25 C185.05,468.516667 185.016667,468.758333 184.95,468.975 C184.883333,469.191667 184.666667,469.3 184.3,469.3 Z M238.3,486.4 C239.566667,486.4 240.766667,486.158333 241.9,485.675 C243.033333,485.191667 244.016667,484.533333 244.85,483.7 C245.683333,482.866667 246.341667,481.883333 246.825,480.75 C247.308333,479.616667 247.55,478.416667 247.55,477.15 C247.55,475.883333 247.308333,474.691667 246.825,473.575 C246.341667,472.458333 245.683333,471.483333 244.85,470.65 L244.85,470.65 L243.95,469.75 C243.083333,468.516667 241.975,467.525 240.625,466.775 C239.275,466.025 237.783333,465.65 236.15,465.65 L236.15,465.65 L233.65,465.65 L233.65,455.3 C233.65,454.033333 233.408333,452.841667 232.925,451.725 C232.441667,450.608333 231.783333,449.633333 230.95,448.8 L230.95,448.8 L230.05,447.9 C229.183333,446.666667 228.075,445.675 226.725,444.925 C225.375,444.175 223.883333,443.8 222.25,443.8 C220.95,443.8 219.733333,444.041667 218.6,444.525 C217.466667,445.008333 216.475,445.675 215.625,446.525 C214.775,447.375 214.108333,448.366667 213.625,449.5 C213.141667,450.633333 212.9,451.85 212.9,453.15 L212.9,453.15 L212.9,475 C212.9,476.633333 213.266667,478.116667 214,479.45 C214.733333,480.783333 215.716667,481.883333 216.95,482.75 L216.95,482.75 L217.9,483.7 C218.733333,484.533333 219.708333,485.191667 220.825,485.675 C221.941667,486.158333 223.133333,486.4 224.4,486.4 L224.4,486.4 L238.3,486.4 Z M236.15,482.15 L222.25,482.15 C221.283333,482.15 220.366667,481.966667 219.5,481.6 C218.633333,481.233333 217.875,480.725 217.225,480.075 C216.575,479.425 216.066667,478.666667 215.7,477.8 C215.333333,476.933333 215.15,476 215.15,475 L215.15,475 L215.15,453.15 C215.15,452.15 215.333333,451.225 215.7,450.375 C216.066667,449.525 216.575,448.775 217.225,448.125 C217.875,447.475 218.633333,446.966667 219.5,446.6 C220.366667,446.233333 221.283333,446.05 222.25,446.05 C223.25,446.05 224.183333,446.233333 225.05,446.6 C225.916667,446.966667 226.675,447.475 227.325,448.125 C227.975,448.775 228.483333,449.525 228.85,450.375 C229.216667,451.225 229.4,452.15 229.4,453.15 L229.4,453.15 L229.4,467.9 L236.15,467.9 C237.15,467.9 238.083333,468.083333 238.95,468.45 C239.816667,468.816667 240.575,469.325 241.225,469.975 C241.875,470.625 242.383333,471.375 242.75,472.225 C243.116667,473.075 243.3,474 243.3,475 C243.3,476 243.116667,476.933333 242.75,477.8 C242.383333,478.666667 241.875,479.425 241.225,480.075 C240.575,480.725 239.816667,481.233333 238.95,481.6 C238.083333,481.966667 237.15,482.15 236.15,482.15 L236.15,482.15 Z M236.15,481 C236.983333,481 237.758333,480.841667 238.475,480.525 C239.191667,480.208333 239.825,479.775 240.375,479.225 C240.925,478.675 241.358333,478.041667 241.675,477.325 C241.991667,476.608333 242.15,475.833333 242.15,475 C242.15,474.166667 241.991667,473.391667 241.675,472.675 C241.358333,471.958333 240.925,471.333333 240.375,470.8 C239.825,470.266667 239.191667,469.841667 238.475,469.525 C237.758333,469.208333 236.983333,469.05 236.15,469.05 L236.15,469.05 L228.25,469.05 L228.25,453.15 C228.25,452.316667 228.091667,451.541667 227.775,450.825 C227.458333,450.108333 227.025,449.483333 226.475,448.95 C225.925,448.416667 225.291667,447.991667 224.575,447.675 C223.858333,447.358333 223.083333,447.2 222.25,447.2 C221.45,447.2 220.683333,447.358333 219.95,447.675 C219.216667,447.991667 218.583333,448.416667 218.05,448.95 C217.516667,449.483333 217.091667,450.108333 216.775,450.825 C216.458333,451.541667 216.3,452.316667 216.3,453.15 L216.3,453.15 L216.3,475 C216.3,475.833333 216.458333,476.608333 216.775,477.325 C217.091667,478.041667 217.516667,478.675 218.05,479.225 C218.583333,479.775 219.216667,480.208333 219.95,480.525 C220.683333,480.841667 221.45,481 222.25,481 L222.25,481 L236.15,481 Z M218.75,460.725 C218.55,460.775 218.366667,460.516667 218.2,459.95 C218.133333,459.65 218.083333,459.283333 218.05,458.85 C218.016667,458.416667 217.991667,457.958333 217.975,457.475 C217.958333,456.991667 217.95,456.491667 217.95,455.975 L217.95,455.975 L217.95,454.55 C218.016667,453.683333 218.1,452.958333 218.2,452.375 C218.3,451.791667 218.533333,451.3 218.9,450.9 C219.266667,450.466667 219.716667,450.125 220.25,449.875 C220.783333,449.625 221.25,449.5 221.65,449.5 C222.116667,449.466667 222.466667,449.55 222.7,449.75 C222.933333,449.95 223.016667,450.183333 222.95,450.45 C222.883333,450.65 222.7,450.858333 222.4,451.075 C222.1,451.291667 221.783333,451.616667 221.45,452.05 C221.15,452.45 220.866667,452.966667 220.6,453.6 C220.333333,454.233333 220.116667,454.933333 219.95,455.7 C219.783333,456.466667 219.675,457.241667 219.625,458.025 C219.575,458.808333 219.466667,459.433333 219.3,459.9 C219.133333,460.4 218.95,460.675 218.75,460.725 Z M218.7,463.85 C218.2,463.85 217.95,463.6 217.95,463.1 C217.95,462.6 218.2,462.35 218.7,462.35 C219.2,462.35 219.45,462.6 219.45,463.1 C219.45,463.6 219.2,463.85 218.7,463.85 Z M270.9,486.4 C272.166667,486.4 273.366667,486.158333 274.5,485.675 C275.633333,485.191667 276.616667,484.533333 277.45,483.7 C278.283333,482.866667 278.941667,481.883333 279.425,480.75 C279.908333,479.616667 280.15,478.416667 280.15,477.15 C280.15,475.883333 279.908333,474.691667 279.425,473.575 C278.941667,472.458333 278.283333,471.483333 277.45,470.65 L277.45,470.65 L276.55,469.75 C275.683333,468.516667 274.575,467.525 273.225,466.775 C271.875,466.025 270.383333,465.65 268.75,465.65 L268.75,465.65 L266.25,465.65 L266.25,455.3 C266.25,454.033333 266.008333,452.841667 265.525,451.725 C265.041667,450.608333 264.383333,449.633333 263.55,448.8 L263.55,448.8 L262.65,447.9 C261.783333,446.666667 260.675,445.675 259.325,444.925 C257.975,444.175 256.483333,443.8 254.85,443.8 C253.55,443.8 252.333333,444.041667 251.2,444.525 C250.066667,445.008333 249.075,445.675 248.225,446.525 C247.375,447.375 246.708333,448.366667 246.225,449.5 C245.741667,450.633333 245.5,451.85 245.5,453.15 L245.5,453.15 L245.5,475 C245.5,476.633333 245.866667,478.116667 246.6,479.45 C247.333333,480.783333 248.316667,481.883333 249.55,482.75 L249.55,482.75 L250.5,483.7 C251.333333,484.533333 252.308333,485.191667 253.425,485.675 C254.541667,486.158333 255.733333,486.4 257,486.4 L257,486.4 L270.9,486.4 Z M268.75,482.15 L254.85,482.15 C253.883333,482.15 252.966667,481.966667 252.1,481.6 C251.233333,481.233333 250.475,480.725 249.825,480.075 C249.175,479.425 248.666667,478.666667 248.3,477.8 C247.933333,476.933333 247.75,476 247.75,475 L247.75,475 L247.75,453.15 C247.75,452.15 247.933333,451.225 248.3,450.375 C248.666667,449.525 249.175,448.775 249.825,448.125 C250.475,447.475 251.233333,446.966667 252.1,446.6 C252.966667,446.233333 253.883333,446.05 254.85,446.05 C255.85,446.05 256.783333,446.233333 257.65,446.6 C258.516667,446.966667 259.275,447.475 259.925,448.125 C260.575,448.775 261.083333,449.525 261.45,450.375 C261.816667,451.225 262,452.15 262,453.15 L262,453.15 L262,467.9 L268.75,467.9 C269.75,467.9 270.683333,468.083333 271.55,468.45 C272.416667,468.816667 273.175,469.325 273.825,469.975 C274.475,470.625 274.983333,471.375 275.35,472.225 C275.716667,473.075 275.9,474 275.9,475 C275.9,476 275.716667,476.933333 275.35,477.8 C274.983333,478.666667 274.475,479.425 273.825,480.075 C273.175,480.725 272.416667,481.233333 271.55,481.6 C270.683333,481.966667 269.75,482.15 268.75,482.15 L268.75,482.15 Z M268.75,481 C269.583333,481 270.358333,480.841667 271.075,480.525 C271.791667,480.208333 272.425,479.775 272.975,479.225 C273.525,478.675 273.958333,478.041667 274.275,477.325 C274.591667,476.608333 274.75,475.833333 274.75,475 C274.75,474.166667 274.591667,473.391667 274.275,472.675 C273.958333,471.958333 273.525,471.333333 272.975,470.8 C272.425,470.266667 271.791667,469.841667 271.075,469.525 C270.358333,469.208333 269.583333,469.05 268.75,469.05 L268.75,469.05 L260.85,469.05 L260.85,453.15 C260.85,452.316667 260.691667,451.541667 260.375,450.825 C260.058333,450.108333 259.625,449.483333 259.075,448.95 C258.525,448.416667 257.891667,447.991667 257.175,447.675 C256.458333,447.358333 255.683333,447.2 254.85,447.2 C254.05,447.2 253.283333,447.358333 252.55,447.675 C251.816667,447.991667 251.183333,448.416667 250.65,448.95 C250.116667,449.483333 249.691667,450.108333 249.375,450.825 C249.058333,451.541667 248.9,452.316667 248.9,453.15 L248.9,453.15 L248.9,475 C248.9,475.833333 249.058333,476.608333 249.375,477.325 C249.691667,478.041667 250.116667,478.675 250.65,479.225 C251.183333,479.775 251.816667,480.208333 252.55,480.525 C253.283333,480.841667 254.05,481 254.85,481 L254.85,481 L268.75,481 Z M251.35,460.725 C251.15,460.775 250.966667,460.516667 250.8,459.95 C250.733333,459.65 250.683333,459.283333 250.65,458.85 C250.616667,458.416667 250.591667,457.958333 250.575,457.475 C250.558333,456.991667 250.55,456.491667 250.55,455.975 L250.55,455.975 L250.55,454.55 C250.616667,453.683333 250.7,452.958333 250.8,452.375 C250.9,451.791667 251.133333,451.3 251.5,450.9 C251.866667,450.466667 252.316667,450.125 252.85,449.875 C253.383333,449.625 253.85,449.5 254.25,449.5 C254.716667,449.466667 255.066667,449.55 255.3,449.75 C255.533333,449.95 255.616667,450.183333 255.55,450.45 C255.483333,450.65 255.3,450.858333 255,451.075 C254.7,451.291667 254.383333,451.616667 254.05,452.05 C253.75,452.45 253.466667,452.966667 253.2,453.6 C252.933333,454.233333 252.716667,454.933333 252.55,455.7 C252.383333,456.466667 252.275,457.241667 252.225,458.025 C252.175,458.808333 252.066667,459.433333 251.9,459.9 C251.733333,460.4 251.55,460.675 251.35,460.725 Z M251.3,463.85 C250.8,463.85 250.55,463.6 250.55,463.1 C250.55,462.6 250.8,462.35 251.3,462.35 C251.8,462.35 252.05,462.6 252.05,463.1 C252.05,463.6 251.8,463.85 251.3,463.85 Z M293.7,486.4 C294.966667,486.4 296.158333,486.158333 297.275,485.675 C298.391667,485.191667 299.366667,484.533333 300.2,483.7 C301.033333,482.866667 301.691667,481.891667 302.175,480.775 C302.658333,479.658333 302.9,478.466667 302.9,477.2 L302.9,477.2 L302.9,474.3 C304.2,474.066667 305.391667,473.616667 306.475,472.95 C307.558333,472.283333 308.5,471.458333 309.3,470.475 C310.1,469.491667 310.725,468.391667 311.175,467.175 C311.625,465.958333 311.85,464.666667 311.85,463.3 L311.85,463.3 L311.85,455.35 C311.85,454.083333 311.608333,452.891667 311.125,451.775 C310.641667,450.658333 309.983333,449.683333 309.15,448.85 L309.15,448.85 L308.3,448.05 C307.466667,446.783333 306.366667,445.766667 305,445 C303.633333,444.233333 302.133333,443.85 300.5,443.85 C298.533333,443.85 296.775,444.383333 295.225,445.45 C293.675,446.516667 292.55,447.9 291.85,449.6 L291.85,449.6 L291.25,448.85 L290.35,447.95 C289.483333,446.716667 288.383333,445.725 287.05,444.975 C285.716667,444.225 284.233333,443.85 282.6,443.85 C281.3,443.85 280.083333,444.091667 278.95,444.575 C277.816667,445.058333 276.825,445.725 275.975,446.575 C275.125,447.425 274.458333,448.416667 273.975,449.55 C273.491667,450.683333 273.25,451.9 273.25,453.2 L273.25,453.2 L273.25,461.15 C273.25,463.183333 273.7,465.033333 274.6,466.7 C275.5,468.366667 276.716667,469.716667 278.25,470.75 L278.25,470.75 L278.85,471.3 C279.783333,472.3 280.9,473.066667 282.2,473.6 L282.2,473.6 L282.2,475.05 C282.2,476.716667 282.575,478.225 283.325,479.575 C284.075,480.925 285.083333,482.016667 286.35,482.85 L286.35,482.85 L287.2,483.7 C288.033333,484.533333 289.008333,485.191667 290.125,485.675 C291.241667,486.158333 292.433333,486.4 293.7,486.4 Z M291.55,482.15 C290.55,482.15 289.625,481.966667 288.775,481.6 C287.925,481.233333 287.175,480.725 286.525,480.075 C285.875,479.425 285.366667,478.675 285,477.825 C284.633333,476.975 284.45,476.05 284.45,475.05 L284.45,475.05 L284.45,470.25 C283.183333,470.25 282.008333,470.008333 280.925,469.525 C279.841667,469.041667 278.9,468.383333 278.1,467.55 C277.3,466.716667 276.666667,465.758333 276.2,464.675 C275.733333,463.591667 275.5,462.416667 275.5,461.15 L275.5,461.15 L275.5,453.2 C275.5,452.2 275.683333,451.275 276.05,450.425 C276.416667,449.575 276.925,448.825 277.575,448.175 C278.225,447.525 278.975,447.016667 279.825,446.65 C280.675,446.283333 281.6,446.1 282.6,446.1 C283.6,446.1 284.525,446.283333 285.375,446.65 C286.225,447.016667 286.975,447.525 287.625,448.175 C288.275,448.825 288.783333,449.575 289.15,450.425 C289.516667,451.275 289.7,452.2 289.7,453.2 L289.7,453.2 L289.7,461.95 L293.4,461.95 L293.4,453.2 C293.4,452.2 293.583333,451.275 293.95,450.425 C294.316667,449.575 294.825,448.825 295.475,448.175 C296.125,447.525 296.875,447.016667 297.725,446.65 C298.575,446.283333 299.5,446.1 300.5,446.1 C301.5,446.1 302.425,446.283333 303.275,446.65 C304.125,447.016667 304.875,447.525 305.525,448.175 C306.175,448.825 306.683333,449.575 307.05,450.425 C307.416667,451.275 307.6,452.2 307.6,453.2 L307.6,453.2 L307.6,461.15 C307.6,462.416667 307.366667,463.591667 306.9,464.675 C306.433333,465.758333 305.8,466.716667 305,467.55 C304.2,468.383333 303.25,469.041667 302.15,469.525 C301.05,470.008333 299.883333,470.25 298.65,470.25 L298.65,470.25 L298.65,475.05 C298.65,476.05 298.466667,476.975 298.1,477.825 C297.733333,478.675 297.225,479.425 296.575,480.075 C295.925,480.725 295.175,481.233333 294.325,481.6 C293.475,481.966667 292.55,482.15 291.55,482.15 Z M291.55,481 C292.383333,481 293.158333,480.841667 293.875,480.525 C294.591667,480.208333 295.216667,479.783333 295.75,479.25 C296.283333,478.716667 296.708333,478.091667 297.025,477.375 C297.341667,476.658333 297.5,475.883333 297.5,475.05 L297.5,475.05 L297.5,469.1 L298.55,469.1 C299.65,469.1 300.675,468.891667 301.625,468.475 C302.575,468.058333 303.408333,467.491667 304.125,466.775 C304.841667,466.058333 305.408333,465.216667 305.825,464.25 C306.241667,463.283333 306.45,462.25 306.45,461.15 L306.45,461.15 L306.45,453.2 C306.45,452.366667 306.291667,451.591667 305.975,450.875 C305.658333,450.158333 305.233333,449.533333 304.7,449 C304.166667,448.466667 303.541667,448.041667 302.825,447.725 C302.108333,447.408333 301.333333,447.25 300.5,447.25 C299.666667,447.25 298.891667,447.408333 298.175,447.725 C297.458333,448.041667 296.833333,448.466667 296.3,449 C295.766667,449.533333 295.341667,450.158333 295.025,450.875 C294.708333,451.591667 294.55,452.366667 294.55,453.2 L294.55,453.2 L294.55,463.1 L288.55,463.1 L288.55,453.2 C288.55,452.366667 288.391667,451.591667 288.075,450.875 C287.758333,450.158333 287.333333,449.533333 286.8,449 C286.266667,448.466667 285.641667,448.041667 284.925,447.725 C284.208333,447.408333 283.433333,447.25 282.6,447.25 C281.766667,447.25 280.991667,447.408333 280.275,447.725 C279.558333,448.041667 278.933333,448.466667 278.4,449 C277.866667,449.533333 277.441667,450.158333 277.125,450.875 C276.808333,451.591667 276.65,452.366667 276.65,453.2 L276.65,453.2 L276.65,461.15 C276.65,462.25 276.858333,463.283333 277.275,464.25 C277.691667,465.216667 278.258333,466.058333 278.975,466.775 C279.691667,467.491667 280.533333,468.058333 281.5,468.475 C282.466667,468.891667 283.5,469.1 284.6,469.1 L284.6,469.1 L285.6,469.1 L285.6,475.05 C285.6,475.883333 285.758333,476.658333 286.075,477.375 C286.391667,478.091667 286.816667,478.716667 287.35,479.25 C287.883333,479.783333 288.508333,480.208333 289.225,480.525 C289.941667,480.841667 290.716667,481 291.55,481 Z M297,456.95 C296.8,456.983333 296.616667,456.8 296.45,456.4 C296.316667,456 296.233333,455.425 296.2,454.675 C296.166667,453.925 296.166667,453.233333 296.2,452.6 C296.233333,451.966667 296.308333,451.45 296.425,451.05 C296.541667,450.65 296.783333,450.316667 297.15,450.05 C297.516667,449.783333 297.966667,449.558333 298.5,449.375 C299.033333,449.191667 299.5,449.083333 299.9,449.05 C300.366667,449.016667 300.708333,449.075 300.925,449.225 C301.141667,449.375 301.216667,449.533333 301.15,449.7 C301.116667,449.866667 300.95,450.033333 300.65,450.2 C300.35,450.366667 300.033333,450.583333 299.7,450.85 C299.4,451.15 299.116667,451.516667 298.85,451.95 C298.583333,452.383333 298.366667,452.866667 298.2,453.4 C298.033333,453.933333 297.916667,454.475 297.85,455.025 C297.783333,455.575 297.683333,456.033333 297.55,456.4 C297.383333,456.733333 297.2,456.916667 297,456.95 Z M279.1,460.75 C278.9,460.816667 278.733333,460.566667 278.6,460 C278.533333,459.7 278.475,459.333333 278.425,458.9 C278.375,458.466667 278.341667,458.008333 278.325,457.525 C278.308333,457.041667 278.3,456.541667 278.3,456.025 L278.3,454.6 C278.366667,453.7 278.45,452.966667 278.55,452.4 C278.65,451.833333 278.883333,451.35 279.25,450.95 C279.616667,450.516667 280.058333,450.166667 280.575,449.9 C281.091667,449.633333 281.566667,449.5 282,449.5 C282.466667,449.5 282.808333,449.6 283.025,449.8 C283.241667,450 283.316667,450.216667 283.25,450.45 C283.216667,450.683333 283.05,450.908333 282.75,451.125 C282.45,451.341667 282.133333,451.666667 281.8,452.1 C281.1,452.933333 280.6,454.133333 280.3,455.7 C280.133333,456.466667 280.016667,457.25 279.95,458.05 C279.883333,458.85 279.783333,459.483333 279.65,459.95 C279.483333,460.416667 279.3,460.683333 279.1,460.75 Z M296.95,460.3 C296.45,460.3 296.2,460.05 296.2,459.55 C296.2,459.05 296.45,458.8 296.95,458.8 C297.45,458.8 297.7,459.05 297.7,459.55 C297.7,460.05 297.45,460.3 296.95,460.3 Z M279.05,463.9 C278.55,463.9 278.3,463.633333 278.3,463.1 C278.3,462.6 278.55,462.35 279.05,462.35 C279.55,462.35 279.8,462.6 279.8,463.1 C279.8,463.633333 279.55,463.9 279.05,463.9 Z M356,486.4 C357.533333,486.4 358.983333,486.108333 360.35,485.525 C361.716667,484.941667 362.908333,484.141667 363.925,483.125 C364.941667,482.108333 365.741667,480.916667 366.325,479.55 C366.908333,478.183333 367.2,476.733333 367.2,475.2 L367.2,475.2 L367.2,473.2 C367.2,472.1 366.991667,471.033333 366.575,470 C366.158333,468.966667 365.616667,468.066667 364.95,467.3 C365.75,466.466667 366.325,465.566667 366.675,464.6 C367.025,463.633333 367.2,462.516667 367.2,461.25 L367.2,461.25 L367.2,457.25 C367.2,455.716667 366.908333,454.275 366.325,452.925 C365.741667,451.575 364.95,450.4 363.95,449.4 L363.95,449.4 L363.15,448.6 C362.116667,447.133333 360.791667,445.966667 359.175,445.1 C357.558333,444.233333 355.783333,443.8 353.85,443.8 L353.85,443.8 L337.95,443.8 C336.65,443.8 335.425,444.041667 334.275,444.525 C333.125,445.008333 332.125,445.675 331.275,446.525 C330.425,447.375 329.758333,448.366667 329.275,449.5 C328.791667,450.633333 328.55,451.85 328.55,453.15 L328.55,453.15 L328.55,475 C328.55,476.6 328.916667,478.066667 329.65,479.4 C330.383333,480.733333 331.35,481.833333 332.55,482.7 L332.55,482.7 L333.55,483.7 C334.383333,484.566667 335.366667,485.233333 336.5,485.7 C337.633333,486.166667 338.833333,486.4 340.1,486.4 L340.1,486.4 L356,486.4 Z M353.85,482.15 L337.95,482.15 C336.95,482.15 336.016667,481.966667 335.15,481.6 C334.283333,481.233333 333.525,480.725 332.875,480.075 C332.225,479.425 331.716667,478.666667 331.35,477.8 C330.983333,476.933333 330.8,476 330.8,475 L330.8,475 L330.8,453.15 C330.8,452.15 330.983333,451.225 331.35,450.375 C331.716667,449.525 332.225,448.775 332.875,448.125 C333.525,447.475 334.283333,446.966667 335.15,446.6 C336.016667,446.233333 336.95,446.05 337.95,446.05 L337.95,446.05 L353.85,446.05 C355.116667,446.05 356.3,446.283333 357.4,446.75 C358.5,447.216667 359.466667,447.866667 360.3,448.7 C361.133333,449.533333 361.783333,450.5 362.25,451.6 C362.716667,452.7 362.95,453.866667 362.95,455.1 L362.95,455.1 L362.95,459.1 C362.95,460.366667 362.65,461.525 362.05,462.575 C361.45,463.625 360.65,464.466667 359.65,465.1 C360.616667,465.733333 361.408333,466.566667 362.025,467.6 C362.641667,468.633333 362.95,469.783333 362.95,471.05 L362.95,471.05 L362.95,473.05 C362.95,474.316667 362.716667,475.5 362.25,476.6 C361.783333,477.7 361.133333,478.658333 360.3,479.475 C359.466667,480.291667 358.5,480.941667 357.4,481.425 C356.3,481.908333 355.116667,482.15 353.85,482.15 L353.85,482.15 Z M353.85,481 C354.95,481 355.983333,480.791667 356.95,480.375 C357.916667,479.958333 358.758333,479.383333 359.475,478.65 C360.191667,477.916667 360.758333,477.075 361.175,476.125 C361.591667,475.175 361.8,474.15 361.8,473.05 L361.8,473.05 L361.8,471.05 C361.8,470.216667 361.641667,469.441667 361.325,468.725 C361.008333,468.008333 360.583333,467.383333 360.05,466.85 C359.516667,466.316667 358.891667,465.891667 358.175,465.575 C357.458333,465.258333 356.683333,465.1 355.85,465.1 C356.683333,465.1 357.458333,464.941667 358.175,464.625 C358.891667,464.308333 359.516667,463.875 360.05,463.325 C360.583333,462.775 361.008333,462.141667 361.325,461.425 C361.641667,460.708333 361.8,459.933333 361.8,459.1 L361.8,459.1 L361.8,455.1 C361.8,454 361.591667,452.975 361.175,452.025 C360.758333,451.075 360.191667,450.241667 359.475,449.525 C358.758333,448.808333 357.916667,448.241667 356.95,447.825 C355.983333,447.408333 354.95,447.2 353.85,447.2 L353.85,447.2 L337.95,447.2 C337.116667,447.2 336.341667,447.358333 335.625,447.675 C334.908333,447.991667 334.275,448.416667 333.725,448.95 C333.175,449.483333 332.741667,450.108333 332.425,450.825 C332.108333,451.541667 331.95,452.316667 331.95,453.15 L331.95,453.15 L331.95,475 C331.95,475.833333 332.108333,476.608333 332.425,477.325 C332.741667,478.041667 333.175,478.675 333.725,479.225 C334.275,479.775 334.908333,480.208333 335.625,480.525 C336.341667,480.841667 337.116667,481 337.95,481 L337.95,481 L353.85,481 Z M334.7,464.6 C334.5,464.666667 334.316667,464.316667 334.15,463.55 C334.083333,463.183333 334.033333,462.708333 334,462.125 C333.966667,461.541667 333.941667,460.925 333.925,460.275 C333.908333,459.625 333.9,458.958333 333.9,458.275 C333.9,457.591667 333.916667,456.95 333.95,456.35 C333.983333,455.183333 334.05,454.225 334.15,453.475 C334.25,452.725 334.483333,452.066667 334.85,451.5 C335.216667,450.933333 335.666667,450.475 336.2,450.125 C336.733333,449.775 337.216667,449.583333 337.65,449.55 C338.083333,449.55 338.416667,449.691667 338.65,449.975 C338.883333,450.258333 338.966667,450.55 338.9,450.85 C338.833333,451.15 338.65,451.441667 338.35,451.725 C338.05,452.008333 337.733333,452.433333 337.4,453 C337.1,453.566667 336.816667,454.258333 336.55,455.075 C336.283333,455.891667 336.066667,456.816667 335.9,457.85 C335.733333,458.85 335.625,459.875 335.575,460.925 C335.525,461.975 335.416667,462.833333 335.25,463.5 C335.083333,464.166667 334.9,464.533333 334.7,464.6 Z M349.85,463.1 L343.9,463.1 L343.9,459.1 L349.85,459.1 L349.85,463.1 Z M348.7,461.95 L348.7,460.25 L345.05,460.25 L345.05,461.95 L348.7,461.95 Z M334.65,468.75 C334.283333,468.75 334.066667,468.65 334,468.45 C333.933333,468.25 333.9,468 333.9,467.7 C333.9,467.433333 333.933333,467.208333 334,467.025 C334.066667,466.841667 334.283333,466.75 334.65,466.75 C335.016667,466.75 335.233333,466.841667 335.3,467.025 C335.366667,467.208333 335.4,467.433333 335.4,467.7 C335.4,468 335.366667,468.25 335.3,468.45 C335.233333,468.65 335.016667,468.75 334.65,468.75 Z M349.85,470.8 L343.9,470.8 L343.9,466.8 L349.85,466.8 L349.85,470.8 Z M348.7,469.65 L348.7,467.95 L345.05,467.95 L345.05,469.65 L348.7,469.65 Z M393.45,486.4 C396.383333,486.4 398.483333,485.766667 399.75,484.5 C401.016667,483.233333 401.65,481.116667 401.65,478.15 C401.65,475.216667 401.016667,473.116667 399.75,471.85 L399.75,471.85 L398.45,470.6 C397.983333,469.866667 397.383333,469.266667 396.65,468.8 C396.683333,468.7 396.7,468.5 396.7,468.2 C396.7,466.3 396.366667,464.866667 395.7,463.9 C397.466667,463.233333 398.9,462.133333 400,460.6 C401.1,459.066667 401.65,457.3 401.65,455.3 C401.65,454.033333 401.408333,452.841667 400.925,451.725 C400.441667,450.608333 399.783333,449.633333 398.95,448.8 L398.95,448.8 L398.1,447.95 C397.233333,446.683333 396.125,445.675 394.775,444.925 C393.425,444.175 391.933333,443.8 390.3,443.8 L390.3,443.8 L374.4,443.8 C373.1,443.8 371.883333,444.041667 370.75,444.525 C369.616667,445.008333 368.625,445.675 367.775,446.525 C366.925,447.375 366.258333,448.366667 365.775,449.5 C365.291667,450.633333 365.05,451.85 365.05,453.15 L365.05,453.15 L365.05,475 C365.05,476.633333 365.425,478.125 366.175,479.475 C366.925,480.825 367.916667,481.933333 369.15,482.8 L369.15,482.8 L370.05,483.7 C370.883333,484.533333 371.858333,485.191667 372.975,485.675 C374.091667,486.158333 375.283333,486.4 376.55,486.4 L376.55,486.4 L393.45,486.4 Z M391.3,482.15 L374.4,482.15 C373.4,482.15 372.475,481.966667 371.625,481.6 C370.775,481.233333 370.025,480.725 369.375,480.075 C368.725,479.425 368.216667,478.666667 367.85,477.8 C367.483333,476.933333 367.3,476 367.3,475 L367.3,475 L367.3,453.15 C367.3,452.15 367.483333,451.225 367.85,450.375 C368.216667,449.525 368.725,448.775 369.375,448.125 C370.025,447.475 370.775,446.966667 371.625,446.6 C372.475,446.233333 373.4,446.05 374.4,446.05 L374.4,446.05 L390.3,446.05 C391.3,446.05 392.225,446.233333 393.075,446.6 C393.925,446.966667 394.675,447.475 395.325,448.125 C395.975,448.775 396.483333,449.525 396.85,450.375 C397.216667,451.225 397.4,452.15 397.4,453.15 C397.4,454.15 397.216667,455.075 396.85,455.925 C396.483333,456.775 395.975,457.525 395.325,458.175 C394.675,458.825 393.925,459.333333 393.075,459.7 C392.225,460.066667 391.3,460.25 390.3,460.25 L390.3,460.25 L381.5,460.25 L381.5,461.95 L388.35,461.95 C389.85,461.95 390.908333,462.258333 391.525,462.875 C392.141667,463.491667 392.45,464.55 392.45,466.05 C392.45,468.15 391.783333,469.433333 390.45,469.9 L390.45,469.9 L391.3,469.9 C393.5,469.9 395.066667,470.366667 396,471.3 C396.933333,472.233333 397.4,473.8 397.4,476 C397.4,478.2 396.933333,479.775 396,480.725 C395.066667,481.675 393.5,482.15 391.3,482.15 L391.3,482.15 Z M391.3,481 C393.066667,481 394.333333,480.616667 395.1,479.85 C395.866667,479.083333 396.25,477.8 396.25,476 C396.25,474.233333 395.866667,472.966667 395.1,472.2 C394.333333,471.433333 393.066667,471.05 391.3,471.05 L391.3,471.05 L380.35,471.05 L380.35,469.05 L388.35,469.05 C389.416667,469.05 390.175,468.816667 390.625,468.35 C391.075,467.883333 391.3,467.116667 391.3,466.05 C391.3,464.983333 391.075,464.225 390.625,463.775 C390.175,463.325 389.416667,463.1 388.35,463.1 L388.35,463.1 L380.35,463.1 L380.35,459.1 L390.3,459.1 C391.133333,459.1 391.908333,458.941667 392.625,458.625 C393.341667,458.308333 393.966667,457.883333 394.5,457.35 C395.033333,456.816667 395.458333,456.191667 395.775,455.475 C396.091667,454.758333 396.25,453.983333 396.25,453.15 C396.25,452.316667 396.091667,451.541667 395.775,450.825 C395.458333,450.108333 395.033333,449.483333 394.5,448.95 C393.966667,448.416667 393.341667,447.991667 392.625,447.675 C391.908333,447.358333 391.133333,447.2 390.3,447.2 L390.3,447.2 L374.4,447.2 C373.566667,447.2 372.791667,447.358333 372.075,447.675 C371.358333,447.991667 370.733333,448.416667 370.2,448.95 C369.666667,449.483333 369.241667,450.108333 368.925,450.825 C368.608333,451.541667 368.45,452.316667 368.45,453.15 L368.45,453.15 L368.45,475 C368.45,475.833333 368.608333,476.608333 368.925,477.325 C369.241667,478.041667 369.666667,478.675 370.2,479.225 C370.733333,479.775 371.358333,480.208333 372.075,480.525 C372.791667,480.841667 373.566667,481 374.4,481 L374.4,481 L391.3,481 Z M370.9,464.925 C370.7,465.008333 370.533333,464.65 370.4,463.85 C370.333333,463.45 370.275,462.95 370.225,462.35 C370.175,461.75 370.141667,461.108333 370.125,460.425 C370.108333,459.741667 370.1,459.041667 370.1,458.325 L370.1,458.325 L370.1,456.3 C370.166667,455.033333 370.25,454.008333 370.35,453.225 C370.45,452.441667 370.683333,451.766667 371.05,451.2 C371.416667,450.633333 371.858333,450.158333 372.375,449.775 C372.891667,449.391667 373.366667,449.2 373.8,449.2 C374.266667,449.166667 374.608333,449.3 374.825,449.6 C375.041667,449.9 375.116667,450.2 375.05,450.5 C374.983333,450.833333 374.808333,451.158333 374.525,451.475 C374.241667,451.791667 373.933333,452.233333 373.6,452.8 C373.266667,453.366667 372.975,454.083333 372.725,454.95 C372.475,455.816667 372.266667,456.783333 372.1,457.85 C371.933333,458.916667 371.816667,460.008333 371.75,461.125 C371.683333,462.241667 371.566667,463.133333 371.4,463.8 C371.266667,464.466667 371.1,464.841667 370.9,464.925 Z M370.85,469.3 C370.483333,469.3 370.266667,469.191667 370.2,468.975 C370.133333,468.758333 370.1,468.516667 370.1,468.25 C370.1,467.95 370.133333,467.7 370.2,467.5 C370.266667,467.3 370.483333,467.2 370.85,467.2 C371.216667,467.2 371.433333,467.3 371.5,467.5 C371.566667,467.7 371.6,467.95 371.6,468.25 C371.6,468.516667 371.566667,468.758333 371.5,468.975 C371.433333,469.191667 371.216667,469.3 370.85,469.3 Z M428.8,486.4 C430.066667,486.4 431.258333,486.158333 432.375,485.675 C433.491667,485.191667 434.466667,484.533333 435.3,483.7 C436.133333,482.866667 436.791667,481.891667 437.275,480.775 C437.758333,479.658333 438,478.466667 438,477.2 L438,477.2 L438,461.3 C438,459.2 437.608333,457.233333 436.825,455.4 C436.041667,453.566667 434.95,451.95 433.55,450.55 L433.55,450.55 L432.95,449.95 C431.55,448.083333 429.783333,446.591667 427.65,445.475 C425.516667,444.358333 423.183333,443.8 420.65,443.8 L420.65,443.8 L414.7,443.8 C412.566667,443.8 410.566667,444.2 408.7,445 C406.833333,445.8 405.208333,446.891667 403.825,448.275 C402.441667,449.658333 401.35,451.283333 400.55,453.15 C399.75,455.016667 399.35,457.016667 399.35,459.15 L399.35,459.15 L399.35,475.05 C399.35,476.683333 399.725,478.175 400.475,479.525 C401.225,480.875 402.216667,481.966667 403.45,482.8 L403.45,482.8 L404.35,483.7 C405.183333,484.533333 406.158333,485.191667 407.275,485.675 C408.391667,486.158333 409.583333,486.4 410.85,486.4 C412.716667,486.4 414.408333,485.9 415.925,484.9 C417.441667,483.9 418.566667,482.6 419.3,481 C419.6,481.333333 419.916667,481.641667 420.25,481.925 C420.583333,482.208333 420.933333,482.483333 421.3,482.75 L421.3,482.75 L422.25,483.7 C423.116667,484.566667 424.108333,485.233333 425.225,485.7 C426.341667,486.166667 427.533333,486.4 428.8,486.4 Z M426.65,482.15 C425.65,482.15 424.716667,481.966667 423.85,481.6 C422.983333,481.233333 422.225,480.725 421.575,480.075 C420.925,479.425 420.416667,478.675 420.05,477.825 C419.683333,476.975 419.5,476.05 419.5,475.05 L419.5,475.05 L419.5,470.2 L415.85,470.2 L415.85,475.05 C415.85,476.05 415.666667,476.975 415.3,477.825 C414.933333,478.675 414.425,479.425 413.775,480.075 C413.125,480.725 412.366667,481.233333 411.5,481.6 C410.633333,481.966667 409.7,482.15 408.7,482.15 C407.733333,482.15 406.816667,481.966667 405.95,481.6 C405.083333,481.233333 404.325,480.725 403.675,480.075 C403.025,479.425 402.516667,478.675 402.15,477.825 C401.783333,476.975 401.6,476.05 401.6,475.05 L401.6,475.05 L401.6,459.15 C401.6,457.35 401.941667,455.65 402.625,454.05 C403.308333,452.45 404.241667,451.058333 405.425,449.875 C406.608333,448.691667 408,447.758333 409.6,447.075 C411.2,446.391667 412.9,446.05 414.7,446.05 L414.7,446.05 L420.65,446.05 C422.45,446.05 424.15,446.391667 425.75,447.075 C427.35,447.758333 428.741667,448.691667 429.925,449.875 C431.108333,451.058333 432.041667,452.45 432.725,454.05 C433.408333,455.65 433.75,457.35 433.75,459.15 L433.75,459.15 L433.75,475.05 C433.75,476.05 433.566667,476.975 433.2,477.825 C432.833333,478.675 432.325,479.425 431.675,480.075 C431.025,480.725 430.266667,481.233333 429.4,481.6 C428.533333,481.966667 427.616667,482.15 426.65,482.15 Z M426.65,481 C427.45,481 428.216667,480.841667 428.95,480.525 C429.683333,480.208333 430.316667,479.783333 430.85,479.25 C431.383333,478.716667 431.808333,478.091667 432.125,477.375 C432.441667,476.658333 432.6,475.883333 432.6,475.05 L432.6,475.05 L432.6,459.15 C432.6,457.516667 432.283333,455.966667 431.65,454.5 C431.016667,453.033333 430.166667,451.766667 429.1,450.7 C428.033333,449.633333 426.766667,448.783333 425.3,448.15 C423.833333,447.516667 422.283333,447.2 420.65,447.2 L420.65,447.2 L414.7,447.2 C413.033333,447.2 411.475,447.516667 410.025,448.15 C408.575,448.783333 407.316667,449.633333 406.25,450.7 C405.183333,451.766667 404.333333,453.033333 403.7,454.5 C403.066667,455.966667 402.75,457.516667 402.75,459.15 L402.75,459.15 L402.75,475.05 C402.75,475.883333 402.908333,476.658333 403.225,477.375 C403.541667,478.091667 403.966667,478.716667 404.5,479.25 C405.033333,479.783333 405.666667,480.208333 406.4,480.525 C407.133333,480.841667 407.9,481 408.7,481 C409.533333,481 410.308333,480.841667 411.025,480.525 C411.741667,480.208333 412.375,479.783333 412.925,479.25 C413.475,478.716667 413.908333,478.091667 414.225,477.375 C414.541667,476.658333 414.7,475.883333 414.7,475.05 L414.7,475.05 L414.7,469.05 L420.65,469.05 L420.65,475.05 C420.65,475.883333 420.808333,476.658333 421.125,477.375 C421.441667,478.091667 421.875,478.716667 422.425,479.25 C422.975,479.783333 423.608333,480.208333 424.325,480.525 C425.041667,480.841667 425.816667,481 426.65,481 Z M405.35,464.275 C405.116667,464.491667 404.916667,464.516667 404.75,464.35 C404.583333,464.15 404.466667,463.775 404.4,463.225 C404.333333,462.675 404.3,462.05 404.3,461.35 C404.333333,460.683333 404.375,459.966667 404.425,459.2 C404.475,458.433333 404.583333,457.633333 404.75,456.8 C404.916667,455.966667 405.15,455.15 405.45,454.35 C405.75,453.55 406.2,452.833333 406.8,452.2 C407.366667,451.566667 408.05,451.083333 408.85,450.75 C409.65,450.416667 410.333333,450.2 410.9,450.1 C411.466667,450.033333 411.866667,450.058333 412.1,450.175 C412.333333,450.291667 412.483333,450.433333 412.55,450.6 C412.616667,450.766667 412.6,450.933333 412.5,451.1 C412.4,451.266667 412.166667,451.5 411.8,451.8 C411.466667,452.066667 411.05,452.416667 410.55,452.85 C410.05,453.283333 409.566667,453.733333 409.1,454.2 C408.633333,454.7 408.241667,455.25 407.925,455.85 C407.608333,456.45 407.316667,457.166667 407.05,458 C406.85,458.8 406.675,459.666667 406.525,460.6 C406.375,461.533333 406.2,462.333333 406,463 C405.8,463.633333 405.583333,464.058333 405.35,464.275 Z M420.65,463.1 L414.7,463.1 L414.7,459.15 L420.65,459.15 L420.65,463.1 Z M419.5,461.95 L419.5,460.3 L415.85,460.3 L415.85,461.95 L419.5,461.95 Z M405.05,467.75 C404.516667,467.75 404.25,467.466667 404.25,466.9 C404.25,466.366667 404.516667,466.1 405.05,466.1 C405.616667,466.1 405.9,466.366667 405.9,466.9 C405.9,467.466667 405.616667,467.75 405.05,467.75 Z M465.65,486.4 C466.916667,486.4 468.108333,486.158333 469.225,485.675 C470.341667,485.191667 471.316667,484.533333 472.15,483.7 C472.983333,482.866667 473.641667,481.891667 474.125,480.775 C474.608333,479.658333 474.85,478.466667 474.85,477.2 L474.85,477.2 L474.85,473.2 C474.85,470.9 474.116667,468.916667 472.65,467.25 C473.45,466.416667 474.016667,465.533333 474.35,464.6 C474.683333,463.666667 474.85,462.566667 474.85,461.3 L474.85,461.3 L474.85,457.3 C474.85,455.733333 474.55,454.283333 473.95,452.95 C473.35,451.616667 472.55,450.433333 471.55,449.4 L471.55,449.4 L470.85,448.75 C469.816667,447.25 468.491667,446.05 466.875,445.15 C465.258333,444.25 463.466667,443.8 461.5,443.8 L461.5,443.8 L445.6,443.8 C444.3,443.8 443.075,444.041667 441.925,444.525 C440.775,445.008333 439.775,445.675 438.925,446.525 C438.075,447.375 437.408333,448.366667 436.925,449.5 C436.441667,450.633333 436.2,451.85 436.2,453.15 L436.2,453.15 L436.2,475.05 C436.2,476.683333 436.575,478.166667 437.325,479.5 C438.075,480.833333 439.05,481.916667 440.25,482.75 L440.25,482.75 L441.2,483.7 C442.066667,484.566667 443.058333,485.233333 444.175,485.7 C445.291667,486.166667 446.483333,486.4 447.75,486.4 C449.616667,486.4 451.3,485.9 452.8,484.9 C454.3,483.9 455.416667,482.6 456.15,481 C456.45,481.333333 456.766667,481.641667 457.1,481.925 C457.433333,482.208333 457.783333,482.483333 458.15,482.75 L458.15,482.75 L459.1,483.7 C459.966667,484.566667 460.958333,485.233333 462.075,485.7 C463.191667,486.166667 464.383333,486.4 465.65,486.4 Z M463.5,482.15 C462.5,482.15 461.566667,481.966667 460.7,481.6 C459.833333,481.233333 459.075,480.725 458.425,480.075 C457.775,479.425 457.266667,478.675 456.9,477.825 C456.533333,476.975 456.35,476.05 456.35,475.05 L456.35,475.05 L456.35,470.2 L452.7,470.2 L452.7,475.05 C452.7,476.05 452.516667,476.975 452.15,477.825 C451.783333,478.675 451.275,479.425 450.625,480.075 C449.975,480.725 449.225,481.233333 448.375,481.6 C447.525,481.966667 446.6,482.15 445.6,482.15 C444.6,482.15 443.666667,481.966667 442.8,481.6 C441.933333,481.233333 441.175,480.725 440.525,480.075 C439.875,479.425 439.366667,478.675 439,477.825 C438.633333,476.975 438.45,476.05 438.45,475.05 L438.45,475.05 L438.45,453.15 C438.45,452.15 438.633333,451.225 439,450.375 C439.366667,449.525 439.875,448.775 440.525,448.125 C441.175,447.475 441.933333,446.966667 442.8,446.6 C443.666667,446.233333 444.6,446.05 445.6,446.05 L445.6,446.05 L461.5,446.05 C462.766667,446.05 463.95,446.283333 465.05,446.75 C466.15,447.216667 467.116667,447.866667 467.95,448.7 C468.783333,449.533333 469.433333,450.5 469.9,451.6 C470.366667,452.7 470.6,453.883333 470.6,455.15 L470.6,455.15 L470.6,459.15 C470.6,460.416667 470.3,461.566667 469.7,462.6 C469.1,463.633333 468.3,464.466667 467.3,465.1 C468.3,465.766667 469.1,466.608333 469.7,467.625 C470.3,468.641667 470.6,469.783333 470.6,471.05 L470.6,471.05 L470.6,475.05 C470.6,476.05 470.416667,476.975 470.05,477.825 C469.683333,478.675 469.175,479.425 468.525,480.075 C467.875,480.725 467.125,481.233333 466.275,481.6 C465.425,481.966667 464.5,482.15 463.5,482.15 Z M463.5,481 C464.333333,481 465.108333,480.841667 465.825,480.525 C466.541667,480.208333 467.166667,479.783333 467.7,479.25 C468.233333,478.716667 468.658333,478.091667 468.975,477.375 C469.291667,476.658333 469.45,475.883333 469.45,475.05 L469.45,475.05 L469.45,471.05 C469.45,470.216667 469.291667,469.441667 468.975,468.725 C468.658333,468.008333 468.233333,467.383333 467.7,466.85 C467.166667,466.316667 466.541667,465.891667 465.825,465.575 C465.108333,465.258333 464.333333,465.1 463.5,465.1 C464.333333,465.1 465.108333,464.941667 465.825,464.625 C466.541667,464.308333 467.166667,463.883333 467.7,463.35 C468.233333,462.816667 468.658333,462.191667 468.975,461.475 C469.291667,460.758333 469.45,459.983333 469.45,459.15 L469.45,459.15 L469.45,455.15 C469.45,454.05 469.241667,453.016667 468.825,452.05 C468.408333,451.083333 467.841667,450.241667 467.125,449.525 C466.408333,448.808333 465.566667,448.241667 464.6,447.825 C463.633333,447.408333 462.6,447.2 461.5,447.2 L461.5,447.2 L445.6,447.2 C444.766667,447.2 443.991667,447.358333 443.275,447.675 C442.558333,447.991667 441.925,448.416667 441.375,448.95 C440.825,449.483333 440.391667,450.108333 440.075,450.825 C439.758333,451.541667 439.6,452.316667 439.6,453.15 L439.6,453.15 L439.6,475.05 C439.6,475.883333 439.758333,476.658333 440.075,477.375 C440.391667,478.091667 440.825,478.716667 441.375,479.25 C441.925,479.783333 442.558333,480.208333 443.275,480.525 C443.991667,480.841667 444.766667,481 445.6,481 C446.433333,481 447.208333,480.841667 447.925,480.525 C448.641667,480.208333 449.266667,479.783333 449.8,479.25 C450.333333,478.716667 450.758333,478.091667 451.075,477.375 C451.391667,476.658333 451.55,475.883333 451.55,475.05 L451.55,475.05 L451.55,469.05 L457.5,469.05 L457.5,475.05 C457.5,475.883333 457.658333,476.658333 457.975,477.375 C458.291667,478.091667 458.725,478.716667 459.275,479.25 C459.825,479.783333 460.458333,480.208333 461.175,480.525 C461.891667,480.841667 462.666667,481 463.5,481 Z M442.35,464.6 C442.15,464.666667 441.966667,464.316667 441.8,463.55 C441.733333,463.183333 441.683333,462.708333 441.65,462.125 C441.616667,461.541667 441.591667,460.925 441.575,460.275 C441.558333,459.625 441.55,458.958333 441.55,458.275 L441.55,458.275 L441.55,456.35 C441.616667,455.183333 441.7,454.225 441.8,453.475 C441.9,452.725 442.133333,452.066667 442.5,451.5 C442.866667,450.933333 443.316667,450.483333 443.85,450.15 C444.383333,449.816667 444.85,449.633333 445.25,449.6 C445.716667,449.566667 446.066667,449.7 446.3,450 C446.533333,450.3 446.616667,450.583333 446.55,450.85 C446.483333,451.15 446.3,451.45 446,451.75 C445.7,452.05 445.383333,452.483333 445.05,453.05 C444.75,453.616667 444.466667,454.308333 444.2,455.125 C443.933333,455.941667 443.716667,456.85 443.55,457.85 C443.383333,458.883333 443.275,459.916667 443.225,460.95 C443.175,461.983333 443.066667,462.833333 442.9,463.5 C442.733333,464.166667 442.55,464.533333 442.35,464.6 Z M457.5,463.1 L451.55,463.1 L451.55,459.15 L457.5,459.15 L457.5,463.1 Z M456.35,461.95 L456.35,460.3 L452.7,460.3 L452.7,461.95 L456.35,461.95 Z M442.3,468.75 C441.933333,468.75 441.716667,468.65 441.65,468.45 C441.583333,468.25 441.55,468.016667 441.55,467.75 C441.55,467.483333 441.583333,467.25 441.65,467.05 C441.716667,466.85 441.933333,466.75 442.3,466.75 C442.666667,466.75 442.883333,466.85 442.95,467.05 C443.016667,467.25 443.05,467.483333 443.05,467.75 C443.05,468.016667 443.016667,468.25 442.95,468.45 C442.883333,468.65 442.666667,468.75 442.3,468.75 Z" id="yellow"></path>
        </g>
    </g>
</svg>